<svg xmlns="http://www.w3.org/2000/svg" width="32" height="32" fill="none" xmlns:v="https://vecta.io/nano"><mask id="A" maskUnits="userSpaceOnUse" x="0" y="0" width="32" height="32" mask-type="alpha"><path fill="#d9d9d9" d="M0 0h32v32H0z"/></mask><g mask="url(#A)"><path fill-rule="evenodd" d="M4.783 27.217A2.57 2.57 0 0 0 6.667 28h18.667a2.57 2.57 0 0 0 1.884-.783A2.57 2.57 0 0 0 28 25.333V6.667a2.57 2.57 0 0 0-.783-1.884A2.57 2.57 0 0 0 25.333 4H6.667a2.57 2.57 0 0 0-1.884.783A2.57 2.57 0 0 0 4 6.667v5.761h2.667V6.667h18.667v18.667H6.667v-4.906H4v4.906a2.57 2.57 0 0 0 .783 1.884z" fill="#30d5c8"/></g><mask id="B" maskUnits="userSpaceOnUse" x="0" y="0" width="32" height="32" mask-type="alpha"><path fill="#d9d9d9" d="M0 0h32v32H0z"/></mask><g mask="url(#B)"><path d="M12.4 23.033a1.26 1.26 0 0 1-.384-.967 1.38 1.38 0 0 1 .417-.967l3.767-3.767H1.333a1.29 1.29 0 0 1-.951-.384C.128 16.694 0 16.378 0 16s.128-.695.383-.951.573-.383.951-.383H16.2l-3.8-3.8c-.267-.267-.4-.584-.4-.951s.133-.683.4-.949.584-.4.951-.4.683.133.949.4l6.1 6.1c.133.133.228.278.284.433s.083.322.083.5-.028.345-.083.5-.151.3-.284.433l-6.133 6.133c-.245.244-.55.367-.916.367a1.3 1.3 0 0 1-.951-.4z" fill="#30d5c8"/></g></svg>