<!-- Generated by IcoMoon.io -->
<svg version="1.1" xmlns="http://www.w3.org/2000/svg" width="32" height="32" viewBox="0 0 32 32">
<path fill="#30d5c8" d="M15.601 24c-2.136-0.080-4.041-1.012-5.396-2.462l-0.004-0.005c-1.466-1.533-2.2-3.378-2.2-5.533-0.001-0.042-0.001-0.091-0.001-0.14 0-2.167 0.894-4.125 2.333-5.525l0.002-0.002c1.556-1.555 3.445-2.333 5.667-2.333 2.156 0 4 0.733 5.533 2.2 1.455 1.359 2.387 3.264 2.467 5.386l0 0.014-2.8-0.833c-0.289-1.2-0.911-2.183-1.867-2.949s-2.067-1.151-3.333-1.151c-1.467 0-2.722 0.522-3.767 1.567s-1.567 2.3-1.567 3.767c0 1.267 0.384 2.378 1.151 3.333s1.749 1.578 2.949 1.867l0.833 2.8zM16.001 29.333c-1.844 0-3.578-0.35-5.2-1.051s-3.033-1.649-4.233-2.849-2.15-2.611-2.849-4.233-1.051-3.355-1.051-5.2 0.35-3.578 1.051-5.2 1.649-3.033 2.849-4.233 2.611-2.15 4.233-2.851c1.508-0.663 3.266-1.049 5.115-1.049 0.030 0 0.060 0 0.090 0l-0.005-0c0.025-0 0.055-0 0.085-0 1.848 0 3.606 0.386 5.198 1.082l-0.084-0.033c1.622 0.7 3.033 1.651 4.233 2.851s2.15 2.611 2.849 4.233 1.051 3.356 1.051 5.2v0.6c-0 0.213-0.025 0.42-0.071 0.619l0.004-0.019-2.6-0.8v-0.4c0-2.978-1.033-5.5-3.1-7.567s-4.589-3.1-7.567-3.1-5.5 1.033-7.567 3.1-3.1 4.589-3.1 7.567 1.033 5.5 3.1 7.567 4.589 3.1 7.567 3.1h0.4l0.8 2.6c-0.18 0.042-0.387 0.067-0.6 0.067h-0.6zM26.901 29.533l-5.233-5.233-1 3.033c-0.111 0.311-0.322 0.461-0.633 0.449s-0.522-0.171-0.633-0.483l-3.033-10.1c-0.089-0.244-0.033-0.467 0.167-0.667s0.422-0.256 0.667-0.167l10.1 3.033c0.311 0.111 0.472 0.322 0.484 0.633 0.001 0.015 0.002 0.033 0.002 0.051 0 0.279-0.191 0.514-0.449 0.581l-0.004 0.001-3.033 1 5.233 5.233c0.123 0.117 0.2 0.282 0.2 0.465 0 0.001 0 0.002 0 0.002v-0c0 0.001 0 0.001 0 0.002 0 0.183-0.077 0.348-0.2 0.465l-1.7 1.7c-0.117 0.123-0.282 0.2-0.465 0.2-0.001 0-0.002 0-0.002 0h0c-0.001 0-0.001 0-0.002 0-0.183 0-0.348-0.077-0.465-0.2l-0-0z"></path>
</svg>
