<svg xmlns="http://www.w3.org/2000/svg" width="108" height="28" fill="#000" fill-rule="evenodd" xmlns:v="https://vecta.io/nano"><path d="M0 27.886V14.889c0-2.757.645-4.76 1.936-6.007s3.25-1.871 5.88-1.871h5.335v3.545h-4.24c-1.68 0-2.873.446-3.579 1.339s-1.059 2.298-1.059 4.214v11.777H0zm15.729 0c-3.214 0-4.821-2.166-4.821-6.499 0-2.022.402-3.611 1.205-4.766s2.009-1.733 3.616-1.733h8.764v-1.339c0-1.996-.901-2.993-2.702-2.993h-5.647V7.011h7.181c1.777 0 3.128.565 4.054 1.694s1.388 2.613 1.388 4.451v11.186c0 2.363-1.096 3.545-3.287 3.545h-9.751zm15.995 0V14.889c0-2.757.645-4.76 1.936-6.007s3.25-1.871 5.879-1.871h3.43v3.545h-2.334c-1.68 0-2.873.446-3.579 1.339s-1.059 2.298-1.059 4.214v11.777h-4.273zm14.286 0V7.011h4.273v20.875H46.01zm-28.638-3.545h6.026c.73 0 1.096-.394 1.096-1.182v-4.727h-7.121c-1.363 0-2.045.985-2.045 2.954s.682 2.954 2.045 2.954zM46.01 4.254V0h4.273v4.254H46.01zm42.61 5.287c1.707-1.503 4.446-2.255 8.217-2.255s6.51.752 8.217 2.255 2.56 4.191 2.56 8.064c0 3.924-.847 6.637-2.541 8.14S100.632 28 96.836 28s-6.541-.751-8.236-2.255-2.541-4.216-2.541-8.14c0-3.873.853-6.561 2.561-8.064zm2.064 8.064c0 2.522.459 4.312 1.376 5.369s2.51 1.586 4.777 1.586 3.86-.529 4.777-1.586 1.376-2.847 1.376-5.369c0-2.497-.459-4.268-1.376-5.312s-2.509-1.567-4.777-1.567-3.86.522-4.777 1.567-1.376 2.815-1.376 5.312zM54.301 27.771V10.955c0-2.293 1.146-3.439 3.439-3.439h17.542c2.497 0 4.433.522 5.809 1.567s2.064 2.828 2.064 5.35v13.338h-4.471V15.618c0-1.58-.331-2.752-.994-3.516s-1.745-1.147-3.248-1.147h-3.478V27.77h-4.471V10.955H59.92c-.764 0-1.146.382-1.146 1.147v15.669h-4.471z"/></svg>