<svg xmlns="http://www.w3.org/2000/svg" width="32" height="32" fill="none" xmlns:v="https://vecta.io/nano"><g clip-path="url(#A)"><path d="M25.867 5.489H6.109v17.957h19.758V5.489z" fill="#7de5de"/><path fill-rule="evenodd" d="M31.99 16c0 8.825-7.159 15.979-15.989 15.979S.012 24.825.012 16 7.17.021 16.001.021 31.99 7.175 31.99 16zm-20.52 6.359H8.367c-.652 0-.974 0-1.171-.125a.79.79 0 0 1-.357-.616c-.012-.232.149-.514.471-1.079l7.662-13.496c.326-.573.491-.86.699-.966a.79.79 0 0 1 .715 0c.208.106.373.393.699.966l1.575 2.748.008.014c.352.615.531.927.609 1.254a2.33 2.33 0 0 1 0 1.091c-.079.33-.255.644-.613 1.268l-4.025 7.11-.01.018c-.354.62-.534.934-.783 1.171-.271.259-.597.447-.955.554-.326.09-.691.09-1.422.09zm7.836 0h4.446c.656 0 .986 0 1.183-.129.212-.138.346-.369.357-.62.011-.224-.146-.496-.455-1.028l-.032-.055-2.227-3.808-.025-.043c-.313-.529-.471-.796-.674-.899-.224-.114-.487-.114-.711 0-.204.106-.369.385-.695.946l-2.219 3.808-.008.013c-.325.56-.487.841-.476 1.07.016.251.145.483.357.62.192.125.522.125 1.178.125z" fill="#000"/></g><defs><clipPath id="A"><path fill="#fff" d="M0 0h32v32H0z"/></clipPath></defs></svg>