<svg xmlns="http://www.w3.org/2000/svg" width="32" height="32" fill="#000" xmlns:v="https://vecta.io/nano"><path d="M9.789 13.446l6.215-6.212 6.218 6.218 3.614-3.617L16.004 0 6.172 9.832l3.617 3.614zM0 16l3.615-3.615L7.231 16l-3.615 3.615L0 16zm9.786 2.554l6.215 6.215 6.217-6.217 3.617 3.612-.003.003L16.001 32l-9.832-9.829-.005-.005 3.622-3.612zm14.984-2.552l3.616-3.616L32 16.002l-3.615 3.615-3.616-3.615zm-5.098-.003l-3.667-3.67-2.712 2.712-.313.311-.642.642-.005.005.005.008 3.667 3.665 3.667-3.67.003-.003h-.003z"/></svg>