<!-- Generated by IcoMoon.io -->
<svg version="1.1" xmlns="http://www.w3.org/2000/svg" width="32" height="32" viewBox="0 0 32 32">
<path fill="#30d5c8" d="M12.732 23.433c-0.003 0-0.007 0-0.011 0-0.175 0-0.344-0.031-0.5-0.087l0.010 0.003c-0.17-0.064-0.315-0.16-0.433-0.282l-0-0-5.733-5.733c-0.244-0.244-0.361-0.561-0.351-0.951s0.14-0.705 0.384-0.949 0.556-0.367 0.933-0.367 0.689 0.123 0.933 0.367l4.767 4.767 11.3-11.3c0.244-0.244 0.561-0.367 0.951-0.367s0.705 0.123 0.949 0.367 0.367 0.561 0.367 0.949-0.123 0.707-0.367 0.951l-12.267 12.267c-0.118 0.123-0.263 0.219-0.425 0.28l-0.008 0.003c-0.146 0.053-0.314 0.084-0.489 0.084-0.004 0-0.008 0-0.011-0h0.001z"></path>
</svg>
