<!-- Generated by IcoMoon.io -->
<svg version="1.1" xmlns="http://www.w3.org/2000/svg" width="33" height="32" viewBox="0 0 33 32">
<path d="M12.96 16l1.967-1.967c0.247-0.234 0.4-0.564 0.4-0.93 0-0.001 0-0.003 0-0.004v0c0-0.001 0-0.002 0-0.004 0-0.366-0.153-0.696-0.399-0.929l-0.001-0.001c-0.267-0.267-0.583-0.4-0.949-0.4s-0.684 0.133-0.951 0.4l-2.9 2.9c-0.123 0.118-0.219 0.263-0.28 0.425l-0.003 0.008c-0.053 0.146-0.084 0.314-0.084 0.489 0 0.004 0 0.008 0 0.011v-0.001c-0 0.003-0 0.007-0 0.011 0 0.175 0.031 0.344 0.087 0.5l-0.003-0.010c0.064 0.17 0.16 0.315 0.282 0.433l0 0 2.9 2.9c0.267 0.267 0.584 0.4 0.951 0.4s0.683-0.133 0.949-0.4c0.247-0.234 0.4-0.564 0.4-0.93 0-0.001 0-0.003 0-0.004v0c0-0.001 0-0.002 0-0.004 0-0.366-0.153-0.696-0.399-0.929l-0.001-0.001-1.967-1.967zM21.427 16l-1.967 1.967c-0.247 0.234-0.4 0.564-0.4 0.93 0 0.001 0 0.003 0 0.004v-0c0 0.001 0 0.002 0 0.004 0 0.366 0.153 0.696 0.399 0.929l0.001 0.001c0.267 0.267 0.584 0.4 0.951 0.4s0.683-0.133 0.949-0.4l2.9-2.9c0.123-0.118 0.219-0.263 0.28-0.425l0.003-0.008c0.053-0.146 0.084-0.314 0.084-0.489 0-0.004 0-0.008-0-0.011v0.001c0-0.003 0-0.007 0-0.011 0-0.175-0.031-0.344-0.087-0.5l0.003 0.010c-0.064-0.17-0.16-0.315-0.282-0.433l-0-0-2.9-2.9c-0.125-0.126-0.274-0.228-0.44-0.297l-0.009-0.003c-0.167-0.067-0.333-0.1-0.5-0.1-0.372 0-0.709 0.153-0.95 0.4l-0 0c-0.247 0.234-0.4 0.564-0.4 0.93 0 0.001 0 0.003 0 0.004v-0c0 0.001 0 0.002 0 0.004 0 0.366 0.153 0.696 0.399 0.929l0.001 0.001 1.967 1.967zM7.86 28c-0.733 0-1.361-0.261-1.884-0.783s-0.783-1.151-0.783-1.884v-18.667c0-0.733 0.261-1.361 0.783-1.884s1.151-0.783 1.884-0.783h18.667c0.733 0 1.361 0.261 1.884 0.783s0.783 1.151 0.783 1.884v18.667c0 0.733-0.261 1.361-0.783 1.884s-1.151 0.783-1.884 0.783h-18.667zM7.86 25.333h18.667v-18.667h-18.667v18.667z"></path>
</svg>
