<svg xmlns="http://www.w3.org/2000/svg" width="12" height="12" fill="none" xmlns:v="https://vecta.io/nano"><path d="M5.999 7.167L1.915 11.25a.79.79 0 0 1-.583.229.79.79 0 0 1-.583-.229.79.79 0 0 1-.229-.583.79.79 0 0 1 .229-.583L4.832 6 .749 1.917a.79.79 0 0 1-.229-.583A.79.79 0 0 1 .749.75.79.79 0 0 1 1.332.521.79.79 0 0 1 1.915.75l4.083 4.083L10.082.75a.79.79 0 0 1 .583-.229.79.79 0 0 1 .583.229.79.79 0 0 1 .229.583.79.79 0 0 1-.229.583L7.165 6l4.083 4.083a.79.79 0 0 1 .229.583.79.79 0 0 1-.812.813.79.79 0 0 1-.583-.229L5.999 7.167z" fill="#1c1b1f"/></svg>