<!-- Generated by IcoMoon.io -->
<svg version="1.1" xmlns="http://www.w3.org/2000/svg" width="33" height="32" viewBox="0 0 33 32">
<path d="M6.797 26.667v1.667c0 0.377-0.128 0.695-0.383 0.949s-0.573 0.384-0.951 0.384h-1.333c-0.377 0-0.695-0.128-0.949-0.384s-0.384-0.572-0.384-0.949v-3c0-0.377 0.128-0.695 0.384-0.949s0.571-0.384 0.949-0.384h24c0.377 0 0.695 0.128 0.949 0.384s0.384 0.572 0.384 0.949v3c0 0.377-0.128 0.695-0.384 0.949s-0.572 0.384-0.949 0.384h-1.333c-0.377 0-0.695-0.128-0.949-0.384s-0.384-0.572-0.384-0.949v-1.667h-7.333v1.667c0 0.377-0.128 0.695-0.383 0.949s-0.573 0.384-0.951 0.384h-1.333c-0.377 0-0.695-0.128-0.949-0.384s-0.384-0.572-0.384-0.949v-1.667h-7.333zM8.131 21.333c-0.377 0-0.695-0.128-0.951-0.384s-0.383-0.572-0.383-0.949v-16c-0-0.010-0-0.021-0-0.032 0-0.359 0.146-0.684 0.383-0.919l0-0c0.234-0.237 0.559-0.383 0.919-0.383 0.011 0 0.022 0 0.034 0l-0.002-0h16c0.377 0 0.695 0.128 0.949 0.383s0.384 0.573 0.384 0.951v16c0 0.377-0.128 0.695-0.384 0.949s-0.572 0.384-0.949 0.384h-16zM9.464 18.667h13.333v-13.333h-13.333v13.333zM18.797 10.667c0.012 0 0.026 0.001 0.041 0.001 0.714 0 1.293-0.579 1.293-1.293 0-0.014-0-0.029-0.001-0.043l0 0.002c0-0.012 0.001-0.026 0.001-0.041 0-0.714-0.579-1.293-1.293-1.293-0.014 0-0.029 0-0.043 0.001l0.002-0h-5.333c-0.377 0-0.695 0.128-0.949 0.383s-0.384 0.573-0.384 0.951 0.128 0.695 0.384 0.951 0.572 0.383 0.949 0.383h5.333z"></path>
</svg>
