<svg xmlns="http://www.w3.org/2000/svg" width="19" height="21" fill="none" xmlns:v="https://vecta.io/nano"><path d="M11.414 12.58l-.484.104a7.06 7.06 0 0 1-2.664-.01l-.653-.158-.921 1.197c-2.273-.073-3.137-1.596-3.137-1.596 0-3.381 1.481-6.122 1.481-6.122 1.481-1.133 2.89-1.102 2.89-1.102l.403.525a1.12 1.12 0 0 1 .112-.01c.768-.102 1.547-.098 2.314.01l.442-.525s1.41-.031 2.89 1.103a14.28 14.28 0 0 0 1.482 6.121s-.875 1.522-3.148 1.596l-1.007-1.133zM7.576 9C6.975 9 6.5 9.45 6.5 10s.485 1 1.076 1c.6 0 1.075-.45 1.075-1 .01-.55-.474-1-1.075-1zm3.848 0c-.6 0-1.075.45-1.075 1s.485 1 1.075 1c.601 0 1.076-.45 1.076-1s-.475-1-1.076-1zM18.5 21l-4.99-5h2.99V2h-14v14h11.003l.57 2H2.5a2 2 0 0 1-2-2V2A2 2 0 0 1 1.086.586 2 2 0 0 1 2.5 0h14a2 2 0 0 1 2 2v19z" fill="#30d5c8"/></svg>