<svg xmlns="http://www.w3.org/2000/svg" width="26" height="28" fill="none" xmlns:v="https://vecta.io/nano"><path d="M3.003 27.333c-.733 0-1.361-.261-1.883-.783S.336 25.4.336 24.667V3.333c0-.733.261-1.361.784-1.884S2.269.667 3.003.667h9.567a2.64 2.64 0 0 1 1.017.2 2.59 2.59 0 0 1 .849.567L20.903 7.9c.244.244.433.528.567.849a2.64 2.64 0 0 1 .2 1.017V14h-2.667v-4h-5.333c-.378 0-.694-.128-.949-.384s-.384-.572-.384-.949V3.333H3.003v21.333h8v2.667h-8zm16.4-9.967l1.433 1.433-5.167 5.133v1.4h1.4l5.167-5.133 1.4 1.4-5.333 5.333a1.33 1.33 0 0 1-.451.3c-.166.067-.338.1-.516.1h-3a.64.64 0 0 1-.467-.2.64.64 0 0 1-.2-.467v-3c0-.178.033-.35.1-.516a1.33 1.33 0 0 1 .3-.451l5.333-5.333zm4.233 4.233l-4.233-4.233 1.933-1.933c.245-.244.556-.367.933-.367s.689.122.933.367l2.367 2.367c.244.244.367.556.367.933s-.122.689-.367.933L23.636 21.6z" fill="#fff"/></svg>