<svg xmlns="http://www.w3.org/2000/svg" viewBox="0 0 32 32" width="32" height="32" fill="currentColor" xmlns:v="https://vecta.io/nano"><path d="M8.001 29.333c-.733 0-1.361-.261-1.883-.783s-.784-1.151-.784-1.884V5.333c0-.733.261-1.361.784-1.884s1.149-.783 1.883-.783h9.567a2.64 2.64 0 0 1 1.017.2c.322.133.605.322.849.567L25.901 9.9a2.59 2.59 0 0 1 .567.849c.133.323.2.662.2 1.017V16h-2.667v-4h-5.333c-.378 0-.694-.128-.949-.384s-.384-.572-.384-.949V5.333H8.001v21.333h8v2.667h-8zm16.4-9.967l1.433 1.433-5.167 5.133v1.4h1.4l5.167-5.133 1.4 1.4-5.333 5.333a1.33 1.33 0 0 1-.451.3c-.166.067-.338.1-.516.1h-3a.64.64 0 0 1-.467-.2.64.64 0 0 1-.2-.467v-3c0-.178.033-.35.1-.516a1.33 1.33 0 0 1 .3-.451l5.333-5.333zm4.233 4.233l-4.233-4.233 1.933-1.933c.244-.244.556-.367.933-.367s.689.122.933.367l2.367 2.367c.245.244.367.556.367.933s-.122.689-.367.933L28.634 23.6z"/></svg>