<!-- Generated by IcoMoon.io -->
<svg version="1.1" xmlns="http://www.w3.org/2000/svg" width="31" height="32" viewBox="0 0 31 32">
<path fill="#30d5c8" d="M15.335 23.073l-9.455-5.585 9.454 13.326 9.463-13.327-9.461 5.586zM15.479 0l-9.458 15.694 9.457 5.591 9.457-5.585-9.455-15.7z"></path>
<path fill="#30d5c8" stroke="#181b1c" stroke-linejoin="miter" stroke-linecap="butt" stroke-miterlimit="4" stroke-width="1.1852" d="M20.632 27.080l-2.432-2.374c-0.245-0.239-0.556-0.375-0.905-0.375s-0.66 0.135-0.905 0.375v0c-0.249 0.243-0.389 0.557-0.389 0.911s0.14 0.668 0.389 0.913v0l4.632 4.52c0.124 0.121 0.273 0.22 0.447 0.281l-0.836-4.251zM20.632 27.080v-6.264c0-0.348 0.128-0.668 0.39-0.913 0.254-0.237 0.569-0.347 0.904-0.347 0.006-0 0.013-0 0.020-0 0.348 0 0.664 0.139 0.894 0.364l0.001 0.001c0.252 0.247 0.379 0.564 0.379 0.911v6.247l2.432-2.374c0.245-0.239 0.555-0.375 0.905-0.375s0.66 0.135 0.905 0.375v0c0.249 0.243 0.389 0.557 0.389 0.911s-0.14 0.668-0.389 0.913l-4.632 4.52c-0.124 0.121-0.273 0.22-0.447 0.281l-1.753-4.251z"></path>
</svg>
