<svg xmlns="http://www.w3.org/2000/svg" width="32" height="32" fill="none" xmlns:v="https://vecta.io/nano"><path fill-rule="evenodd" d="M10.422 13.162c.61 0 1.105-.495 1.105-1.105V8.434c0-.515.355-.961.857-1.077l8.088-1.866a.82.82 0 0 1 1.002.797c0 .312.184.587.431.778.086.066.169.139.247.217a.9.9 0 0 0 1.532-.637V4.749 3.87c0-.711-.661-1.237-1.354-1.077l-.857.198-11.301 2.608c-.501.116-.857.562-.857 1.077v5.382c0 .61.495 1.105 1.105 1.105zm1.105 6.267c0-.61-.495-1.105-1.105-1.105s-1.105.495-1.105 1.105v5.382c0 .515.355.961.857 1.077l11.301 2.608.857.198c.692.16 1.354-.366 1.354-1.077v-.879-1.896a.9.9 0 0 0-1.532-.637 2.61 2.61 0 0 1-.247.217c-.247.19-.431.466-.431.777a.82.82 0 0 1-1.002.797l-8.088-1.866c-.502-.116-.857-.562-.857-1.077v-3.623z" fill="#30d5c8"/><g stroke-width="2.947" stroke-linecap="round" stroke-linejoin="round"><path d="M20.335 9.112l6.666 6.631m0 0l-6.666 6.631m6.666-6.631H6.002" stroke="#21968d"/><path d="M20.336 9.112l6.666 6.631m0 0l-6.666 6.631m6.666-6.631h0" stroke="#30d5c8"/></g></svg>