<svg xmlns="http://www.w3.org/2000/svg" width="32" height="32" fill="none" stroke-width="2.667" stroke-linecap="round" stroke-linejoin="round" xmlns:v="https://vecta.io/nano"><path d="M21.333 9.334L28 16m0 0l-6.667 6.667M28 16H7" stroke="#30d5c8"/><path d="M21.333 9.334L28 16m0 0l-6.667 6.667M28 16H7" stroke="#fff" stroke-opacity=".7"/><g stroke="#30d5c8"><path d="M7 4h1.6c2.24 0 3.36 0 4.216.436a4 4 0 0 1 1.748 1.748C15 7.04 15 8.16 15 10.4v11.2c0 2.24 0 3.36-.436 4.216a4 4 0 0 1-1.748 1.748C11.96 28 10.84 28 8.6 28H7"/><path d="M21.333 9.334L28 16m0 0l-6.667 6.667M28 16H15"/></g></svg>