<svg xmlns="http://www.w3.org/2000/svg" width="24" height="24" fill="none" xmlns:v="https://vecta.io/nano"><mask id="A" maskUnits="userSpaceOnUse" x="0" y="0" width="24" height="24" mask-type="alpha"><path fill="#d9d9d9" d="M0 0h24v24H0z"/></mask><g mask="url(#A)"><path d="M7 14a1.92 1.92 0 0 1-1.412-.588A1.92 1.92 0 0 1 5 12c0-.55.196-1.021.588-1.413S6.45 10 7 10s1.021.196 1.412.587S9 11.45 9 12a1.92 1.92 0 0 1-.588 1.412A1.92 1.92 0 0 1 7 14zm0 4c-1.667 0-3.083-.583-4.25-1.75S1 13.667 1 12s.583-3.083 1.75-4.25S5.333 6 7 6c1.117 0 2.129.275 3.038.825S11.667 8.1 12.2 9h8.375a1.04 1.04 0 0 1 .388.075 1 1 0 0 1 .337.225l2 2c.1.1.171.208.213.325s.062.242.062.375-.021.258-.062.375-.113.225-.213.325l-3.175 3.175c-.083.083-.183.15-.3.2s-.233.083-.35.1a.83.83 0 0 1-.35-.025c-.117-.033-.225-.092-.325-.175L17.5 15l-1.425 1.075c-.083.067-.175.117-.275.15s-.2.05-.3.05-.204-.017-.312-.05-.205-.083-.288-.15L13.375 15H12.2c-.533.9-1.254 1.625-2.162 2.175S8.117 18 7 18zm0-2c.933 0 1.754-.283 2.463-.85s1.179-1.283 1.412-2.15H14l1.45 1.025L17.5 12.5l1.775 1.375L21.15 12l-1-1h-9.275c-.233-.867-.704-1.583-1.412-2.15S7.933 8 7 8a3.85 3.85 0 0 0-2.825 1.175A3.85 3.85 0 0 0 3 12a3.85 3.85 0 0 0 1.175 2.825A3.85 3.85 0 0 0 7 16z" fill="#1c1b1f"/></g></svg>