<svg xmlns="http://www.w3.org/2000/svg" width="23" height="12" fill="none" xmlns:v="https://vecta.io/nano"><path d="M6 8a1.92 1.92 0 0 1-1.412-.588A1.92 1.92 0 0 1 4 6c0-.55.196-1.021.588-1.413S5.45 4 6 4s1.021.196 1.412.587S8 5.45 8 6a1.92 1.92 0 0 1-.588 1.412A1.92 1.92 0 0 1 6 8zm0 4c-1.667 0-3.083-.583-4.25-1.75S0 7.667 0 6s.583-3.083 1.75-4.25S4.333 0 6 0c1.117 0 2.129.275 3.038.825S10.667 2.1 11.2 3h8.375a1.04 1.04 0 0 1 .388.075 1 1 0 0 1 .337.225l2 2c.1.1.171.208.213.325s.062.242.062.375-.021.258-.062.375-.113.225-.213.325l-3.175 3.175c-.083.083-.183.15-.3.2s-.233.083-.35.1a.83.83 0 0 1-.35-.025c-.117-.033-.225-.092-.325-.175L16.5 9l-1.425 1.075c-.083.067-.175.117-.275.15s-.2.05-.3.05-.204-.017-.312-.05-.205-.083-.288-.15L12.375 9H11.2c-.533.9-1.254 1.625-2.162 2.175S7.117 12 6 12zm0-2c.933 0 1.754-.283 2.463-.85S9.642 7.867 9.875 7H13l1.45 1.025L16.5 6.5l1.775 1.375L20.15 6l-1-1H9.875c-.233-.867-.704-1.583-1.412-2.15S6.933 2 6 2a3.85 3.85 0 0 0-2.825 1.175A3.85 3.85 0 0 0 2 6a3.85 3.85 0 0 0 1.175 2.825A3.85 3.85 0 0 0 6 10z" fill="#1c1b1f"/></svg>