<svg xmlns="http://www.w3.org/2000/svg" width="32" height="32" fill="none" xmlns:v="https://vecta.io/nano"><mask id="A" maskUnits="userSpaceOnUse" x="0" y="0" width="32" height="32" mask-type="alpha"><path fill="#d9d9d9" d="M0 0h32v32H0z"/></mask><g mask="url(#A)"><path d="M16.001 30.667c-2.489 0-4.778-.567-6.867-1.7s-3.8-2.644-5.133-4.533v2.233c0 .378-.128.694-.383.949a1.29 1.29 0 0 1-.951.384c-.378 0-.694-.128-.949-.384s-.384-.572-.384-.949v-5.333a1.29 1.29 0 0 1 .384-.951c.255-.255.572-.383.949-.383h5.333c.378 0 .695.128.951.383s.383.573.383.951-.128.694-.383.949a1.29 1.29 0 0 1-.951.384H6.034c1.067 1.6 2.472 2.889 4.217 3.867S13.912 28 16.001 28c3.111 0 5.795-1.022 8.051-3.067a11.66 11.66 0 0 0 3.883-7.6 1.56 1.56 0 0 1 .451-.951c.255-.255.572-.383.949-.383a1.26 1.26 0 0 1 .949.4c.256.267.362.578.317.933-.156 1.867-.65 3.611-1.483 5.233s-1.9 3.033-3.2 4.233-2.801 2.144-4.501 2.833-3.505 1.033-5.416 1.033zM2.667 16a1.26 1.26 0 0 1-.949-.4c-.256-.267-.362-.578-.317-.933.178-1.867.678-3.611 1.5-5.233S4.784 6.4 6.083 5.2s2.801-2.144 4.501-2.833 3.505-1.033 5.416-1.033c2.489 0 4.778.567 6.867 1.7s3.8 2.644 5.133 4.533V5.334a1.29 1.29 0 0 1 .384-.951c.255-.255.572-.383.949-.383s.694.128.949.383a1.29 1.29 0 0 1 .384.951v5.333c0 .378-.128.694-.384.949s-.572.384-.949.384h-5.333c-.378 0-.694-.128-.949-.384s-.384-.572-.384-.949a1.29 1.29 0 0 1 .384-.951c.255-.255.572-.383.949-.383h1.967c-1.067-1.6-2.472-2.889-4.217-3.867S18.09 4 16.001 4c-3.111 0-5.794 1.022-8.049 3.067s-3.551 4.578-3.884 7.6a1.56 1.56 0 0 1-.449.949 1.29 1.29 0 0 1-.951.384z" fill="#30d5c8"/></g><g clip-path="url(#B)"><path d="M16.09 19.95l-5.318-3.142 5.318 7.497 5.323-7.497-5.324 3.142h.002zm.081-12.978l-5.32 8.828 5.319 3.145 5.319-3.142-5.318-8.831z" fill="#30d5c8"/></g><defs><clipPath id="B"><path fill="#fff" transform="translate(7.463 6.972)" d="M0 0h17.333v17.333H0z"/></clipPath></defs></svg>