<svg xmlns="http://www.w3.org/2000/svg" width="16" height="10" fill="none" xmlns:v="https://vecta.io/nano"><path d="M1.333 10c-.236 0-.434-.08-.593-.24S.5 9.403.5 9.167s.08-.434.24-.593.357-.24.593-.24h13.333c.236 0 .434.08.593.24s.24.357.24.593-.08.434-.24.593-.357.24-.593.24H1.333zm0-4.167c-.236 0-.434-.08-.593-.24S.5 5.236.5 5s.08-.434.24-.594.357-.239.593-.239h13.333c.236 0 .434.08.593.239s.24.358.24.594-.08.434-.24.593-.357.24-.593.24H1.333zm0-4.167c-.236 0-.434-.08-.593-.239S.5 1.069.5.833.58.399.74.239 1.097 0 1.333 0h13.333c.236 0 .434.08.593.239s.24.358.24.594-.08.434-.24.594-.357.239-.593.239H1.333z" fill="#1c1b1f"/></svg>