<svg xmlns="http://www.w3.org/2000/svg" width="23" height="22" fill="none" xmlns:v="https://vecta.io/nano"><path d="M5.094 10.229A8.01 8.01 0 0 1 5 9c0-4.418 3.605-8 8.053-8s8.053 3.582 8.053 8c0 .998-.184 1.954-.52 2.835-.07.183-.105.274-.121.346s-.022.121-.024.193.008.154.028.315l.402 3.27c.044.354.065.531.006.66a.5.5 0 0 1-.257.251c-.13.056-.306.03-.659-.022l-3.185-.467c-.166-.024-.249-.037-.325-.036a.9.9 0 0 0-.2.021c-.074.016-.169.051-.358.122a8.08 8.08 0 0 1-2.84.512c-.418 0-.829-.032-1.23-.093M6.632 21C9.596 21 12 18.538 12 15.5S9.596 10 6.632 10s-5.368 2.462-5.368 5.5c0 .611.097 1.198.276 1.747.076.232.114.348.126.427a.85.85 0 0 1 .01.213c-.005.08-.025.171-.065.352L1 21l2.995-.409c.163-.022.245-.034.317-.033s.115.005.189.019a3.54 3.54 0 0 1 .382.124c.548.194 1.137.299 1.749.299z" stroke="#30d5c8" stroke-width="2" stroke-linecap="round" stroke-linejoin="round"/></svg>