<svg xmlns="http://www.w3.org/2000/svg" width="20" height="20" fill="none" xmlns:v="https://vecta.io/nano"><path d="M9.975 17a.84.84 0 0 0 .613-.262.84.84 0 0 0 .262-.613v-.375c.833-.15 1.55-.475 2.15-.975s.9-1.242.9-2.225a3.33 3.33 0 0 0-.6-1.925c-.4-.583-1.2-1.092-2.4-1.525-1-.333-1.692-.625-2.075-.875S8.25 7.633 8.25 7.2s.154-.775.463-1.025.754-.375 1.337-.375a2.05 2.05 0 0 1 .875.175 1.78 1.78 0 0 1 .625.475c.167.2.354.338.563.413s.404.07.587-.013c.25-.1.421-.271.513-.513a.69.69 0 0 0-.063-.662c-.267-.383-.596-.708-.987-.975a2.55 2.55 0 0 0-1.263-.45v-.375a.84.84 0 0 0-.263-.613c-.175-.175-.379-.262-.612-.262s-.437.087-.612.262a.84.84 0 0 0-.263.613v.375c-.833.183-1.483.55-1.95 1.1s-.7 1.167-.7 1.85c0 .783.229 1.417.688 1.9s1.179.9 2.162 1.25c1.05.383 1.779.725 2.188 1.025s.612.692.612 1.175c0 .55-.196.954-.588 1.212s-.862.388-1.412.388a2.25 2.25 0 0 1-1.175-.313c-.35-.208-.642-.52-.875-.937-.133-.233-.308-.392-.525-.475s-.433-.083-.65 0a.87.87 0 0 0-.512.475c-.109.233-.113.458-.013.675.267.567.625 1.029 1.075 1.387s.992.605 1.625.738v.425a.84.84 0 0 0 .263.613c.175.175.379.262.612.262zM10 20c-1.383 0-2.683-.263-3.9-.788s-2.275-1.237-3.175-2.137A10.09 10.09 0 0 1 .788 13.9C.263 12.683 0 11.383 0 10s.263-2.683.788-3.9 1.237-2.275 2.137-3.175S4.883 1.312 6.1.787 8.617 0 10 0s2.683.262 3.9.787 2.275 1.238 3.175 2.138 1.612 1.958 2.137 3.175S20 8.617 20 10s-.263 2.683-.788 3.9-1.237 2.275-2.137 3.175-1.958 1.612-3.175 2.137S11.383 20 10 20zm0-2a7.71 7.71 0 0 0 5.663-2.337A7.71 7.71 0 0 0 18 10a7.71 7.71 0 0 0-2.337-5.663A7.71 7.71 0 0 0 10 2c-2.217 0-4.104.779-5.662 2.337S2 7.783 2 10s.779 4.104 2.338 5.663S7.783 18 10 18z" fill="#30d5c8"/></svg>