<svg xmlns="http://www.w3.org/2000/svg" width="16" height="16" fill="none" xmlns:v="https://vecta.io/nano"><path d="M8 15.5c-2.083 0-3.854-.729-5.312-2.187S.5 10.083.5 8s.729-3.854 2.188-5.312S5.917.5 8 .5l.573.021.552.063c-.569.403-1.024.927-1.364 1.572S7.25 3.5 7.25 4.25c0 1.25.438 2.313 1.313 3.188S10.5 8.75 11.75 8.75c.764 0 1.465-.17 2.104-.511a4.43 4.43 0 0 0 1.563-1.364l.063.552L15.5 8c0 2.083-.729 3.854-2.187 5.313S10.083 15.5 8 15.5zm0-1.667c1.222 0 2.319-.337 3.292-1.01s1.681-1.553 2.125-2.636l-.833.167a5.62 5.62 0 0 1-.833.063c-1.708 0-3.163-.601-4.365-1.802S5.583 5.958 5.583 4.25a5.61 5.61 0 0 1 .063-.833l.167-.833a5.84 5.84 0 0 0-2.635 2.125A5.64 5.64 0 0 0 2.167 8c0 1.611.569 2.986 1.708 4.125S6.389 13.833 8 13.833z" fill="#fff"/></svg>