<svg xmlns="http://www.w3.org/2000/svg" width="32" height="32" fill="none" xmlns:v="https://vecta.io/nano"><path d="M24.437 3.431l-5.842 8.68c-.404.591.373 1.307.932.809l5.749-5.009c.155-.124.373-.031.373.187v15.649c0 .218-.28.311-.404.155L7.842 3.058C7.283 2.373 6.475 2 5.574 2h-.622C3.336 2 2 3.338 2 4.987v22.027C2 28.662 3.336 30 4.983 30c1.026 0 1.989-.529 2.548-1.431l5.842-8.68c.404-.591-.373-1.307-.932-.809l-5.749 4.978c-.155.124-.373.031-.373-.187V8.253c0-.218.28-.311.404-.156l17.403 20.844A2.92 2.92 0 0 0 26.395 30h.622C28.664 30 30 28.662 30 27.013V4.987C30 3.338 28.664 2 27.017 2c-1.057 0-2.02.529-2.579 1.431z" fill="#000"/></svg>