<svg xmlns="http://www.w3.org/2000/svg" xmlns:xlink="http://www.w3.org/1999/xlink" width="21" height="13" fill="none" xmlns:v="https://vecta.io/nano"><g fill="#1c1b1f"><use xlink:href="#B"/><path fill-rule="evenodd" d="M1.463 8.537C2.438 9.512 3.617 10 5 10h3c.283 0 .521-.096.713-.288S9 9.283 9 9a.97.97 0 0 0-1-1H5a2.89 2.89 0 0 1-2.125-.875A2.89 2.89 0 0 1 2 5a2.89 2.89 0 0 1 .875-2.125A2.89 2.89 0 0 1 5 2h3c.283 0 .521-.096.713-.288S9 1.283 9 1a.97.97 0 0 0-.287-.713A.97.97 0 0 0 8 0H5C3.617 0 2.438.487 1.463 1.462S0 3.617 0 5s.488 2.562 1.463 3.537zm4.825-2.825C6.479 5.904 6.717 6 7 6h3.745c.122-.021.244-.032.366-.032s.245.01.366.032H13c.283 0 .521-.096.713-.288S14 5.283 14 5a.97.97 0 0 0-.287-.713A.97.97 0 0 0 13 4H7c-.283 0-.521.096-.712.287S6 4.717 6 5s.096.521.288.712zm13.374-2.567c-.252-.1-.516-.145-.773-.145a2.05 2.05 0 0 0-1.304.457 3.09 3.09 0 0 0-.46-.582A2.89 2.89 0 0 0 15 2h-3c-.283 0-.521-.096-.712-.288S11 1.283 11 1s.096-.521.288-.713S11.717 0 12 0h3a4.82 4.82 0 0 1 3.538 1.462c.506.506.881 1.067 1.124 1.683z"/><use xlink:href="#B"/></g><defs ><path id="B" d="M13.163 12.181c-.1 0-.194-.016-.281-.047s-.169-.084-.244-.159L9.412 8.75c-.138-.138-.203-.316-.197-.535s.079-.396.216-.534a.71.71 0 0 1 .525-.206.71.71 0 0 1 .525.206l2.681 2.681 6.356-6.356c.137-.138.316-.206.535-.206s.396.069.534.206.206.316.206.534-.069.397-.206.535l-6.9 6.9c-.075.075-.156.128-.244.159s-.181.047-.281.047z"/></defs></svg>