<svg xmlns="http://www.w3.org/2000/svg" width="24" height="24" fill="none" xmlns:v="https://vecta.io/nano"><mask id="A" maskUnits="userSpaceOnUse" x="0" y="0" width="24" height="24" mask-type="alpha"><path fill="#d9d9d9" d="M0 0h24v24H0z"/></mask><g mask="url(#A)"><path d="M15.163 18.181c-.1 0-.194-.016-.281-.047s-.169-.084-.244-.159l-3.225-3.225c-.137-.138-.203-.316-.197-.535s.079-.396.216-.534a.71.71 0 0 1 .525-.206.71.71 0 0 1 .525.206l2.681 2.681 6.356-6.356c.137-.138.316-.206.535-.206s.396.069.534.206.206.316.206.534-.069.397-.206.535l-6.9 6.9c-.075.075-.156.128-.244.159s-.181.047-.281.047z" fill="#1c1b1f"/><path fill-rule="evenodd" d="M3.463 14.537C4.438 15.512 5.617 16 7 16h3c.19 0 .36-.043.509-.13-.375-.516-.523-1.126-.508-1.705v-.005l.009-.16H7a2.89 2.89 0 0 1-2.125-.875A2.89 2.89 0 0 1 4 11a2.89 2.89 0 0 1 .875-2.125A2.89 2.89 0 0 1 7 8h3c.283 0 .521-.096.713-.288S11 7.283 11 7a.97.97 0 0 0-1-1H7c-1.383 0-2.562.487-3.537 1.462S2 9.617 2 11s.488 2.562 1.463 3.537zM13.834 12c-.42-.301-.898-.438-1.37-.438s-.951.137-1.37.438H9c-.283 0-.521-.096-.712-.288S8 11.283 8 11s.096-.521.288-.713S8.717 10 9 10h6a.97.97 0 0 1 1 1c0 .283-.096.521-.287.712S15.283 12 15 12h-1.166zm7.214-3.95a2.35 2.35 0 0 0-1.262.718l-.387.418c-.083-.107-.174-.211-.274-.31A2.89 2.89 0 0 0 17 8h-3c-.283 0-.521-.096-.712-.288S13 7.283 13 7s.096-.521.288-.713S13.717 6 14 6h3a4.82 4.82 0 0 1 3.538 1.462c.188.188.358.384.51.588z" fill="#1c1b1f"/><path d="M14.814 18.322c.111.04.227.059.348.059s.238-.019.348-.059c.119-.042.225-.113.318-.206l6.9-6.9c.18-.18.265-.411.265-.676s-.085-.496-.265-.675-.411-.265-.675-.265-.496.085-.676.265l-6.215 6.215-2.54-2.54a.91.91 0 0 0-.666-.265.91.91 0 0 0-.666.265c-.178.178-.267.407-.274.669v.001c-.007.266.074.5.256.682l3.225 3.225c.093.093.199.164.318.206zm0 0l.067-.188-.068.188zm.348-1.96l.141-.141h-.283l.141.141z" fill="#1c1b1f" stroke="#1c1b1f" stroke-width=".4"/></g></svg>