<svg xmlns="http://www.w3.org/2000/svg" width="32" height="32" fill="none" xmlns:v="https://vecta.io/nano"><path d="M24.167 10.583c-.583-.333-1.333-.333-2 0l-4.667 2.75-3.167 1.75-4.583 2.75c-.583.333-1.333.333-2 0l-3.583-2.167c-.583-.333-1-1-1-1.75V9.75c0-.667.333-1.333 1-1.75L7.75 5.917c.583-.333 1.333-.333 2 0l3.583 2.167c.583.333 1 1 1 1.75v2.75L17.5 10.75V7.917c0-.667-.333-1.333-1-1.75L9.833 2.25c-.583-.333-1.333-.333-2 0L1 6.25c-.667.333-1 1-1 1.667v7.833c0 .667.333 1.333 1 1.75l6.75 3.917c.583.333 1.333.333 2 0l4.583-2.667 3.167-1.833 4.583-2.667c.583-.333 1.333-.333 2 0l3.583 2.083c.583.333 1 1 1 1.75v4.167c0 .667-.333 1.333-1 1.75l-3.5 2.083c-.583.333-1.333.333-2 0L18.583 24c-.583-.333-1-1-1-1.75v-2.667l-3.167 1.833v2.75c0 .667.333 1.333 1 1.75l6.75 3.917c.583.333 1.333.333 2 0l6.75-3.917c.583-.333 1-1 1-1.75V16.25c0-.667-.333-1.333-1-1.75l-6.75-3.917z" fill="#000"/></svg>