<svg xmlns="http://www.w3.org/2000/svg" width="32" height="32" fill="none" xmlns:v="https://vecta.io/nano"><g clip-path="url(#A)" fill="#000"><path d="M5.2 22.142a1.05 1.05 0 0 1 .74-.306h25.539c.467 0 .7.563.37.893l-5.045 5.045a1.05 1.05 0 0 1-.74.306H.525c-.467 0-.7-.563-.37-.893L5.2 22.142zm0-18.836c.201-.193.467-.306.74-.306h25.539c.467 0 .7.563.37.893l-5.045 5.045a1.05 1.05 0 0 1-.74.306H.525c-.467 0-.7-.563-.37-.893L5.2 3.306z"/><path d="M26.804 12.664c-.193-.193-.459-.306-.74-.306H.525c-.467 0-.7.563-.37.893L5.2 18.296c.193.193.459.306.74.306h25.539c.467 0 .7-.563.37-.893l-5.045-5.045z"/></g><defs><clipPath id="A"><path fill="#fff" d="M0 0h32v32H0z"/></clipPath></defs></svg>