<svg aria-hidden="true" style="position: absolute; width: 0; height: 0; overflow: hidden;"
    version="1.1" xmlns="http://www.w3.org/2000/svg" xmlns:xlink="http://www.w3.org/1999/xlink">
    <defs>
      <symbol id="icon-arrow-right-min" fill="currentColor" viewBox="0 0 24 24">
          <path d="M12.6 12L8 7.4L9.4 6L15.4 12L9.4 18L8 16.6L12.6 12Z"/>
      </symbol>
        <symbol id="icon-arrow-right" fill="currentColor" viewBox="0 0 32 32">
            <path
                d="M16 31.239l-2.715-2.667 10.667-10.667h-23.191v-3.808h23.191l-10.667-10.667 2.715-2.667 15.239 15.239-15.239 15.239z"></path>
        </symbol>
        <symbol id="icon-click" fill="currentColor" viewBox="0 0 32 32">
            <path opacity="0.168"
                d="M16.171 24.358c-2.031-0.107-3.746-0.888-5.143-2.35s-2.095-3.217-2.095-5.269c-0.001-0.040-0.001-0.086-0.001-0.133 0-2.064 0.851-3.928 2.221-5.263l0.002-0.002c1.336-1.372 3.201-2.223 5.264-2.223 0.047 0 0.093 0 0.14 0.001l-0.007-0c2.053 0 3.81 0.698 5.269 2.095s2.243 3.112 2.35 5.143l-2.667-0.794c-0.276-1.143-0.869-2.078-1.778-2.808-0.838-0.683-1.919-1.096-3.097-1.096-0.027 0-0.054 0-0.082 0.001l0.004-0c-1.397 0-2.592 0.497-3.587 1.492s-1.492 2.191-1.492 3.587c-0 0.023-0.001 0.050-0.001 0.077 0 1.178 0.414 2.259 1.103 3.106l-0.007-0.009c0.73 0.91 1.666 1.502 2.808 1.778l0.794 2.667zM17.694 29.374c-0.19 0.043-0.381 0.064-0.571 0.064h-0.571c-0.024 0-0.051 0-0.079 0-1.761 0-3.436-0.368-4.953-1.032l0.079 0.031c-1.566-0.675-2.903-1.59-4.032-2.714l0 0c-1.124-1.129-2.039-2.466-2.682-3.949l-0.032-0.083c-0.633-1.437-1.001-3.112-1.001-4.873 0-0.028 0-0.056 0-0.083l-0 0.004c-0-0.024-0-0.051-0-0.079 0-1.761 0.368-3.436 1.032-4.953l-0.031 0.079c0.675-1.566 1.59-2.903 2.714-4.032l-0 0c1.129-1.124 2.466-2.040 3.949-2.683l0.083-0.032c1.545-0.666 3.195-1 4.952-1s3.407 0.334 4.952 1 2.889 1.573 4.032 2.715c1.124 1.129 2.039 2.466 2.682 3.949l0.032 0.083c0.633 1.437 1.001 3.112 1.001 4.873 0 0.028-0 0.056-0 0.083l0-0.004v0.571c0 0.19-0.021 0.381-0.064 0.571l-2.476-0.762v-0.381c0.001-0.058 0.002-0.125 0.002-0.194 0-2.748-1.131-5.231-2.953-7.011l-0.002-0.002c-1.781-1.823-4.264-2.954-7.011-2.954-0.069 0-0.137 0.001-0.205 0.002l0.010-0c-0.058-0.001-0.125-0.002-0.194-0.002-2.748 0-5.231 1.131-7.011 2.953l-0.002 0.002c-1.823 1.781-2.954 4.264-2.954 7.011 0 0.069 0.001 0.137 0.002 0.205l-0-0.010c-0.001 0.058-0.002 0.125-0.002 0.194 0 2.748 1.131 5.231 2.953 7.011l0.002 0.002c1.781 1.824 4.265 2.955 7.013 2.955 0.068 0 0.136-0.001 0.204-0.002l-0.010 0h0.381l0.762 2.476zM27.377 30.072l-5.429-5.428-1.588 4.794-3.81-12.698 12.698 3.81-4.794 1.588 5.429 5.429-2.508 2.508z"></path>
            <path opacity="0.84"
                d="M27.377 30.072l-5.429-5.428-1.588 4.794-3.81-12.698 12.698 3.81-4.794 1.588 5.429 5.429-2.508 2.508z"></path>
        </symbol>
        <symbol id="icon-decentralized" fill="currentColor" viewBox="0 0 32 32">
            <path opacity="0.168"
                d="M13.989 16.739c0.36 0 0.661-0.122 0.905-0.366s0.364-0.544 0.364-0.904-0.122-0.661-0.364-0.905-0.546-0.364-0.905-0.364-0.661 0.122-0.904 0.364-0.366 0.546-0.366 0.905 0.122 0.661 0.366 0.904 0.544 0.366 0.904 0.366zM9.766 16.739c0.36 0 0.661-0.122 0.905-0.366s0.364-0.544 0.364-0.904-0.122-0.661-0.364-0.905-0.546-0.364-0.905-0.364-0.661 0.122-0.905 0.364-0.364 0.546-0.364 0.905 0.122 0.661 0.364 0.904 0.546 0.366 0.905 0.366zM18.243 16.739c0.36 0 0.661-0.122 0.905-0.366s0.364-0.544 0.364-0.904-0.122-0.661-0.364-0.905-0.546-0.364-0.905-0.364-0.661 0.122-0.904 0.364-0.366 0.546-0.366 0.905 0.122 0.661 0.366 0.904 0.544 0.366 0.904 0.366zM22.466 16.739c0.36 0 0.661-0.122 0.904-0.366s0.366-0.544 0.366-0.904-0.122-0.661-0.366-0.905-0.544-0.364-0.904-0.364-0.661 0.122-0.904 0.364-0.366 0.546-0.366 0.905 0.122 0.661 0.366 0.904 0.544 0.366 0.904 0.366zM5.957 21.818h20.317v-12.698h-20.317v12.698zM16.116 26.897c-2.095 0-3.889-0.143-5.381-0.428s-2.238-0.631-2.238-1.032v-1.079h-5.080v-17.778h25.397v17.778h-5.079v1.079c0 0.402-0.745 0.747-2.237 1.032s-3.287 0.428-5.382 0.428z"></path>
            <path opacity="0.84"
                d="M14.894 16.372c-0.244 0.244-0.546 0.366-0.905 0.366s-0.661-0.122-0.904-0.366-0.366-0.544-0.366-0.904 0.122-0.661 0.366-0.905 0.544-0.364 0.904-0.364c0.009-0 0.019-0 0.029-0 0.342 0 0.652 0.139 0.876 0.364l0 0c0.244 0.242 0.364 0.546 0.364 0.905s-0.122 0.661-0.364 0.904zM10.671 16.372c-0.244 0.244-0.546 0.366-0.905 0.366s-0.661-0.122-0.905-0.366-0.364-0.544-0.364-0.904c-0-0.009-0-0.019-0-0.029 0-0.342 0.139-0.652 0.364-0.876l0-0c0.242-0.244 0.546-0.364 0.905-0.364 0.009-0 0.019-0 0.029-0 0.342 0 0.652 0.139 0.876 0.364l0 0c0.244 0.242 0.364 0.546 0.364 0.905s-0.122 0.661-0.364 0.904zM19.148 16.372c-0.244 0.244-0.546 0.366-0.905 0.366s-0.661-0.122-0.904-0.366-0.366-0.544-0.366-0.904 0.122-0.661 0.366-0.905 0.544-0.364 0.904-0.364c0.011-0 0.023-0.001 0.036-0.001 0.682 0 1.234 0.553 1.234 1.234 0 0.012-0 0.025-0.001 0.037l0-0.002c0 0.36-0.122 0.661-0.364 0.904zM23.369 16.372c-0.242 0.244-0.544 0.366-0.904 0.366s-0.661-0.122-0.904-0.366-0.366-0.544-0.366-0.904 0.122-0.661 0.366-0.905 0.544-0.364 0.904-0.364 0.661 0.122 0.904 0.364c0.226 0.224 0.366 0.534 0.366 0.877 0 0.010-0 0.020-0 0.029l0-0.001c0 0.36-0.122 0.661-0.366 0.904z"></path>
        </symbol>
        <symbol id="icon-discord" fill="currentColor" viewBox="0 0 32 32">
            <path
                d="M18.552 19.437l-0.645 0.139c-1.174 0.221-2.38 0.216-3.552-0.013l-0.871-0.211-1.228 1.596c-3.031-0.097-4.183-2.128-4.183-2.128 0-4.508 1.975-8.163 1.975-8.163 1.975-1.511 3.853-1.469 3.853-1.469l0.537 0.7c0.043-0.006 0.094-0.011 0.146-0.013l0.003-0c0.449-0.063 0.968-0.099 1.495-0.099 0.561 0 1.112 0.041 1.651 0.119l-0.061-0.007 0.589-0.7s1.88-0.041 3.853 1.471c0 0 1.976 3.653 1.976 8.161 0 0-1.167 2.029-4.197 2.128l-1.343-1.511zM13.435 14.664c-0.801 0-1.435 0.6-1.435 1.333s0.647 1.333 1.435 1.333c0.8 0 1.433-0.6 1.433-1.333 0.013-0.733-0.632-1.333-1.433-1.333zM18.566 14.664c-0.8 0-1.433 0.6-1.433 1.333s0.647 1.333 1.433 1.333c0.801 0 1.435-0.6 1.435-1.333s-0.633-1.333-1.435-1.333zM28.001 30.664l-6.653-6.667h3.987v-18.666h-18.668v18.667h14.671l0.76 2.667h-15.431c-0.707 0-1.386-0.281-1.886-0.781s-0.781-1.179-0.781-1.887v-18.666c0-0.707 0.281-1.386 0.781-1.886s1.178-0.781 1.886-0.781h18.667c0.707 0 1.386 0.281 1.886 0.781s0.78 1.178 0.78 1.886v25.333z"></path>
        </symbol>
        <symbol id="icon-x" fill="currentColor" viewBox="0 0 16 16">
            <path d="M11.9511 1.60059H14.1223L9.37886 7.02198L14.9591 14.3993H10.5898L7.16763 9.92497L3.25191 14.3993H1.07939L6.15295 8.60049L0.799805 1.60059H5.27997L8.37333 5.69027L11.9511 1.60059ZM11.1891 13.0997H12.3921L4.6263 2.83188H3.33525L11.1891 13.0997Z"/>
        </symbol>
        <symbol id="icon-monetization" fill="currentColor" viewBox="0 0 32 32">
            <path d="M19 15H17V7H18C19.0609 7 20.0783 7.42143 20.8284 8.17157C21.5786 8.92172 22 9.93913 22 11C22 11.2652 22.1054 11.5196 22.2929 11.7071C22.4804 11.8946 22.7348 12 23 12C23.2652 12 23.5196 11.8946 23.7071 11.7071C23.8946 11.5196 24 11.2652 24 11C23.9983 9.40921 23.3657 7.88405 22.2408 6.75919C21.116 5.63433 19.5908 5.00165 18 5H17V3C17 2.73478 16.8946 2.48043 16.7071 2.29289C16.5196 2.10536 16.2652 2 16 2C15.7348 2 15.4804 2.10536 15.2929 2.29289C15.1054 2.48043 15 2.73478 15 3V5H14C12.4087 5 10.8826 5.63214 9.75736 6.75736C8.63214 7.88258 8 9.4087 8 11C8 12.5913 8.63214 14.1174 9.75736 15.2426C10.8826 16.3679 12.4087 17 14 17H15V25H13C11.9391 25 10.9217 24.5786 10.1716 23.8284C9.42143 23.0783 9 22.0609 9 21C9 20.7348 8.89464 20.4804 8.70711 20.2929C8.51957 20.1054 8.26522 20 8 20C7.73478 20 7.48043 20.1054 7.29289 20.2929C7.10536 20.4804 7 20.7348 7 21C7.00165 22.5908 7.63433 24.116 8.75919 25.2408C9.88405 26.3657 11.4092 26.9983 13 27H15V29C15 29.2652 15.1054 29.5196 15.2929 29.7071C15.4804 29.8946 15.7348 30 16 30C16.2652 30 16.5196 29.8946 16.7071 29.7071C16.8946 29.5196 17 29.2652 17 29V27H19C20.5913 27 22.1174 26.3679 23.2426 25.2426C24.3679 24.1174 25 22.5913 25 21C25 19.4087 24.3679 17.8826 23.2426 16.7574C22.1174 15.6321 20.5913 15 19 15ZM14 15C12.9391 15 11.9217 14.5786 11.1716 13.8284C10.4214 13.0783 10 12.0609 10 11C10 9.93913 10.4214 8.92172 11.1716 8.17157C11.9217 7.42143 12.9391 7 14 7H15V15H14ZM19 25H17V17H19C20.0609 17 21.0783 17.4214 21.8284 18.1716C22.5786 18.9217 23 19.9391 23 21C23 22.0609 22.5786 23.0783 21.8284 23.8284C21.0783 24.5786 20.0609 25 19 25Z" />
        </symbol>
        <symbol id="icon-rect" fill="currentColor" viewBox="0 0 32 32">
            <path d="M2 2h28v28h-28z"></path>
        </symbol>
        <symbol id="icon-shield" fill="currentColor" viewBox="0 0 32 32">
            <path opacity="0.2"
                d="M14.347 21.246l7.174-7.174-1.809-1.809-5.365 5.365-2.667-2.667-1.809 1.81 4.475 4.477zM15.68 29.437c-2.942-0.741-5.37-2.429-7.285-5.064s-2.872-5.56-2.872-8.777v-7.747l10.159-3.81 10.159 3.81v7.746c0 3.217-0.957 6.142-2.872 8.779s-4.344 4.323-7.285 5.064zM15.68 26.77c2.2-0.698 4.021-2.095 5.46-4.19s2.159-4.424 2.159-6.984v-6.001l-7.619-2.857-7.619 2.857v5.999c0 2.562 0.719 4.888 2.159 6.984s3.259 3.493 5.46 4.19z"></path>
            <path opacity="0.84"
                d="M21.521 14.074l-7.174 7.174-4.475-4.475 1.81-1.81 2.667 2.667 5.365-5.365 1.81 1.81z"></path>
        </symbol>
        <symbol id="icon-support" fill="currentColor" viewBox="0 0 32 32">
            <path d="M25.2362 6.8325C24.04 5.62422 22.6172 4.66377 21.0492 4.00613C19.4813 3.3485 17.799 3.00659 16.0987 3H16C12.5522 3 9.24558 4.36964 6.80761 6.80761C4.36964 9.24558 3 12.5522 3 16V23C3 23.7956 3.31607 24.5587 3.87868 25.1213C4.44129 25.6839 5.20435 26 6 26H8C8.79565 26 9.55871 25.6839 10.1213 25.1213C10.6839 24.5587 11 23.7956 11 23V18C11 17.2044 10.6839 16.4413 10.1213 15.8787C9.55871 15.3161 8.79565 15 8 15H5.045C5.23785 12.9149 6.02104 10.928 7.30278 9.27213C8.58452 7.61626 10.3117 6.36004 12.2819 5.65071C14.2521 4.94137 16.3836 4.80832 18.4267 5.26713C20.4698 5.72595 22.3398 6.75763 23.8175 8.24125C25.6236 10.0566 26.7345 12.4488 26.9562 15H24C23.2044 15 22.4413 15.3161 21.8787 15.8787C21.3161 16.4413 21 17.2044 21 18V23C21 23.7956 21.3161 24.5587 21.8787 25.1213C22.4413 25.6839 23.2044 26 24 26H27C27 26.7956 26.6839 27.5587 26.1213 28.1213C25.5587 28.6839 24.7956 29 24 29H17C16.7348 29 16.4804 29.1054 16.2929 29.2929C16.1054 29.4804 16 29.7348 16 30C16 30.2652 16.1054 30.5196 16.2929 30.7071C16.4804 30.8946 16.7348 31 17 31H24C25.3261 31 26.5979 30.4732 27.5355 29.5355C28.4732 28.5979 29 27.3261 29 26V16C29.0065 14.2995 28.6774 12.6144 28.0316 11.0412C27.3857 9.46811 26.4358 8.03788 25.2362 6.8325ZM8 17C8.26522 17 8.51957 17.1054 8.70711 17.2929C8.89464 17.4804 9 17.7348 9 18V23C9 23.2652 8.89464 23.5196 8.70711 23.7071C8.51957 23.8946 8.26522 24 8 24H6C5.73478 24 5.48043 23.8946 5.29289 23.7071C5.10536 23.5196 5 23.2652 5 23V17H8ZM24 24C23.7348 24 23.4804 23.8946 23.2929 23.7071C23.1054 23.5196 23 23.2652 23 23V18C23 17.7348 23.1054 17.4804 23.2929 17.2929C23.4804 17.1054 23.7348 17 24 17H27V24H24Z" />
        </symbol>
        <symbol id="icon-verticals-assets" stroke="currentColor" fill="transparent"
            viewBox="0 0 117 115">
            <path
                d="M84.1367 79.9014L75.2482 61.4477M84.1367 79.9014L30.1138 113.086M84.1367 79.9014L116.001 80.5848M75.2482 61.4477L55.0229 73.9984M75.2482 61.4477L97.6788 61.8176L89.2111 44.05M55.0229 73.9984L37.7249 84.5813L17.3399 42.2495M55.0229 73.9984L49.858 63.2568M17.3399 42.2495L1 52.3007L30.1138 113.086M17.3399 42.2495L26.7504 42.5899M30.1138 113.086L62.1877 113.744L116.001 80.5848M116.001 80.5848L87.0776 19.7929H82.6988M89.2111 44.05L57.8089 63.4295M89.2111 44.05L93.0696 41.6688M82.6988 19.7929L93.0696 41.6688M82.6988 19.7929L73.826 1.48631L52.854 1.25604M93.0696 41.6688L71.8671 41.2083M93.0696 41.6688L57.8089 63.4295M71.8671 41.2083L36.6064 62.969M71.8671 41.2083L52.854 1.25604M36.6064 62.969L26.7504 42.5899M36.6064 62.969L49.858 63.2568M52.854 1.25604L17.3399 23.1319L26.7504 42.5899M57.8089 63.4295L49.858 63.2568" />
        </symbol>
        <symbol id="icon-verticals-identities" stroke="currentColor" fill="transparent"
            viewBox="0 0 102 117">
            <path
                d="M34.3575 106.833L51.0923 116.5V97.1664L34.3575 87.5237L34.3575 68.1905L34.3575 68.1785L17.6227 58.5237V39.1664L0.888672 29.5V48.8694V68.2389V87.5L17.6227 97.1664L34.3575 106.833Z" />
            <path
                d="M51.0918 116.5L101.295 87.5V68.2389V48.8694V29.5L84.5614 39.1664L84.8822 58.5237L67.8264 68.1907L67.8266 87.5237L51.0918 97.1664V116.5Z" />
            <path
                d="M67.8275 87.524L67.8273 68.191C58.6765 62.9361 43.5086 62.936 34.3579 68.1908L34.3579 87.5241C43.5086 82.2692 58.6767 82.2691 67.8275 87.524Z" />
            <path
                d="M84.883 58.524L84.5623 39.1667C65.9889 28.4757 36.1964 28.4757 17.623 39.1667V58.524C36.1964 47.8331 66.3097 47.8331 84.883 58.524Z" />
            <path
                d="M51.0923 97.1664L67.8271 87.5237C58.6764 82.2688 43.5083 82.2689 34.3575 87.5237L51.0923 97.1664Z" />
            <path
                d="M67.827 68.1907L84.8827 58.5237C66.3094 47.8327 36.1961 47.8327 17.6227 58.5237L34.3575 68.1785L34.3575 68.1905C43.5083 62.9357 58.6762 62.9358 67.827 68.1907Z" />
            <path
                d="M0.888672 29.5L17.6227 39.1664C36.1961 28.4754 65.9886 28.4754 84.562 39.1664L101.296 29.5L84.562 19.8336L67.8271 10.1668L51.0923 0.5L34.3575 10.1668L17.6227 19.8336L0.888672 29.5Z" />
        </symbol>
        <symbol id="icon-app-logo" fill="currentColor" viewBox="0 0 123 32">
            <path
                d="M0 31.87v-14.854c0-3.151 0.737-5.44 2.213-6.865s3.714-2.138 6.72-2.138h6.097v4.051h-4.846c-1.92 0-3.283 0.51-4.090 1.53s-1.21 2.626-1.21 4.816v13.459h-4.883zM17.976 31.87c-3.673 0-5.51-2.475-5.51-7.427 0-2.311 0.459-4.127 1.377-5.447s2.296-1.981 4.133-1.981h10.016v-1.53c0-2.281-1.030-3.421-3.088-3.421h-6.454v-4.051h8.207c2.031 0 3.575 0.646 4.633 1.936s1.586 2.986 1.586 5.087v12.784c0 2.701-1.253 4.051-3.757 4.051h-11.144zM36.256 31.87v-14.854c0-3.151 0.737-5.44 2.213-6.865s3.714-2.138 6.719-2.138h3.92v4.051h-2.667c-1.92 0-3.283 0.51-4.090 1.53s-1.21 2.626-1.21 4.816v13.459h-4.883zM52.583 31.87v-23.857h4.883v23.857h-4.883zM19.854 27.818h6.887c0.834 0 1.253-0.45 1.253-1.351v-5.402h-8.138c-1.558 0-2.337 1.126-2.337 3.376s0.779 3.376 2.337 3.376zM52.583 4.862v-4.862h4.883v4.862h-4.883zM101.28 10.904c1.951-1.718 5.081-2.577 9.391-2.577s7.44 0.859 9.391 2.577 2.926 4.79 2.926 9.216c0 4.485-0.968 7.585-2.904 9.303s-5.075 2.577-9.414 2.577-7.475-0.859-9.413-2.577-2.904-4.819-2.904-9.303c0-4.426 0.975-7.498 2.927-9.216zM103.639 20.12c0 2.882 0.525 4.928 1.573 6.136s2.869 1.813 5.459 1.813 4.411-0.605 5.459-1.813 1.573-3.254 1.573-6.136c0-2.854-0.525-4.878-1.573-6.071s-2.867-1.791-5.459-1.791-4.411 0.597-5.459 1.791-1.573 3.217-1.573 6.071zM62.058 31.737v-19.217c0-2.621 1.31-3.931 3.93-3.931h20.048c2.854 0 5.066 0.597 6.639 1.791s2.359 3.232 2.359 6.114v15.243h-5.11v-13.889c0-1.806-0.378-3.145-1.136-4.018s-1.994-1.31-3.712-1.31h-3.975v19.217h-5.11v-19.217h-7.512c-0.873 0-1.31 0.437-1.31 1.31v17.907h-5.11z"></path>
        </symbol>
        <symbol id="icon-near" fill="currentColor" viewBox="0 0 32 32">
            <path
                d="M24.437 3.431l-5.842 8.68c-0.404 0.591 0.373 1.307 0.932 0.809l5.749-5.009c0.155-0.124 0.373-0.031 0.373 0.187v15.649c0 0.218-0.28 0.311-0.404 0.155l-17.403-20.844c-0.559-0.685-1.367-1.058-2.268-1.058h-0.622c-1.616 0-2.952 1.338-2.952 2.987v22.027c0 1.648 1.336 2.986 2.983 2.986 1.026 0 1.989-0.529 2.548-1.431l5.842-8.68c0.404-0.591-0.373-1.307-0.932-0.809l-5.749 4.978c-0.155 0.124-0.373 0.031-0.373-0.187v-15.618c0-0.218 0.28-0.311 0.404-0.156l17.403 20.844c0.539 0.649 1.347 1.059 2.25 1.059 0.007 0 0.013-0 0.020-0h0.621c1.647 0 2.983-1.338 2.983-2.987v-22.026c0-1.649-1.336-2.987-2.983-2.987-1.057 0-2.020 0.529-2.579 1.431z"></path>
        </symbol>
        <symbol id="icon-polygon" fill="currentColor" viewBox="0 0 32 32">
            <path
                d="M24.167 10.583c-0.583-0.333-1.333-0.333-2 0l-4.667 2.75-3.167 1.75-4.583 2.75c-0.583 0.333-1.333 0.333-2 0l-3.583-2.167c-0.583-0.333-1-1-1-1.75v-4.166c0-0.667 0.333-1.333 1-1.75l3.583-2.083c0.583-0.333 1.333-0.333 2 0l3.583 2.167c0.583 0.333 1 1 1 1.75v2.75l3.167-1.834v-2.833c0-0.667-0.333-1.333-1-1.75l-6.667-3.917c-0.583-0.333-1.333-0.333-2 0l-6.833 4c-0.667 0.333-1 1-1 1.667v7.833c0 0.667 0.333 1.333 1 1.75l6.75 3.917c0.583 0.333 1.333 0.333 2 0l4.583-2.667 3.167-1.833 4.583-2.667c0.583-0.333 1.333-0.333 2 0l3.583 2.083c0.583 0.333 1 1 1 1.75v4.167c0 0.667-0.333 1.333-1 1.75l-3.5 2.083c-0.583 0.333-1.333 0.333-2 0l-3.583-2.083c-0.583-0.333-1-1-1-1.75v-2.667l-3.167 1.833v2.75c0 0.667 0.333 1.333 1 1.75l6.75 3.917c0.583 0.333 1.333 0.333 2 0l6.75-3.917c0.583-0.333 1-1 1-1.75v-7.916c0-0.667-0.333-1.333-1-1.75l-6.75-3.917z"></path>
        </symbol>
        <symbol id="icon-solana" fill="currentColor" viewBox="0 0 32 32">
            <path
                d="M5.2 22.142c0.19-0.189 0.451-0.306 0.74-0.306h25.539c0.467 0 0.7 0.563 0.37 0.893l-5.045 5.045c-0.19 0.189-0.451 0.306-0.74 0.306h-25.539c-0.467 0-0.7-0.563-0.37-0.893l5.045-5.045zM5.2 3.306c0.201-0.193 0.467-0.306 0.74-0.306h25.539c0.467 0 0.7 0.563 0.37 0.893l-5.045 5.045c-0.19 0.189-0.451 0.306-0.74 0.306h-25.539c-0.467 0-0.7-0.563-0.37-0.893l5.045-5.045z"></path>
            <path
                d="M26.804 12.664c-0.193-0.193-0.459-0.306-0.74-0.306h-25.539c-0.467 0-0.7 0.563-0.37 0.893l5.045 5.045c0.193 0.193 0.459 0.306 0.74 0.306h25.539c0.467 0 0.7-0.563 0.37-0.893l-5.045-5.045z"></path>
        </symbol>
        <symbol id="icon-ethereum" fill="currentColor" viewBox="0 0 32 32">
            <path
                d="M6.555 14.338l9.433-3.976 9.143 4.078-9.158-14.44-9.418 14.338zM6.584 18.75l9.419 5.457 9.607-5.457-9.521 13.25-9.505-13.25zM16.028 12.307l-9.825 4.136 9.825 5.457 9.549-5.341-9.549-4.252z"></path>
        </symbol>
        <symbol id="icon-avalanche" fill="currentColor" viewBox="0 0 32 32">
            <path fill="none" d="M25.867 5.489h-19.758v17.957h19.758v-17.957z"></path>
            <path
                d="M31.99 16c0 8.825-7.159 15.979-15.989 15.979s-15.989-7.154-15.989-15.979 7.158-15.979 15.989-15.979 15.989 7.154 15.989 15.979zM11.469 22.361c0.731 0 1.096 0 1.422-0.090 0.358-0.107 0.684-0.295 0.955-0.554 0.249-0.237 0.429-0.551 0.783-1.171l4.035-7.128c0.358-0.624 0.534-0.938 0.613-1.268l-0.003 0.016c0.044-0.18 0.068-0.368 0.068-0.562s-0.024-0.382-0.065-0.546c-0.078-0.327-0.257-0.639-0.609-1.254l-1.583-2.762c-0.326-0.573-0.491-0.86-0.699-0.966l0.004 0.002c-0.108-0.056-0.231-0.088-0.362-0.088s-0.254 0.032-0.357 0.086c-0.208 0.106-0.373 0.393-0.699 0.966l-7.662 13.496c-0.322 0.565-0.483 0.847-0.471 1.079l0 0.002c0.015 0.256 0.152 0.479 0.357 0.614 0.197 0.125 0.519 0.125 1.171 0.125h3.103zM19.306 22.359h4.446c0.656 0 0.986 0 1.183-0.129 0.212-0.138 0.346-0.369 0.357-0.62 0.011-0.224-0.146-0.496-0.455-1.028l-0.032-0.055-2.252-3.851c-0.313-0.529-0.471-0.796-0.674-0.899-0.224-0.114-0.487-0.114-0.711 0-0.204 0.106-0.369 0.385-0.695 0.946l-2.227 3.821c-0.325 0.56-0.487 0.841-0.476 1.070 0.016 0.251 0.145 0.483 0.357 0.62 0.192 0.125 0.522 0.125 1.178 0.125z"></path>
        </symbol>
        <symbol id="icon-binance" fill="currentColor" viewBox="0 0 32 32">
            <path
                d="M9.789 13.446l6.215-6.212 6.218 6.218 3.614-3.617-9.832-9.835-9.832 9.832 3.617 3.614zM0 16l3.615-3.615 3.616 3.615-3.615 3.615-3.616-3.615zM9.786 18.554l6.215 6.215 6.217-6.217 3.617 3.612-9.834 9.836-9.837-9.834 3.622-3.612zM24.77 16.002l3.616-3.616 3.614 3.616-3.615 3.615-3.616-3.615zM19.672 15.999l-3.667-3.67-3.672 3.67 0.005 0.008 3.667 3.665 3.667-3.673z"></path>
        </symbol>
        <symbol id="icon-bnb" viewBox="0 0 32 32">
            <path fill="var(--primary-title-color)"
                d="M16 0c8.837 0 16 7.163 16 16s-7.163 16-16 16-16-7.163-16-16 7.163-16 16-16v0z"></path>
            <path fill="var(--primary-bg-color)"
                d="M8.794 16l0.012 4.231 3.595 2.115v2.477l-5.699-3.342v-6.718l2.092 1.237zM8.794 11.769v2.465l-2.094-1.238v-2.465l2.094-1.238 2.104 1.238-2.104 1.238zM13.901 10.531l2.094-1.238 2.104 1.238-2.104 1.238-2.094-1.238zM10.306 19.354v-2.477l2.094 1.238v2.465l-2.094-1.227zM13.901 23.233l2.094 1.238 2.104-1.238v2.465l-2.104 1.238-2.094-1.238v-2.465zM21.101 10.531l2.094-1.238 2.104 1.238v2.465l-2.104 1.238v-2.465l-2.094-1.238zM23.195 20.231l0.012-4.231 2.094-1.238v6.718l-5.699 3.342v-2.477l3.594-2.114zM21.694 19.354l-2.094 1.227v-2.465l2.094-1.238v2.477zM21.694 12.646l0.012 2.477-3.605 2.115v4.241l-2.094 1.227-2.094-1.227v-4.241l-3.605-2.115v-2.477l2.103-1.238 3.583 2.126 3.605-2.126 2.104 1.238h-0.009zM10.306 8.417l5.688-3.354 5.699 3.354-2.094 1.238-3.605-2.126-3.595 2.126-2.094-1.238z"></path>
        </symbol>
        <symbol id="icon-usdt" viewBox="0 0 37 32">
            <path fill="var(--primary-title-color)"
                d="M6.736 0.157l-6.707 14.089c-0.017 0.035-0.028 0.076-0.028 0.12 0 0.078 0.033 0.149 0.086 0.199l0 0 18.115 17.358c0.050 0.048 0.117 0.077 0.191 0.077s0.142-0.029 0.191-0.077l-0 0 18.115-17.357c0.053-0.050 0.086-0.121 0.086-0.199 0-0.044-0.010-0.085-0.028-0.121l0.001 0.002-6.707-14.089c-0.044-0.094-0.138-0.158-0.246-0.158-0 0-0 0-0.001 0h-22.818c-0.001 0-0.002-0-0.003-0-0.108 0-0.202 0.064-0.245 0.155l-0.001 0.002z"></path>
            <path fill="var(--primary-bg-color)"
                d="M20.72 15.693v0c-0.13 0.010-0.802 0.050-2.301 0.050-1.192 0-2.039-0.036-2.335-0.050v0c-4.607-0.203-8.046-1.005-8.046-1.965s3.439-1.761 8.046-1.967v3.133c0.301 0.022 1.164 0.073 2.356 0.073 1.431 0 2.147-0.060 2.276-0.072v-3.132c4.597 0.205 8.028 1.007 8.028 1.965s-3.43 1.76-8.028 1.964v0zM20.72 11.439v-2.804h6.416v-4.275h-17.468v4.275h6.415v2.803c-5.214 0.239-9.135 1.272-9.135 2.51s3.921 2.269 9.135 2.51v8.984h4.636v-8.988c5.202-0.239 9.117-1.271 9.117-2.508s-3.911-2.268-9.117-2.509v0zM20.72 11.439v0z"></path>
        </symbol>
        <symbol id="icon-usdc" viewBox="0 0 32 32">
            <path fill="var(--primary-title-color)"
                d="M16 32c8.867 0 16-7.133 16-16s-7.133-16-16-16-16 7.133-16 16 7.133 16 16 16z"></path>
            <path fill="var(--primary-bg-color)"
                d="M20.4 18.533c0-2.333-1.4-3.133-4.2-3.467-2-0.267-2.4-0.8-2.4-1.733s0.667-1.533 2-1.533c1.2 0 1.867 0.4 2.2 1.4 0.067 0.2 0.267 0.333 0.467 0.333h1.067c0.267 0 0.467-0.2 0.467-0.467v-0.067c-0.267-1.467-1.467-2.6-3-2.733v-1.6c0-0.267-0.2-0.467-0.533-0.533h-1c-0.267 0-0.467 0.2-0.533 0.533v1.533c-2 0.267-3.267 1.6-3.267 3.267 0 2.2 1.333 3.067 4.133 3.4 1.867 0.333 2.467 0.733 2.467 1.8s-0.933 1.8-2.2 1.8c-1.733 0-2.333-0.733-2.533-1.733-0.067-0.267-0.267-0.4-0.467-0.4h-1.133c-0.267 0-0.467 0.2-0.467 0.467v0.067c0.267 1.667 1.333 2.867 3.533 3.2v1.6c0 0.267 0.2 0.467 0.533 0.533h1c0.267 0 0.467-0.2 0.533-0.533v-1.6c2-0.333 3.333-1.733 3.333-3.533zM12.6 25.533c-5.2-1.867-7.867-7.667-5.933-12.8 1-2.8 3.2-4.933 5.933-5.933 0.267-0.133 0.4-0.333 0.4-0.667v-0.933c0-0.267-0.133-0.467-0.4-0.533-0.067 0-0.2 0-0.267 0.067-6.333 2-9.8 8.733-7.8 15.067 1.2 3.733 4.067 6.6 7.8 7.8 0.267 0.133 0.533 0 0.6-0.267 0.067-0.067 0.067-0.133 0.067-0.267v-0.933c0-0.2-0.2-0.467-0.4-0.6zM19.667 4.733c-0.267-0.133-0.533 0-0.6 0.267-0.067 0.067-0.067 0.133-0.067 0.267v0.933c0 0.267 0.2 0.533 0.4 0.667 5.2 1.867 7.867 7.667 5.933 12.8-1 2.8-3.2 4.933-5.933 5.933-0.267 0.133-0.4 0.333-0.4 0.667v0.933c0 0.267 0.133 0.467 0.4 0.533 0.067 0 0.2 0 0.267-0.067 6.333-2 9.8-8.733 7.8-15.067-1.2-3.8-4.133-6.667-7.8-7.867z"></path>
        </symbol>
        <symbol id="icon-sandbox" viewBox="0 0 32 32">
            <path fill="var(--primary-title-color)"
                d="M32 16c0 8.837-7.163 16-16 16s-16-7.163-16-16c0-8.837 7.163-16 16-16s16 7.163 16 16z"></path>
            <path fill="var(--primary-bg-color)"
                d="M10.624 7.552l-1.728 1.728v6.848l1.728 1.728h6.848v3.456h-3.392v-1.728h-5.184v3.456l1.728 1.728h10.304l1.728-1.728v-6.912l-1.728-1.728h-6.848v-3.456h3.456v1.728h5.184v-3.456l-1.728-1.728h-10.368z"></path>
        </symbol>
        <symbol id="icon-warning" fill="currentColor" viewBox="0 0 32 32">
            <path
                d="M16 22.666c0.378 0 0.694-0.128 0.95-0.384s0.382-0.572 0.382-0.95-0.128-0.694-0.382-0.95-0.572-0.382-0.95-0.382-0.694 0.128-0.95 0.382-0.384 0.572-0.384 0.95 0.128 0.694 0.384 0.95 0.572 0.384 0.95 0.384zM14.666 17.332h2.666v-8h-2.664v8zM16 29.332c-1.844 0-3.578-0.35-5.2-1.050s-3.034-1.65-4.234-2.85-2.15-2.612-2.85-4.234-1.050-3.356-1.050-5.2 0.35-3.578 1.050-5.2 1.65-3.034 2.85-4.234 2.612-2.148 4.234-2.848 3.356-1.050 5.2-1.050 3.578 0.35 5.2 1.050 3.034 1.65 4.234 2.85 2.15 2.612 2.85 4.234 1.050 3.356 1.050 5.2-0.35 3.578-1.050 5.2-1.65 3.034-2.85 4.234-2.61 2.15-4.234 2.85-3.356 1.050-5.2 1.050zM16 26.666c2.978 0 5.5-1.034 7.566-3.1s3.1-4.588 3.1-7.566-1.034-5.5-3.1-7.566-4.588-3.1-7.566-3.1-5.5 1.034-7.566 3.1-3.1 4.588-3.1 7.566 1.034 5.5 3.1 7.566 4.588 3.1 7.566 3.1z"></path>
        </symbol>
        <symbol id="icon-nft-trade-logo" fill="currentColor" viewBox="0 0 213 32">
            <path
                d="M184.95 21.866l-11.379-20.218c-0.509-0.912 0.421-1.963 1.368-1.525l10.502 4.717c0.282 0.123 0.579 0.123 0.859 0l10.766-4.752c0.947-0.421 1.875 0.632 1.35 1.542l-11.608 20.235c-0.189 0.324-0.534 0.538-0.93 0.538s-0.741-0.214-0.927-0.533l-0.003-0.005zM200.645 10.134l11.379 20.218c0.509 0.912-0.421 1.963-1.368 1.525l-10.502-4.717c-0.282-0.123-0.579-0.123-0.859 0l-10.749 4.734c-0.947 0.421-1.875-0.632-1.35-1.542l11.608-20.235c0.189-0.324 0.534-0.538 0.93-0.538s0.741 0.214 0.927 0.533l0.003 0.005-0.018 0.018zM26.986 0v31.544h-6.506l-12.606-18.2h-0.194v18.2h-7.68v-31.544h6.594l12.485 18.182h0.262v-18.182h7.645zM30.493 31.544v-31.544h21.654v6.19h-13.974v6.47h12.608v6.206h-12.606v12.677h-7.68zM53.637 6.19v-6.19h26.811v6.19h-9.61v25.355h-7.557v-25.355h-9.643zM80.394 31.544v-23.654h7.347v4.314h0.246c0.438-1.56 1.139-2.718 2.122-3.49 0.907-0.721 2.069-1.157 3.332-1.157 0.030 0 0.061 0 0.091 0.001l-0.005-0c0.014-0 0.030-0 0.047-0 0.367 0 0.727 0.026 1.080 0.075l-0.041-0.005c0.386 0.038 0.738 0.107 1.078 0.204l-0.042-0.010v6.541c-0.41-0.135-0.891-0.239-1.388-0.295l-0.033-0.003c-0.579-0.070-1.088-0.106-1.544-0.106-0.894 0-1.701 0.194-2.437 0.597-0.711 0.386-1.283 0.948-1.672 1.627l-0.011 0.021c-0.403 0.701-0.597 1.525-0.597 2.472v12.853h-7.576v0.018zM103.242 31.947c-1.525 0-2.858-0.245-4.032-0.754-1.152-0.495-2.095-1.292-2.755-2.292l-0.014-0.023c-0.666-1.035-1-2.331-1-3.893 0-1.315 0.227-2.419 0.701-3.331 0.465-0.898 1.118-1.64 1.91-2.197l0.019-0.013c0.824-0.562 1.754-1 2.822-1.28 0.985-0.281 2.143-0.493 3.334-0.592l0.068-0.005 3.261-0.386c0.824-0.141 1.421-0.35 1.789-0.597 0.386-0.262 0.579-0.648 0.579-1.122v-0.070c0-0.789-0.282-1.403-0.824-1.842s-1.28-0.648-2.21-0.648c-1 0-1.806 0.21-2.419 0.648-0.591 0.418-1.011 1.045-1.154 1.771l-0.003 0.018-6.979-0.245c0.208-1.472 0.775-2.782 1.61-3.878l-0.015 0.020c0.859-1.139 2.051-2.034 3.56-2.683 1.526-0.648 3.331-0.982 5.472-0.982 1.525 0 2.91 0.176 4.19 0.544 1.28 0.35 2.402 0.859 3.349 1.542 0.947 0.666 1.683 1.49 2.192 2.472 0.526 0.982 0.789 2.086 0.789 3.349v16.078h-7.118v-3.296h-0.192c-0.42 0.799-0.967 1.475-1.622 2.025l-0.010 0.008c-0.648 0.562-1.419 0.965-2.314 1.245-0.877 0.28-1.877 0.421-2.981 0.421v-0.018zM105.574 27.021c0.824 0 1.544-0.158 2.192-0.491 0.666-0.333 1.192-0.789 1.578-1.35 0.374-0.559 0.597-1.246 0.597-1.986 0-0.017-0-0.034-0-0.051l0 0.003v-2.245c-0.215 0.108-0.476 0.214-0.746 0.303l-0.043 0.012-1 0.262-1.122 0.211-1.106 0.176c-0.718 0.106-1.315 0.28-1.822 0.526-0.491 0.229-0.877 0.544-1.139 0.93-0.262 0.368-0.386 0.806-0.386 1.333 0 0.789 0.28 1.368 0.842 1.789 0.562 0.403 1.28 0.614 2.157 0.614v-0.035zM129.456 31.894c-1.754 0-3.349-0.456-4.787-1.35s-2.578-2.262-3.437-4.067-1.28-4.050-1.28-6.733 0.438-5.067 1.333-6.874c0.894-1.789 2.051-3.122 3.49-3.998 1.438-0.859 2.998-1.298 4.664-1.298 1.245 0 2.314 0.211 3.208 0.65 0.894 0.421 1.613 0.965 2.192 1.63s1.016 1.368 1.315 2.086h0.158v-11.941h7.574v31.544h-7.488v-3.84h-0.227c-0.315 0.736-0.771 1.421-1.368 2.051s-1.333 1.157-2.208 1.542-1.912 0.579-3.122 0.579l-0.018 0.018zM132.086 26.021c0.912 0 1.701-0.262 2.35-0.771 0.648-0.526 1.157-1.262 1.509-2.21s0.526-2.051 0.526-3.331-0.176-2.402-0.526-3.349c-0.334-0.93-0.842-1.648-1.509-2.157-0.65-0.509-1.438-0.754-2.35-0.754s-1.736 0.262-2.384 0.771-1.141 1.245-1.491 2.174c-0.333 0.93-0.491 2.034-0.491 3.314s0.176 2.384 0.509 3.331 0.824 1.683 1.474 2.21c0.648 0.509 1.438 0.771 2.384 0.771zM158.458 32c-2.49 0-4.629-0.491-6.435-1.456-1.777-0.98-3.196-2.416-4.128-4.153l-0.027-0.055c-0.965-1.824-1.438-3.998-1.438-6.523s0.491-4.576 1.454-6.4c0.944-1.809 2.345-3.266 4.054-4.252l0.050-0.027c1.771-1.035 3.84-1.542 6.242-1.542 1.701 0 3.243 0.262 4.646 0.789s2.613 1.298 3.648 2.333c1.016 1.035 1.822 2.298 2.384 3.805s0.859 3.226 0.859 5.155v1.877h-20.672v-4.384h13.624c0-0.806-0.194-1.507-0.579-2.139-0.361-0.624-0.881-1.122-1.504-1.446l-0.020-0.010c-0.632-0.35-1.386-0.544-2.21-0.544s-1.613 0.194-2.28 0.579c-0.665 0.364-1.204 0.881-1.585 1.506l-0.010 0.018c-0.386 0.63-0.597 1.368-0.614 2.174v4.454c0 0.965 0.194 1.806 0.579 2.542 0.38 0.71 0.936 1.282 1.61 1.672l0.020 0.011c0.701 0.403 1.544 0.597 2.507 0.597 0.666 0 1.28-0.088 1.824-0.28 0.545-0.183 1.013-0.465 1.406-0.826l-0.003 0.003c0.386-0.35 0.683-0.806 0.877-1.333l6.96 0.194c-0.28 1.542-0.928 2.893-1.91 4.050-0.965 1.139-2.245 2.034-3.822 2.666s-3.402 0.947-5.488 0.947h-0.018z"></path>
        </symbol>
        <symbol id="icon-advantage-1" viewBox="0 0 31 32" fill="none" stroke="currentColor"
            stroke-linejoin="round" stroke-linecap="butt" stroke-miterlimit="4"
            stroke-width="0.4762">
            <path
                d="M28.833 8.381l-13.189-7.619-13.19 7.619M28.833 8.381v15.238l-13.189 7.619M28.834 8.381l-13.19 7.619M15.643 31.238l-13.19-7.619v-15.238M15.643 31.238v-15.238M2.453 8.381l13.19 7.619"></path>
            <path
                d="M15.589 26.057c-5.571 0-10.088-4.517-10.088-10.088 0-0.005 0-0.010 0-0.016 0-1.853 0.502-3.589 1.377-5.079l-0.026 0.047 8.785 5.074v10.061h-0.048z"></path>
            <path
                d="M15.637 15.997l8.712-5.032c-1.739-3.037-5.010-5.083-8.76-5.083-3.733 0-6.991 2.027-8.736 5.040l8.785 5.074z"></path>
            <path
                d="M15.637 26.057c5.549-0.026 10.039-4.533 10.039-10.088 0-0.005 0-0.010 0-0.015 0-1.836-0.493-3.557-1.353-5.037l0.026 0.048-8.712 5.032v10.060z"></path>
        </symbol>
        <symbol id="icon-advantage-2" viewBox="0 0 31 32" fill="none" stroke="currentColor"
            stroke-linejoin="round" stroke-linecap="butt" stroke-miterlimit="4"
            stroke-width="0.4651">
            <path
                d="M28.12 8.186l-12.861-7.442-12.861 7.442M28.12 8.186l-12.861 7.442M28.12 8.186v10.711M28.12 18.932v-0.035M28.12 18.932v-0.035M28.12 18.932v4.138l-12.861 7.442M2.398 8.186v14.884l12.861 7.442M2.398 8.186l12.861 7.442M15.259 15.628v14.884"></path>
            <path d="M15.245 30.469l12.854-22.304h-25.702l12.848 22.305z"></path>
            <path
                d="M28.119 8.186l-12.86 7.442M2.398 8.186l12.861 7.442M15.259 15.628v14.884"></path>
        </symbol>
        <symbol id="icon-advantage-3" viewBox="0 0 32 32" fill="none" stroke="currentColor"
            stroke-linejoin="round" stroke-linecap="butt" stroke-miterlimit="4"
            stroke-width="0.4848">
            <path
                d="M31.515 16c0 4.319-6.946 7.82-15.515 7.82s-15.515-3.501-15.515-7.82c0-4.319 6.946-7.82 15.515-7.82s15.515 3.501 15.515 7.82z"></path>
            <path
                d="M16 31.515c-4.319 0-7.82-6.946-7.82-15.515s3.501-15.515 7.82-15.515c4.319 0 7.82 6.946 7.82 15.515s-3.501 15.515-7.82 15.515z"></path>
        </symbol>
        <symbol id="icon-advantage-4" viewBox="0 0 32 32" fill="none" stroke="currentColor"
            stroke-linejoin="round" stroke-linecap="butt" stroke-miterlimit="4"
            stroke-width="0.4776">
            <path
                d="M31.045 31.545l-10.41-10.39M20.634 21.155c2.137-2.133 3.458-5.078 3.458-8.332
        0-6.508-5.286-11.784-11.808-11.784s-11.808 5.276-11.808 11.784 5.286 11.784 11.808
        11.784c3.261 0 6.212-1.319 8.349-3.451z"></path>
            <path
                d="M16.991 12.984l0.016 0.026 0.010 0.016 0 0 0.007 0.011h-0.001l-0.009-0.004 0.009 0.005 0 0-0.016
        0.010-0.002 0.001-0.025 0.015-0.012 0.007-4.637 2.74-4.69-2.773 0.246-0.409 4.444-7.375
        4.659 7.731zM12.332 6.179l4.034 6.693-4.033 2.385-4.033-2.385 4.033-6.693zM8.65 14.521l3.682
        2.176 4.694-2.772-4.694 6.611-4.69-6.61 1.008 0.596zM12.575 17.109l2.764-1.632-3.007
        4.234-3.004-4.234 3.004 1.775 0.243-0.143z"></path>
        </symbol>
        <symbol id="icon-stacks" viewBox="0 0 32 32" fill="none">
            <path d="M1.50019 13.8752L15.5002 21.8752C15.6513 21.9616 15.8224 22.007 15.9964 22.007C16.1705 22.007 16.3416 21.9616 16.4927 21.8752L30.4927 13.8752C30.646 13.7878 30.7734 13.6614 30.8621 13.5088C30.9507 13.3562 30.9974 13.1829 30.9974 13.0064C30.9974 12.83 30.9507 12.6566 30.8621 12.5041C30.7734 12.3515 30.646 12.2251 30.4927 12.1377L16.4927 4.13768C16.3416 4.0513 16.1705 4.00586 15.9964 4.00586C15.8224 4.00586 15.6513 4.0513 15.5002 4.13768L1.50019 12.1377C1.34688 12.2251 1.21944 12.3515 1.13078 12.5041C1.04213 12.6566 0.995438 12.83 0.995438 13.0064C0.995438 13.1829 1.04213 13.3562 1.13078 13.5088C1.21944 13.6614 1.34688 13.7878 1.50019 13.8752ZM16.0002 6.15143L27.9839 13.0002L16.0002 19.8489L4.01644 13.0002L16.0002 6.15143ZM30.8677 17.5002C30.9347 17.6144 30.9784 17.7407 30.9961 17.8719C31.0139 18.0031 31.0055 18.1366 30.9713 18.2645C30.9371 18.3924 30.8779 18.5122 30.797 18.6171C30.7161 18.7219 30.6152 18.8096 30.5002 18.8752L16.5002 26.8752C16.3491 26.9616 16.178 27.007 16.0039 27.007C15.8299 27.007 15.6588 26.9616 15.5077 26.8752L1.50019 18.8752C1.38569 18.8095 1.28525 18.7219 1.2046 18.6175C1.12394 18.513 1.06466 18.3937 1.03013 18.2663C0.995593 18.1389 0.986491 18.0059 1.00334 17.875C1.02019 17.7441 1.06265 17.6178 1.12831 17.5033C1.19397 17.3888 1.28154 17.2884 1.38602 17.2077C1.4905 17.1271 1.60984 17.0678 1.73723 17.0332C1.99451 16.9635 2.26895 16.9988 2.50019 17.1314L16.0002 24.8489L29.5002 17.1314C29.6141 17.0657 29.74 17.023 29.8704 17.0059C30.0009 16.9889 30.1334 16.9977 30.2605 17.032C30.3875 17.0662 30.5065 17.1252 30.6107 17.2056C30.7149 17.2859 30.8023 17.386 30.8677 17.5002Z" fill="currentColor"/>
        </symbol>
        <symbol id="icon-incognito" viewBox="0 0 32 32" fill="none">
            <path d="M31 13.9998H27.51L21.5725 5.82351C21.3926 5.57647 21.1584 5.37395 20.888 5.23151C20.6176 5.08906 20.3182 5.01048 20.0127 5.00179C19.7072 4.9931 19.4038 5.05453 19.1258 5.18137C18.8477 5.30822 18.6024 5.4971 18.4088 5.7335L16.8025 7.59601L16.7775 7.62476C16.6844 7.74168 16.5662 7.8361 16.4316 7.901C16.297 7.9659 16.1494 7.99961 16 7.99961C15.8506 7.99961 15.703 7.9659 15.5684 7.901C15.4338 7.8361 15.3156 7.74168 15.2225 7.62476L15.1975 7.59601L13.5913 5.7335C13.3976 5.4971 13.1523 5.30822 12.8742 5.18137C12.5962 5.05453 12.2928 4.9931 11.9873 5.00179C11.6818 5.01048 11.3824 5.08906 11.112 5.23151C10.8416 5.37395 10.6074 5.57647 10.4275 5.82351L4.49 13.9998H1C0.734784 13.9998 0.48043 14.1051 0.292893 14.2926C0.105357 14.4802 0 14.7345 0 14.9998C0 15.265 0.105357 15.5193 0.292893 15.7069C0.48043 15.8944 0.734784 15.9998 1 15.9998H31C31.2652 15.9998 31.5196 15.8944 31.7071 15.7069C31.8946 15.5193 32 15.265 32 14.9998C32 14.7345 31.8946 14.4802 31.7071 14.2926C31.5196 14.1051 31.2652 13.9998 31 13.9998ZM12.0425 6.99976L12.0662 7.02851L13.6725 8.88976C13.9538 9.23566 14.3087 9.51452 14.7113 9.70604C15.1139 9.89756 15.5541 9.99694 16 9.99694C16.4459 9.99694 16.8861 9.89756 17.2887 9.70604C17.6913 9.51452 18.0462 9.23566 18.3275 8.88976L19.9338 7.02851C19.9412 7.01851 19.9462 7.00976 19.955 6.99976L25.0375 13.9998H6.96125L12.0425 6.99976ZM22.5 17.9998C21.3933 18 20.3254 18.408 19.5006 19.1459C18.6757 19.8839 18.1517 20.8999 18.0287 21.9998H13.9712C13.848 20.9009 13.3244 19.8858 12.5005 19.1484C11.6766 18.4109 10.61 18.0026 9.5042 18.0014C8.39843 18.0002 7.33092 18.4061 6.50539 19.1418C5.67985 19.8775 5.1541 20.8914 5.02844 21.99C4.90279 23.0886 5.18604 24.195 5.82413 25.0981C6.46223 26.0012 7.4105 26.6377 8.48799 26.8862C9.56548 27.1348 10.6967 26.9778 11.6659 26.4454C12.6351 25.913 13.3743 25.0424 13.7425 23.9998H18.2575C18.5325 24.7776 19.016 25.4648 19.6553 25.9864C20.2945 26.5079 21.0648 26.8438 21.8819 26.9571C22.6991 27.0704 23.5317 26.9569 24.2888 26.629C25.0458 26.3011 25.6981 25.7714 26.1744 25.0978C26.6507 24.4242 26.9327 23.6326 26.9895 22.8095C27.0463 21.9865 26.8757 21.1637 26.4964 20.431C26.1172 19.6984 25.5438 19.0841 24.839 18.6553C24.1341 18.2265 23.325 17.9997 22.5 17.9998ZM9.5 24.9998C9.00555 24.9998 8.5222 24.8531 8.11107 24.5784C7.69995 24.3037 7.37952 23.9133 7.1903 23.4565C7.00108 22.9996 6.95157 22.497 7.04804 22.012C7.1445 21.5271 7.3826 21.0816 7.73223 20.732C8.08186 20.3824 8.52732 20.1443 9.01227 20.0478C9.49723 19.9513 9.99989 20.0008 10.4567 20.1901C10.9135 20.3793 11.304 20.6997 11.5787 21.1108C11.8534 21.522 12 22.0053 12 22.4998C12 22.8281 11.9353 23.1532 11.8097 23.4565C11.6841 23.7598 11.4999 24.0354 11.2678 24.2675C11.0356 24.4997 10.76 24.6838 10.4567 24.8095C10.1534 24.9351 9.8283 24.9998 9.5 24.9998ZM22.5 24.9998C22.0055 24.9998 21.5222 24.8531 21.1111 24.5784C20.7 24.3037 20.3795 23.9133 20.1903 23.4565C20.0011 22.9996 19.9516 22.497 20.048 22.012C20.1445 21.5271 20.3826 21.0816 20.7322 20.732C21.0819 20.3824 21.5273 20.1443 22.0123 20.0478C22.4972 19.9513 22.9999 20.0008 23.4567 20.1901C23.9135 20.3793 24.304 20.6997 24.5787 21.1108C24.8534 21.522 25 22.0053 25 22.4998C25 23.1628 24.7366 23.7987 24.2678 24.2675C23.7989 24.7364 23.163 24.9998 22.5 24.9998Z" fill="currentColor"/>
        </symbol>
    </defs>
</svg>
