<svg aria-hidden="true" style="position: absolute; width: 0; height: 0; overflow: hidden;"
    version="1.1" xmlns="http://www.w3.org/2000/svg" xmlns:xlink="http://www.w3.org/1999/xlink">
    <defs>
        <symbol id="icon-arrow-right" fill="currentColor" viewBox="0 0 32 32">
            <path
                d="M16 31.239l-2.715-2.667 10.667-10.667h-23.191v-3.808h23.191l-10.667-10.667 2.715-2.667 15.239 15.239-15.239 15.239z"></path>
        </symbol>
        <symbol id="icon-click" fill="currentColor" viewBox="0 0 32 32">
            <path
                d="M15.6 24c-2.133-0.111-3.933-0.933-5.4-2.467s-2.2-3.378-2.2-5.533c0-2.222 0.778-4.111 2.333-5.667s3.444-2.333 5.667-2.333c2.156 0 4 0.733 5.533 2.2s2.356 3.267 2.467 5.4l-2.8-0.833c-0.289-1.2-0.911-2.183-1.867-2.949s-2.067-1.151-3.333-1.151c-1.467 0-2.722 0.522-3.767 1.567s-1.567 2.3-1.567 3.767c0 1.267 0.384 2.378 1.151 3.333s1.749 1.578 2.949 1.867l0.833 2.8zM17.2 29.267c-0.2 0.044-0.4 0.067-0.6 0.067h-0.6c-1.844 0-3.578-0.35-5.2-1.051s-3.033-1.649-4.233-2.849-2.15-2.611-2.849-4.233c-0.7-1.622-1.051-3.356-1.051-5.2s0.35-3.578 1.051-5.2c0.7-1.622 1.649-3.033 2.849-4.233s2.611-2.15 4.233-2.851c1.622-0.7 3.356-1.049 5.2-1.049s3.578 0.35 5.2 1.049c1.622 0.7 3.033 1.651 4.233 2.851s2.15 2.611 2.849 4.233c0.7 1.622 1.051 3.356 1.051 5.2v0.6c0 0.2-0.022 0.4-0.067 0.6l-2.6-0.8v-0.4c0-2.978-1.033-5.5-3.1-7.567s-4.589-3.1-7.567-3.1c-2.978 0-5.5 1.033-7.567 3.1s-3.1 4.589-3.1 7.567c0 2.978 1.033 5.5 3.1 7.567s4.589 3.1 7.567 3.1h0.4l0.8 2.6zM27.367 30l-5.7-5.7-1.667 5.033-4-13.333 13.333 4-5.033 1.667 5.7 5.7-2.633 2.633z"></path>
        </symbol>
        <symbol id="icon-decentralized" fill="currentColor" viewBox="0 0 32 32">
            <path
                d="M13.767 16c0.377 0 0.695-0.128 0.951-0.384s0.383-0.572 0.383-0.949c0-0.012 0.001-0.026 0.001-0.041 0-0.714-0.579-1.293-1.293-1.293-0.014 0-0.029 0-0.043 0.001l0.002-0c-0.377 0-0.695 0.128-0.949 0.383s-0.384 0.573-0.384 0.951 0.128 0.695 0.384 0.949 0.572 0.384 0.949 0.384zM9.333 16c0.377 0 0.695-0.128 0.951-0.384s0.383-0.572 0.383-0.949c0-0.012 0.001-0.026 0.001-0.041 0-0.714-0.579-1.293-1.293-1.293-0.014 0-0.029 0-0.043 0.001l0.002-0c-0.012-0-0.026-0.001-0.041-0.001-0.714 0-1.293 0.579-1.293 1.293 0 0.014 0 0.029 0.001 0.043l-0-0.002c0 0.377 0.128 0.695 0.383 0.949s0.573 0.384 0.951 0.384zM18.233 16c0.377 0 0.695-0.128 0.951-0.384s0.383-0.572 0.383-0.949c0-0.012 0.001-0.026 0.001-0.041 0-0.714-0.579-1.293-1.293-1.293-0.014 0-0.029 0-0.043 0.001l0.002-0c-0.377 0-0.695 0.128-0.949 0.383s-0.384 0.573-0.384 0.951 0.128 0.695 0.384 0.949 0.572 0.384 0.949 0.384zM22.667 16c0.377 0 0.695-0.128 0.949-0.384s0.384-0.572 0.384-0.949-0.128-0.695-0.384-0.951-0.572-0.383-0.949-0.383-0.695 0.128-0.949 0.383-0.384 0.573-0.384 0.951 0.128 0.695 0.384 0.949 0.572 0.384 0.949 0.384zM5.333 21.333h21.333v-13.333h-21.333v13.333zM16 26.667c-2.2 0-4.083-0.149-5.649-0.449s-2.351-0.661-2.351-1.084v-1.133h-5.333v-18.667h26.667v18.667h-5.333v1.133c0 0.423-0.783 0.784-2.349 1.084s-3.451 0.449-5.651 0.449z"></path>
        </symbol>
        <symbol id="icon-discord" fill="currentColor" viewBox="0 0 32 32">
            <path
                d="M18.552 19.437l-0.645 0.139c-1.174 0.221-2.38 0.216-3.552-0.013l-0.871-0.211-1.228 1.596c-3.031-0.097-4.183-2.128-4.183-2.128 0-4.508 1.975-8.163 1.975-8.163 1.975-1.511 3.853-1.469 3.853-1.469l0.537 0.7c0.043-0.006 0.094-0.011 0.146-0.013l0.003-0c0.449-0.063 0.968-0.099 1.495-0.099 0.561 0 1.112 0.041 1.651 0.119l-0.061-0.007 0.589-0.7s1.88-0.041 3.853 1.471c0 0 1.976 3.653 1.976 8.161 0 0-1.167 2.029-4.197 2.128l-1.343-1.511zM13.435 14.664c-0.801 0-1.435 0.6-1.435 1.333s0.647 1.333 1.435 1.333c0.8 0 1.433-0.6 1.433-1.333 0.013-0.733-0.632-1.333-1.433-1.333zM18.566 14.664c-0.8 0-1.433 0.6-1.433 1.333s0.647 1.333 1.433 1.333c0.801 0 1.435-0.6 1.435-1.333s-0.633-1.333-1.435-1.333zM28.001 30.664l-6.653-6.667h3.987v-18.666h-18.668v18.667h14.671l0.76 2.667h-15.431c-0.707 0-1.386-0.281-1.886-0.781s-0.781-1.179-0.781-1.887v-18.666c0-0.707 0.281-1.386 0.781-1.886s1.178-0.781 1.886-0.781h18.667c0.707 0 1.386 0.281 1.886 0.781s0.78 1.178 0.78 1.886v25.333z"></path>
        </symbol>
        <symbol id="icon-monetization" fill="currentColor" viewBox="0 0 32 32">
            <path
                d="M14.734 25.334h2.466v-1.634c1.089-0.2 2.039-0.633 2.851-1.3s1.216-1.667 1.216-3c0-0.009 0-0.019 0-0.029 0-0.969-0.306-1.866-0.826-2.602l0.009 0.014c-0.545-0.789-1.617-1.472-3.217-2.049-1.333-0.444-2.25-0.833-2.749-1.167s-0.751-0.778-0.751-1.333 0.2-0.989 0.6-1.3 0.967-0.467 1.7-0.467c0.689 0 1.239 0.172 1.651 0.516s0.705 0.784 0.883 1.317l2.233-0.933c-0.244-0.822-0.694-1.522-1.349-2.1s-1.384-0.9-2.184-0.967v-1.633h-2.468v1.633c-1.133 0.244-2.005 0.739-2.616 1.483s-0.917 1.573-0.917 2.484c0 1.067 0.317 1.928 0.951 2.583s1.638 1.228 3.016 1.717c1.333 0.489 2.261 0.927 2.784 1.316s0.783 0.895 0.783 1.517c0 0.711-0.25 1.233-0.749 1.567s-1.117 0.5-1.851 0.5c-0.012 0-0.027 0-0.041 0-0.722 0-1.383-0.258-1.896-0.687l0.005 0.004c-0.556-0.456-0.967-1.151-1.233-2.084l-2.3 0.933c0.289 1.089 0.772 1.972 1.449 2.649s1.528 1.128 2.551 1.351v1.7zM16 29.6c-1.889 0-3.661-0.356-5.317-1.067s-3.094-1.678-4.316-2.9-2.189-2.661-2.9-4.316-1.067-3.428-1.067-5.317 0.356-3.661 1.067-5.317 1.678-3.094 2.9-4.316 2.661-2.189 4.316-2.9 3.429-1.067 5.317-1.067 3.661 0.356 5.317 1.067 3.094 1.678 4.316 2.9 2.189 2.661 2.9 4.316 1.067 3.429 1.067 5.317-0.356 3.661-1.067 5.317-1.678 3.094-2.9 4.316-2.661 2.189-4.316 2.9-3.428 1.067-5.317 1.067zM16 26.567c2.956 0 5.456-1.022 7.5-3.067s3.067-4.544 3.067-7.5-1.022-5.456-3.067-7.5-4.544-3.067-7.5-3.067-5.455 1.023-7.5 3.067-3.066 4.545-3.066 7.5 1.022 5.456 3.067 7.5 4.544 3.067 7.5 3.067z"></path>
        </symbol>
        <symbol id="icon-rect" fill="currentColor" viewBox="0 0 32 32">
            <path d="M2 2h28v28h-28z"></path>
        </symbol>
        <symbol id="icon-shield" fill="currentColor" viewBox="0 0 32 32">
            <path
                d="M16 29.6c-3.178-0.778-5.794-2.578-7.849-5.4s-3.084-5.955-3.084-9.4v-8.333l10.933-4.067 10.933 4.067v8.333c0 3.445-1.028 6.578-3.083 9.4s-4.673 4.622-7.851 5.4zM16 26.433c2.267-0.756 4.15-2.217 5.651-4.383s2.249-4.584 2.249-7.251v-6.233l-7.9-2.967-7.9 2.967v6.233c0 2.667 0.75 5.084 2.251 7.251s3.383 3.627 5.649 4.383z"></path>
        </symbol>
        <symbol id="icon-support" fill="currentColor" viewBox="0 0 32 32">
            <path
                d="M14.467 28.366v-3.033h11v-9.733c0-1.311-0.25-2.539-0.749-3.683s-1.184-2.14-2.051-2.984-1.872-1.511-3.016-2-2.362-0.733-3.651-0.733c-1.267 0-2.472 0.244-3.616 0.733-1.169 0.501-2.169 1.175-3.019 2.002l0.002-0.002c-0.867 0.844-1.556 1.839-2.067 2.984s-0.767 2.372-0.767 3.683v8.267h-4.366v-7.833h1.333l0.067-1.467c0.156-1.711 0.606-3.261 1.351-4.649 0.74-1.386 1.681-2.562 2.801-3.538l0.015-0.013c1.093-0.946 2.37-1.718 3.763-2.254l0.088-0.030c1.433-0.544 2.905-0.816 4.416-0.816 1.533 0 3.011 0.272 4.433 0.816s2.7 1.306 3.833 2.284 2.072 2.161 2.816 3.551 1.195 2.927 1.351 4.616l0.067 1.5h1.333v7.833h-1.334v4.5h-14.033zM12 18.732c-0.4 0-0.733-0.133-1-0.4s-0.4-0.6-0.4-1 0.133-0.733 0.4-1 0.6-0.4 1-0.4 0.733 0.133 1 0.4 0.4 0.6 0.4 1-0.133 0.733-0.4 1-0.6 0.4-1 0.4zM20 18.732c-0.4 0-0.733-0.133-1-0.4s-0.4-0.6-0.4-1 0.133-0.733 0.4-1 0.6-0.4 1-0.4 0.733 0.133 1 0.4 0.4 0.6 0.4 1-0.133 0.733-0.4 1-0.6 0.4-1 0.4zM7.867 16.266c-0.089-1.267 0.094-2.433 0.549-3.5s1.079-1.978 1.868-2.733 1.694-1.345 2.716-1.767 2.044-0.633 3.067-0.633c0.033-0 0.073-0.001 0.112-0.001 2.016 0 3.857 0.745 5.264 1.976l-0.009-0.008c1.533 1.311 2.433 2.933 2.7 4.867-2.089-0.022-3.995-0.572-5.717-1.651s-3.016-2.483-3.883-4.216c-0.395 1.819-1.225 3.402-2.376 4.693l0.009-0.010c-1.2 1.367-2.633 2.362-4.3 2.984z"></path>
        </symbol>
        <symbol id="icon-verticals-assets" stroke="currentColor" fill="transparent"
            viewBox="0 0 117 115">
            <path
                d="M84.1367 79.9014L75.2482 61.4477M84.1367 79.9014L30.1138 113.086M84.1367 79.9014L116.001 80.5848M75.2482 61.4477L55.0229 73.9984M75.2482 61.4477L97.6788 61.8176L89.2111 44.05M55.0229 73.9984L37.7249 84.5813L17.3399 42.2495M55.0229 73.9984L49.858 63.2568M17.3399 42.2495L1 52.3007L30.1138 113.086M17.3399 42.2495L26.7504 42.5899M30.1138 113.086L62.1877 113.744L116.001 80.5848M116.001 80.5848L87.0776 19.7929H82.6988M89.2111 44.05L57.8089 63.4295M89.2111 44.05L93.0696 41.6688M82.6988 19.7929L93.0696 41.6688M82.6988 19.7929L73.826 1.48631L52.854 1.25604M93.0696 41.6688L71.8671 41.2083M93.0696 41.6688L57.8089 63.4295M71.8671 41.2083L36.6064 62.969M71.8671 41.2083L52.854 1.25604M36.6064 62.969L26.7504 42.5899M36.6064 62.969L49.858 63.2568M52.854 1.25604L17.3399 23.1319L26.7504 42.5899M57.8089 63.4295L49.858 63.2568" />
        </symbol>
        <symbol id="icon-verticals-identities" stroke="currentColor" fill="transparent"
            viewBox="0 0 102 117">
            <path
                d="M34.3575 106.833L51.0923 116.5V97.1664L34.3575 87.5237L34.3575 68.1905L34.3575 68.1785L17.6227 58.5237V39.1664L0.888672 29.5V48.8694V68.2389V87.5L17.6227 97.1664L34.3575 106.833Z" />
            <path
                d="M51.0918 116.5L101.295 87.5V68.2389V48.8694V29.5L84.5614 39.1664L84.8822 58.5237L67.8264 68.1907L67.8266 87.5237L51.0918 97.1664V116.5Z" />
            <path
                d="M67.8275 87.524L67.8273 68.191C58.6765 62.9361 43.5086 62.936 34.3579 68.1908L34.3579 87.5241C43.5086 82.2692 58.6767 82.2691 67.8275 87.524Z" />
            <path
                d="M84.883 58.524L84.5623 39.1667C65.9889 28.4757 36.1964 28.4757 17.623 39.1667V58.524C36.1964 47.8331 66.3097 47.8331 84.883 58.524Z" />
            <path
                d="M51.0923 97.1664L67.8271 87.5237C58.6764 82.2688 43.5083 82.2689 34.3575 87.5237L51.0923 97.1664Z" />
            <path
                d="M67.827 68.1907L84.8827 58.5237C66.3094 47.8327 36.1961 47.8327 17.6227 58.5237L34.3575 68.1785L34.3575 68.1905C43.5083 62.9357 58.6762 62.9358 67.827 68.1907Z" />
            <path
                d="M0.888672 29.5L17.6227 39.1664C36.1961 28.4754 65.9886 28.4754 84.562 39.1664L101.296 29.5L84.562 19.8336L67.8271 10.1668L51.0923 0.5L34.3575 10.1668L17.6227 19.8336L0.888672 29.5Z" />
        </symbol>
        <symbol id="icon-app-logo" fill="currentColor" viewBox="0 0 123 32">
            <path
                d="M0 31.87v-14.854c0-3.151 0.737-5.44 2.213-6.865s3.714-2.138 6.72-2.138h6.097v4.051h-4.846c-1.92 0-3.283 0.51-4.090 1.53s-1.21 2.626-1.21 4.816v13.459h-4.883zM17.976 31.87c-3.673 0-5.51-2.475-5.51-7.427 0-2.311 0.459-4.127 1.377-5.447s2.296-1.981 4.133-1.981h10.016v-1.53c0-2.281-1.030-3.421-3.088-3.421h-6.454v-4.051h8.207c2.031 0 3.575 0.646 4.633 1.936s1.586 2.986 1.586 5.087v12.784c0 2.701-1.253 4.051-3.757 4.051h-11.144zM36.256 31.87v-14.854c0-3.151 0.737-5.44 2.213-6.865s3.714-2.138 6.719-2.138h3.92v4.051h-2.667c-1.92 0-3.283 0.51-4.090 1.53s-1.21 2.626-1.21 4.816v13.459h-4.883zM52.583 31.87v-23.857h4.883v23.857h-4.883zM19.854 27.818h6.887c0.834 0 1.253-0.45 1.253-1.351v-5.402h-8.138c-1.558 0-2.337 1.126-2.337 3.376s0.779 3.376 2.337 3.376zM52.583 4.862v-4.862h4.883v4.862h-4.883zM101.28 10.904c1.951-1.718 5.081-2.577 9.391-2.577s7.44 0.859 9.391 2.577 2.926 4.79 2.926 9.216c0 4.485-0.968 7.585-2.904 9.303s-5.075 2.577-9.414 2.577-7.475-0.859-9.413-2.577-2.904-4.819-2.904-9.303c0-4.426 0.975-7.498 2.927-9.216zM103.639 20.12c0 2.882 0.525 4.928 1.573 6.136s2.869 1.813 5.459 1.813 4.411-0.605 5.459-1.813 1.573-3.254 1.573-6.136c0-2.854-0.525-4.878-1.573-6.071s-2.867-1.791-5.459-1.791-4.411 0.597-5.459 1.791-1.573 3.217-1.573 6.071zM62.058 31.737v-19.217c0-2.621 1.31-3.931 3.93-3.931h20.048c2.854 0 5.066 0.597 6.639 1.791s2.359 3.232 2.359 6.114v15.243h-5.11v-13.889c0-1.806-0.378-3.145-1.136-4.018s-1.994-1.31-3.712-1.31h-3.975v19.217h-5.11v-19.217h-7.512c-0.873 0-1.31 0.437-1.31 1.31v17.907h-5.11z"></path>
        </symbol>
        <symbol id="icon-near" fill="currentColor" viewBox="0 0 32 32">
            <path
                d="M24.437 3.431l-5.842 8.68c-0.404 0.591 0.373 1.307 0.932 0.809l5.749-5.009c0.155-0.124 0.373-0.031 0.373 0.187v15.649c0 0.218-0.28 0.311-0.404 0.155l-17.403-20.844c-0.559-0.685-1.367-1.058-2.268-1.058h-0.622c-1.616 0-2.952 1.338-2.952 2.987v22.027c0 1.648 1.336 2.986 2.983 2.986 1.026 0 1.989-0.529 2.548-1.431l5.842-8.68c0.404-0.591-0.373-1.307-0.932-0.809l-5.749 4.978c-0.155 0.124-0.373 0.031-0.373-0.187v-15.618c0-0.218 0.28-0.311 0.404-0.156l17.403 20.844c0.539 0.649 1.347 1.059 2.25 1.059 0.007 0 0.013-0 0.020-0h0.621c1.647 0 2.983-1.338 2.983-2.987v-22.026c0-1.649-1.336-2.987-2.983-2.987-1.057 0-2.020 0.529-2.579 1.431z"></path>
        </symbol>
        <symbol id="icon-polygon" fill="currentColor" viewBox="0 0 32 32">
            <path
                d="M24.167 10.583c-0.583-0.333-1.333-0.333-2 0l-4.667 2.75-3.167 1.75-4.583 2.75c-0.583 0.333-1.333 0.333-2 0l-3.583-2.167c-0.583-0.333-1-1-1-1.75v-4.166c0-0.667 0.333-1.333 1-1.75l3.583-2.083c0.583-0.333 1.333-0.333 2 0l3.583 2.167c0.583 0.333 1 1 1 1.75v2.75l3.167-1.834v-2.833c0-0.667-0.333-1.333-1-1.75l-6.667-3.917c-0.583-0.333-1.333-0.333-2 0l-6.833 4c-0.667 0.333-1 1-1 1.667v7.833c0 0.667 0.333 1.333 1 1.75l6.75 3.917c0.583 0.333 1.333 0.333 2 0l4.583-2.667 3.167-1.833 4.583-2.667c0.583-0.333 1.333-0.333 2 0l3.583 2.083c0.583 0.333 1 1 1 1.75v4.167c0 0.667-0.333 1.333-1 1.75l-3.5 2.083c-0.583 0.333-1.333 0.333-2 0l-3.583-2.083c-0.583-0.333-1-1-1-1.75v-2.667l-3.167 1.833v2.75c0 0.667 0.333 1.333 1 1.75l6.75 3.917c0.583 0.333 1.333 0.333 2 0l6.75-3.917c0.583-0.333 1-1 1-1.75v-7.916c0-0.667-0.333-1.333-1-1.75l-6.75-3.917z"></path>
        </symbol>
        <symbol id="icon-solana" fill="currentColor" viewBox="0 0 32 32">
            <path
                d="M5.2 22.142c0.19-0.189 0.451-0.306 0.74-0.306h25.539c0.467 0 0.7 0.563 0.37 0.893l-5.045 5.045c-0.19 0.189-0.451 0.306-0.74 0.306h-25.539c-0.467 0-0.7-0.563-0.37-0.893l5.045-5.045zM5.2 3.306c0.201-0.193 0.467-0.306 0.74-0.306h25.539c0.467 0 0.7 0.563 0.37 0.893l-5.045 5.045c-0.19 0.189-0.451 0.306-0.74 0.306h-25.539c-0.467 0-0.7-0.563-0.37-0.893l5.045-5.045z"></path>
            <path
                d="M26.804 12.664c-0.193-0.193-0.459-0.306-0.74-0.306h-25.539c-0.467 0-0.7 0.563-0.37 0.893l5.045 5.045c0.193 0.193 0.459 0.306 0.74 0.306h25.539c0.467 0 0.7-0.563 0.37-0.893l-5.045-5.045z"></path>
        </symbol>
        <symbol id="icon-ethereum" fill="currentColor" viewBox="0 0 32 32">
            <path
                d="M6.555 14.338l9.433-3.976 9.143 4.078-9.158-14.44-9.418 14.338zM6.584 18.75l9.419 5.457 9.607-5.457-9.521 13.25-9.505-13.25zM16.028 12.307l-9.825 4.136 9.825 5.457 9.549-5.341-9.549-4.252z"></path>
        </symbol>
        <symbol id="icon-avalanche" fill="currentColor" viewBox="0 0 32 32">
            <path fill="none" d="M25.867 5.489h-19.758v17.957h19.758v-17.957z"></path>
            <path
                d="M31.99 16c0 8.825-7.159 15.979-15.989 15.979s-15.989-7.154-15.989-15.979 7.158-15.979 15.989-15.979 15.989 7.154 15.989 15.979zM11.469 22.361c0.731 0 1.096 0 1.422-0.090 0.358-0.107 0.684-0.295 0.955-0.554 0.249-0.237 0.429-0.551 0.783-1.171l4.035-7.128c0.358-0.624 0.534-0.938 0.613-1.268l-0.003 0.016c0.044-0.18 0.068-0.368 0.068-0.562s-0.024-0.382-0.065-0.546c-0.078-0.327-0.257-0.639-0.609-1.254l-1.583-2.762c-0.326-0.573-0.491-0.86-0.699-0.966l0.004 0.002c-0.108-0.056-0.231-0.088-0.362-0.088s-0.254 0.032-0.357 0.086c-0.208 0.106-0.373 0.393-0.699 0.966l-7.662 13.496c-0.322 0.565-0.483 0.847-0.471 1.079l0 0.002c0.015 0.256 0.152 0.479 0.357 0.614 0.197 0.125 0.519 0.125 1.171 0.125h3.103zM19.306 22.359h4.446c0.656 0 0.986 0 1.183-0.129 0.212-0.138 0.346-0.369 0.357-0.62 0.011-0.224-0.146-0.496-0.455-1.028l-0.032-0.055-2.252-3.851c-0.313-0.529-0.471-0.796-0.674-0.899-0.224-0.114-0.487-0.114-0.711 0-0.204 0.106-0.369 0.385-0.695 0.946l-2.227 3.821c-0.325 0.56-0.487 0.841-0.476 1.070 0.016 0.251 0.145 0.483 0.357 0.62 0.192 0.125 0.522 0.125 1.178 0.125z"></path>
        </symbol>
        <symbol id="icon-binance" fill="currentColor" viewBox="0 0 32 32">
            <path
                d="M9.789 13.446l6.215-6.212 6.218 6.218 3.614-3.617-9.832-9.835-9.832 9.832 3.617 3.614zM0 16l3.615-3.615 3.616 3.615-3.615 3.615-3.616-3.615zM9.786 18.554l6.215 6.215 6.217-6.217 3.617 3.612-9.834 9.836-9.837-9.834 3.622-3.612zM24.77 16.002l3.616-3.616 3.614 3.616-3.615 3.615-3.616-3.615zM19.672 15.999l-3.667-3.67-3.672 3.67 0.005 0.008 3.667 3.665 3.667-3.673z"></path>
        </symbol>
        <symbol id="icon-bnb" viewBox="0 0 32 32">
            <path fill="var(--primary-title-color)"
                d="M16 0c8.837 0 16 7.163 16 16s-7.163 16-16 16-16-7.163-16-16 7.163-16 16-16v0z"></path>
            <path fill="var(--primary-bg-color)"
                d="M8.794 16l0.012 4.231 3.595 2.115v2.477l-5.699-3.342v-6.718l2.092 1.237zM8.794 11.769v2.465l-2.094-1.238v-2.465l2.094-1.238 2.104 1.238-2.104 1.238zM13.901 10.531l2.094-1.238 2.104 1.238-2.104 1.238-2.094-1.238zM10.306 19.354v-2.477l2.094 1.238v2.465l-2.094-1.227zM13.901 23.233l2.094 1.238 2.104-1.238v2.465l-2.104 1.238-2.094-1.238v-2.465zM21.101 10.531l2.094-1.238 2.104 1.238v2.465l-2.104 1.238v-2.465l-2.094-1.238zM23.195 20.231l0.012-4.231 2.094-1.238v6.718l-5.699 3.342v-2.477l3.594-2.114zM21.694 19.354l-2.094 1.227v-2.465l2.094-1.238v2.477zM21.694 12.646l0.012 2.477-3.605 2.115v4.241l-2.094 1.227-2.094-1.227v-4.241l-3.605-2.115v-2.477l2.103-1.238 3.583 2.126 3.605-2.126 2.104 1.238h-0.009zM10.306 8.417l5.688-3.354 5.699 3.354-2.094 1.238-3.605-2.126-3.595 2.126-2.094-1.238z"></path>
        </symbol>
        <symbol id="icon-usdt" viewBox="0 0 37 32">
            <path fill="var(--primary-title-color)"
                d="M6.736 0.157l-6.707 14.089c-0.017 0.035-0.028 0.076-0.028 0.12 0 0.078 0.033 0.149 0.086 0.199l0 0 18.115 17.358c0.050 0.048 0.117 0.077 0.191 0.077s0.142-0.029 0.191-0.077l-0 0 18.115-17.357c0.053-0.050 0.086-0.121 0.086-0.199 0-0.044-0.010-0.085-0.028-0.121l0.001 0.002-6.707-14.089c-0.044-0.094-0.138-0.158-0.246-0.158-0 0-0 0-0.001 0h-22.818c-0.001 0-0.002-0-0.003-0-0.108 0-0.202 0.064-0.245 0.155l-0.001 0.002z"></path>
            <path fill="var(--primary-bg-color)"
                d="M20.72 15.693v0c-0.13 0.010-0.802 0.050-2.301 0.050-1.192 0-2.039-0.036-2.335-0.050v0c-4.607-0.203-8.046-1.005-8.046-1.965s3.439-1.761 8.046-1.967v3.133c0.301 0.022 1.164 0.073 2.356 0.073 1.431 0 2.147-0.060 2.276-0.072v-3.132c4.597 0.205 8.028 1.007 8.028 1.965s-3.43 1.76-8.028 1.964v0zM20.72 11.439v-2.804h6.416v-4.275h-17.468v4.275h6.415v2.803c-5.214 0.239-9.135 1.272-9.135 2.51s3.921 2.269 9.135 2.51v8.984h4.636v-8.988c5.202-0.239 9.117-1.271 9.117-2.508s-3.911-2.268-9.117-2.509v0zM20.72 11.439v0z"></path>
        </symbol>
        <symbol id="icon-usdc" viewBox="0 0 32 32">
            <path fill="var(--primary-title-color)"
                d="M16 32c8.867 0 16-7.133 16-16s-7.133-16-16-16-16 7.133-16 16 7.133 16 16 16z"></path>
            <path fill="var(--primary-bg-color)"
                d="M20.4 18.533c0-2.333-1.4-3.133-4.2-3.467-2-0.267-2.4-0.8-2.4-1.733s0.667-1.533 2-1.533c1.2 0 1.867 0.4 2.2 1.4 0.067 0.2 0.267 0.333 0.467 0.333h1.067c0.267 0 0.467-0.2 0.467-0.467v-0.067c-0.267-1.467-1.467-2.6-3-2.733v-1.6c0-0.267-0.2-0.467-0.533-0.533h-1c-0.267 0-0.467 0.2-0.533 0.533v1.533c-2 0.267-3.267 1.6-3.267 3.267 0 2.2 1.333 3.067 4.133 3.4 1.867 0.333 2.467 0.733 2.467 1.8s-0.933 1.8-2.2 1.8c-1.733 0-2.333-0.733-2.533-1.733-0.067-0.267-0.267-0.4-0.467-0.4h-1.133c-0.267 0-0.467 0.2-0.467 0.467v0.067c0.267 1.667 1.333 2.867 3.533 3.2v1.6c0 0.267 0.2 0.467 0.533 0.533h1c0.267 0 0.467-0.2 0.533-0.533v-1.6c2-0.333 3.333-1.733 3.333-3.533zM12.6 25.533c-5.2-1.867-7.867-7.667-5.933-12.8 1-2.8 3.2-4.933 5.933-5.933 0.267-0.133 0.4-0.333 0.4-0.667v-0.933c0-0.267-0.133-0.467-0.4-0.533-0.067 0-0.2 0-0.267 0.067-6.333 2-9.8 8.733-7.8 15.067 1.2 3.733 4.067 6.6 7.8 7.8 0.267 0.133 0.533 0 0.6-0.267 0.067-0.067 0.067-0.133 0.067-0.267v-0.933c0-0.2-0.2-0.467-0.4-0.6zM19.667 4.733c-0.267-0.133-0.533 0-0.6 0.267-0.067 0.067-0.067 0.133-0.067 0.267v0.933c0 0.267 0.2 0.533 0.4 0.667 5.2 1.867 7.867 7.667 5.933 12.8-1 2.8-3.2 4.933-5.933 5.933-0.267 0.133-0.4 0.333-0.4 0.667v0.933c0 0.267 0.133 0.467 0.4 0.533 0.067 0 0.2 0 0.267-0.067 6.333-2 9.8-8.733 7.8-15.067-1.2-3.8-4.133-6.667-7.8-7.867z"></path>
        </symbol>
        <symbol id="icon-sandbox" viewBox="0 0 32 32">
            <path fill="var(--primary-title-color)"
                d="M32 16c0 8.837-7.163 16-16 16s-16-7.163-16-16c0-8.837 7.163-16 16-16s16 7.163 16 16z"></path>
            <path fill="var(--primary-bg-color)"
                d="M10.624 7.552l-1.728 1.728v6.848l1.728 1.728h6.848v3.456h-3.392v-1.728h-5.184v3.456l1.728 1.728h10.304l1.728-1.728v-6.912l-1.728-1.728h-6.848v-3.456h3.456v1.728h5.184v-3.456l-1.728-1.728h-10.368z"></path>
        </symbol>
        <symbol id="icon-warning" fill="currentColor" viewBox="0 0 32 32">
            <path
                d="M16 22.666c0.378 0 0.694-0.128 0.95-0.384s0.382-0.572 0.382-0.95-0.128-0.694-0.382-0.95-0.572-0.382-0.95-0.382-0.694 0.128-0.95 0.382-0.384 0.572-0.384 0.95 0.128 0.694 0.384 0.95 0.572 0.384 0.95 0.384zM14.666 17.332h2.666v-8h-2.664v8zM16 29.332c-1.844 0-3.578-0.35-5.2-1.050s-3.034-1.65-4.234-2.85-2.15-2.612-2.85-4.234-1.050-3.356-1.050-5.2 0.35-3.578 1.050-5.2 1.65-3.034 2.85-4.234 2.612-2.148 4.234-2.848 3.356-1.050 5.2-1.050 3.578 0.35 5.2 1.050 3.034 1.65 4.234 2.85 2.15 2.612 2.85 4.234 1.050 3.356 1.050 5.2-0.35 3.578-1.050 5.2-1.65 3.034-2.85 4.234-2.61 2.15-4.234 2.85-3.356 1.050-5.2 1.050zM16 26.666c2.978 0 5.5-1.034 7.566-3.1s3.1-4.588 3.1-7.566-1.034-5.5-3.1-7.566-4.588-3.1-7.566-3.1-5.5 1.034-7.566 3.1-3.1 4.588-3.1 7.566 1.034 5.5 3.1 7.566 4.588 3.1 7.566 3.1z"></path>
        </symbol>
        <symbol id="icon-nft-trade-logo" fill="currentColor" viewBox="0 0 213 32">
            <path
                d="M184.95 21.866l-11.379-20.218c-0.509-0.912 0.421-1.963 1.368-1.525l10.502 4.717c0.282 0.123 0.579 0.123 0.859 0l10.766-4.752c0.947-0.421 1.875 0.632 1.35 1.542l-11.608 20.235c-0.189 0.324-0.534 0.538-0.93 0.538s-0.741-0.214-0.927-0.533l-0.003-0.005zM200.645 10.134l11.379 20.218c0.509 0.912-0.421 1.963-1.368 1.525l-10.502-4.717c-0.282-0.123-0.579-0.123-0.859 0l-10.749 4.734c-0.947 0.421-1.875-0.632-1.35-1.542l11.608-20.235c0.189-0.324 0.534-0.538 0.93-0.538s0.741 0.214 0.927 0.533l0.003 0.005-0.018 0.018zM26.986 0v31.544h-6.506l-12.606-18.2h-0.194v18.2h-7.68v-31.544h6.594l12.485 18.182h0.262v-18.182h7.645zM30.493 31.544v-31.544h21.654v6.19h-13.974v6.47h12.608v6.206h-12.606v12.677h-7.68zM53.637 6.19v-6.19h26.811v6.19h-9.61v25.355h-7.557v-25.355h-9.643zM80.394 31.544v-23.654h7.347v4.314h0.246c0.438-1.56 1.139-2.718 2.122-3.49 0.907-0.721 2.069-1.157 3.332-1.157 0.030 0 0.061 0 0.091 0.001l-0.005-0c0.014-0 0.030-0 0.047-0 0.367 0 0.727 0.026 1.080 0.075l-0.041-0.005c0.386 0.038 0.738 0.107 1.078 0.204l-0.042-0.010v6.541c-0.41-0.135-0.891-0.239-1.388-0.295l-0.033-0.003c-0.579-0.070-1.088-0.106-1.544-0.106-0.894 0-1.701 0.194-2.437 0.597-0.711 0.386-1.283 0.948-1.672 1.627l-0.011 0.021c-0.403 0.701-0.597 1.525-0.597 2.472v12.853h-7.576v0.018zM103.242 31.947c-1.525 0-2.858-0.245-4.032-0.754-1.152-0.495-2.095-1.292-2.755-2.292l-0.014-0.023c-0.666-1.035-1-2.331-1-3.893 0-1.315 0.227-2.419 0.701-3.331 0.465-0.898 1.118-1.64 1.91-2.197l0.019-0.013c0.824-0.562 1.754-1 2.822-1.28 0.985-0.281 2.143-0.493 3.334-0.592l0.068-0.005 3.261-0.386c0.824-0.141 1.421-0.35 1.789-0.597 0.386-0.262 0.579-0.648 0.579-1.122v-0.070c0-0.789-0.282-1.403-0.824-1.842s-1.28-0.648-2.21-0.648c-1 0-1.806 0.21-2.419 0.648-0.591 0.418-1.011 1.045-1.154 1.771l-0.003 0.018-6.979-0.245c0.208-1.472 0.775-2.782 1.61-3.878l-0.015 0.020c0.859-1.139 2.051-2.034 3.56-2.683 1.526-0.648 3.331-0.982 5.472-0.982 1.525 0 2.91 0.176 4.19 0.544 1.28 0.35 2.402 0.859 3.349 1.542 0.947 0.666 1.683 1.49 2.192 2.472 0.526 0.982 0.789 2.086 0.789 3.349v16.078h-7.118v-3.296h-0.192c-0.42 0.799-0.967 1.475-1.622 2.025l-0.010 0.008c-0.648 0.562-1.419 0.965-2.314 1.245-0.877 0.28-1.877 0.421-2.981 0.421v-0.018zM105.574 27.021c0.824 0 1.544-0.158 2.192-0.491 0.666-0.333 1.192-0.789 1.578-1.35 0.374-0.559 0.597-1.246 0.597-1.986 0-0.017-0-0.034-0-0.051l0 0.003v-2.245c-0.215 0.108-0.476 0.214-0.746 0.303l-0.043 0.012-1 0.262-1.122 0.211-1.106 0.176c-0.718 0.106-1.315 0.28-1.822 0.526-0.491 0.229-0.877 0.544-1.139 0.93-0.262 0.368-0.386 0.806-0.386 1.333 0 0.789 0.28 1.368 0.842 1.789 0.562 0.403 1.28 0.614 2.157 0.614v-0.035zM129.456 31.894c-1.754 0-3.349-0.456-4.787-1.35s-2.578-2.262-3.437-4.067-1.28-4.050-1.28-6.733 0.438-5.067 1.333-6.874c0.894-1.789 2.051-3.122 3.49-3.998 1.438-0.859 2.998-1.298 4.664-1.298 1.245 0 2.314 0.211 3.208 0.65 0.894 0.421 1.613 0.965 2.192 1.63s1.016 1.368 1.315 2.086h0.158v-11.941h7.574v31.544h-7.488v-3.84h-0.227c-0.315 0.736-0.771 1.421-1.368 2.051s-1.333 1.157-2.208 1.542-1.912 0.579-3.122 0.579l-0.018 0.018zM132.086 26.021c0.912 0 1.701-0.262 2.35-0.771 0.648-0.526 1.157-1.262 1.509-2.21s0.526-2.051 0.526-3.331-0.176-2.402-0.526-3.349c-0.334-0.93-0.842-1.648-1.509-2.157-0.65-0.509-1.438-0.754-2.35-0.754s-1.736 0.262-2.384 0.771-1.141 1.245-1.491 2.174c-0.333 0.93-0.491 2.034-0.491 3.314s0.176 2.384 0.509 3.331 0.824 1.683 1.474 2.21c0.648 0.509 1.438 0.771 2.384 0.771zM158.458 32c-2.49 0-4.629-0.491-6.435-1.456-1.777-0.98-3.196-2.416-4.128-4.153l-0.027-0.055c-0.965-1.824-1.438-3.998-1.438-6.523s0.491-4.576 1.454-6.4c0.944-1.809 2.345-3.266 4.054-4.252l0.050-0.027c1.771-1.035 3.84-1.542 6.242-1.542 1.701 0 3.243 0.262 4.646 0.789s2.613 1.298 3.648 2.333c1.016 1.035 1.822 2.298 2.384 3.805s0.859 3.226 0.859 5.155v1.877h-20.672v-4.384h13.624c0-0.806-0.194-1.507-0.579-2.139-0.361-0.624-0.881-1.122-1.504-1.446l-0.020-0.010c-0.632-0.35-1.386-0.544-2.21-0.544s-1.613 0.194-2.28 0.579c-0.665 0.364-1.204 0.881-1.585 1.506l-0.010 0.018c-0.386 0.63-0.597 1.368-0.614 2.174v4.454c0 0.965 0.194 1.806 0.579 2.542 0.38 0.71 0.936 1.282 1.61 1.672l0.020 0.011c0.701 0.403 1.544 0.597 2.507 0.597 0.666 0 1.28-0.088 1.824-0.28 0.545-0.183 1.013-0.465 1.406-0.826l-0.003 0.003c0.386-0.35 0.683-0.806 0.877-1.333l6.96 0.194c-0.28 1.542-0.928 2.893-1.91 4.050-0.965 1.139-2.245 2.034-3.822 2.666s-3.402 0.947-5.488 0.947h-0.018z"></path>
        </symbol>
        <symbol id="icon-advantage-1" viewBox="0 0 31 32">
            <path fill="none" stroke="currentColor"
                stroke-linejoin="round" stroke-linecap="butt" stroke-miterlimit="4"
                stroke-width="0.4651"
                d="M28.12 8.186l-12.861-7.442-12.861 7.442M28.12 8.186l-12.861 7.442M28.12 8.186v10.711M28.12 18.932v-0.035M28.12 18.932v-0.035M28.12 18.932v4.138l-12.861 7.442M2.398 8.186v14.884l12.861 7.442M2.398 8.186l12.861 7.442M15.259 15.628v14.884"></path>
            <path fill="none" stroke="currentColor"
                stroke-linejoin="round" stroke-linecap="butt" stroke-miterlimit="4"
                stroke-width="0.4651" d="M15.245 30.469l12.854-22.304h-25.702l12.848 22.305z"></path>
            <path fill="currentColor"
                d="M26.852 8.208c0 0.685 0.555 1.241 1.241 1.241s1.241-0.555 1.241-1.241-0.555-1.241-1.241-1.241-1.241 0.555-1.241 1.241zM14.004 30.427c0 0.685 0.555 1.241 1.241 1.241s1.241-0.555 1.241-1.241-0.555-1.241-1.241-1.241-1.241 0.555-1.241 1.241zM27.891 8.091l-12.848 22.22 0.403 0.233 12.848-22.219-0.403-0.233z"></path>
            <path fill="currentColor"
                d="M1.198 8.292c0 0.685 0.555 1.241 1.241 1.241s1.241-0.555 1.241-1.241-0.555-1.241-1.241-1.241-1.241 0.555-1.241 1.241zM14.004 30.469c0 0.685 0.555 1.241 1.241 1.241s1.241-0.555 1.241-1.241-0.555-1.241-1.241-1.241-1.241 0.555-1.241 1.241zM2.237 8.409l12.806 22.177 0.403-0.233-12.805-22.177-0.403 0.233z"></path>
            <path fill="currentColor"
                d="M1.241 8.165c0 0.685 0.555 1.241 1.241 1.241s1.241-0.555 1.241-1.241-0.555-1.241-1.241-1.241-1.241 0.555-1.241 1.241zM26.768 8.165c0 0.685 0.555 1.241 1.241 1.241s1.241-0.555 1.241-1.241-0.555-1.241-1.241-1.241-1.241 0.555-1.241 1.241zM2.481 8.398h25.527v-0.465h-25.527v0.465z"></path>
            <path fill="none" stroke="currentColor"
                stroke-linejoin="round" stroke-linecap="butt" stroke-miterlimit="4"
                stroke-width="0.4651"
                d="M28.119 8.186l-12.86 7.442M2.398 8.186l12.861 7.442M15.259 15.628v14.884"></path>
        </symbol>
        <symbol id="icon-advantage-2" viewBox="0 0 31 32" fill="none" stroke="currentColor"
            stroke-linejoin="round" stroke-linecap="butt" stroke-miterlimit="4"
            stroke-width="0.4762">
            <path
                d="M28.833 8.381l-13.189-7.619-13.19 7.619M28.833 8.381v15.238l-13.189 7.619M28.834 8.381l-13.19 7.619M15.643 31.238l-13.19-7.619v-15.238M15.643 31.238v-15.238M2.453 8.381l13.19 7.619"></path>
            <path
                d="M15.589 26.057c-5.571 0-10.088-4.517-10.088-10.088 0-0.005 0-0.010 0-0.016 0-1.853 0.502-3.589 1.377-5.079l-0.026 0.047 8.785 5.074v10.061h-0.048z"></path>
            <path
                d="M15.637 15.997l8.712-5.032c-1.739-3.037-5.010-5.083-8.76-5.083-3.733 0-6.991 2.027-8.736 5.040l8.785 5.074z"></path>
            <path
                d="M15.637 26.057c5.549-0.026 10.039-4.533 10.039-10.088 0-0.005 0-0.010 0-0.015 0-1.836-0.493-3.557-1.353-5.037l0.026 0.048-8.712 5.032v10.060z"></path>
        </symbol>
        <symbol id="icon-advantage-3" viewBox="0 0 31 32" fill="none" stroke="currentColor"
            stroke-linejoin="round" stroke-linecap="butt" stroke-miterlimit="4"
            stroke-width="0.4762">
            <path
                d="M28.833 8.381l-13.189-7.619-3.298 1.905M28.834 8.381v15.238l-13.19 7.619M28.834 8.381l-3.298 1.905M15.643 31.238l-13.19-7.619v-15.238M15.643 31.238v-3.81M2.453 8.381l9.893-5.714M2.453 8.381l6.595 3.81M15.643 16v3.81M15.643 16l6.595 3.81M15.643 16l-6.595-3.81M15.643 23.619v3.81M15.643 23.619l3.298 1.905M15.643 23.619v-3.81M15.643 27.429l3.298-1.905M22.238 19.81l-3.298 1.905M22.238 19.81v-3.81M18.941 25.524v-3.81M18.941 21.714l-3.298-1.905M22.238 16l3.298-1.905M22.238 16l-13.189-7.619M25.536 14.095v-3.81M25.536 14.095l-13.19-7.619M25.536 10.286l-13.19-7.619M12.346 2.667v3.81M12.346 6.476l-3.298 1.905M9.048 8.381v3.81"></path>
            <path
                d="M25.535 14.095v-3.81l-13.19-7.619v3.81l13.191 7.619zM22.238 19.81v-3.81l-13.19-7.619v3.81l13.19 7.619zM18.941 25.524v-3.81l-3.298-1.905v3.81l3.298 1.905z"></path>
            <path
                d="M28.833 8.381l-13.189-7.619-3.298 1.905 13.19 7.619 3.298-1.905zM22.238 16l3.298-1.905-13.19-7.619-3.298 1.905 13.19 7.619zM18.941 21.714l3.298-1.905-6.595-3.81v3.81l3.298 1.905zM15.643 23.619v3.81l3.298-1.905-3.298-1.905z"></path>
            <path
                d="M12.346 2.667l-9.893 5.714 6.595 3.81v-3.81l3.298-1.905v-3.81z"></path>
            <path d="M2.453 23.619l13.19 7.619v-15.238l-13.19-7.619v15.238z"></path>
        </symbol>
        <symbol id="icon-advantage-4" viewBox="0 0 31 32" fill="none" stroke="currentColor"
            stroke-linejoin="round" stroke-linecap="butt" stroke-miterlimit="4"
            stroke-width="0.4762">
            <path
                d="M29.188 8.777l-5.276 3.048M29.188 8.777v14.202l-5.276 3.048M29.188 8.777l-2.201-1.272-11.699-6.866-5.276 3.048M23.912 26.027l-13.901-8.137v-14.202M23.912 26.027v-14.202M10.011 3.688l13.901 8.137"></path>
            <path d="M10.011 17.89l13.901 8.137v-14.202l-13.901-8.137v14.202z"></path>
            <path
                d="M20.868 14.050l-5.276 3.048M20.868 14.050v14.202l-5.276 3.048M20.868 14.050l-2.201-1.272-11.699-6.866-5.276 3.048M15.592 31.299l-13.901-8.137v-14.202M15.592 31.299v-14.202M1.691 8.96l13.901 8.137"></path>
        </symbol>

    </defs>
</svg>