<svg xmlns="http://www.w3.org/2000/svg" width="20" height="20" fill="none" xmlns:v="https://vecta.io/nano"><path d="M9.999 12.5a2.41 2.41 0 0 0 1.771-.729A2.41 2.41 0 0 0 12.499 10a2.41 2.41 0 0 0-.729-1.771A2.41 2.41 0 0 0 9.999 7.5a2.41 2.41 0 0 0-1.771.729A2.41 2.41 0 0 0 7.499 10a2.41 2.41 0 0 0 .729 1.771 2.41 2.41 0 0 0 1.771.729zm0 1.667a4.01 4.01 0 0 1-2.947-1.219A4.01 4.01 0 0 1 5.832 10c0-1.153.406-2.136 1.219-2.948s1.795-1.218 2.948-1.218 2.136.406 2.948 1.218S14.165 8.847 14.165 10s-.406 2.135-1.218 2.948-1.795 1.219-2.948 1.219zm-8.333-3.333c-.236 0-.434-.08-.593-.24s-.24-.357-.24-.593.08-.434.24-.594.357-.239.593-.239h1.667c.236 0 .434.08.594.239s.239.358.239.594-.08.434-.239.593-.358.24-.594.24H1.665zm15 0c-.236 0-.434-.08-.593-.24s-.24-.357-.24-.593.08-.434.24-.594.357-.239.593-.239h1.667c.236 0 .434.08.593.239s.24.358.24.594-.08.434-.24.593-.357.24-.593.24h-1.667zM9.999 4.167c-.236 0-.434-.08-.593-.24s-.24-.357-.24-.593V1.667c0-.236.08-.434.24-.594s.357-.239.593-.239.434.08.594.239.239.358.239.594v1.667c0 .236-.08.434-.239.593s-.358.24-.594.24zm0 15c-.236 0-.434-.08-.593-.24s-.24-.357-.24-.593v-1.667c0-.236.08-.434.24-.593s.357-.24.593-.24.434.08.594.24.239.357.239.593v1.667c0 .236-.08.434-.239.593s-.358.24-.594.24zM4.707 5.875L3.811 5c-.167-.153-.247-.347-.24-.583s.087-.437.24-.604c.167-.167.368-.25.604-.25s.431.083.583.25l.875.896c.153.167.229.361.229.583s-.076.417-.229.583a.71.71 0 0 1-.573.239.89.89 0 0 1-.594-.239zm10.292 10.313l-.875-.896a.85.85 0 0 1-.229-.593c0-.229.076-.421.229-.573a.71.71 0 0 1 .573-.239.89.89 0 0 1 .593.239l.896.875c.167.153.247.347.24.583s-.087.438-.24.604c-.167.167-.368.25-.604.25s-.431-.083-.583-.25zm-.875-10.313a.71.71 0 0 1-.239-.573.89.89 0 0 1 .239-.593l.875-.896c.153-.167.347-.247.583-.24s.438.087.604.24c.167.167.25.368.25.604s-.083.431-.25.583l-.896.875c-.167.153-.361.229-.583.229s-.417-.076-.583-.229zM3.811 16.188c-.167-.167-.25-.368-.25-.604s.083-.431.25-.583l.896-.875a.85.85 0 0 1 .594-.229c.229 0 .42.076.573.229.167.153.247.344.24.573a.89.89 0 0 1-.24.593l-.875.896c-.153.167-.347.246-.583.239a.9.9 0 0 1-.604-.239z" fill="#000"/></svg>