<!-- Generated by IcoMoon.io -->
<svg version="1.1" xmlns="http://www.w3.org/2000/svg" width="33" height="32" viewBox="0 0 33 32">
<path d="M22.047 17.7c-0.244-0.244-0.367-0.556-0.367-0.933s0.123-0.689 0.367-0.933l2.5-2.5h-8.233c-0.377 0-0.695-0.128-0.949-0.384s-0.384-0.572-0.384-0.949 0.128-0.695 0.384-0.951 0.572-0.383 0.949-0.383h8.233l-2.5-2.5c-0.244-0.244-0.367-0.561-0.367-0.951s0.123-0.705 0.367-0.949 0.556-0.367 0.933-0.367 0.689 0.123 0.933 0.367l4.8 4.8c0.133 0.133 0.228 0.277 0.284 0.433s0.083 0.323 0.083 0.5-0.028 0.344-0.083 0.5-0.151 0.3-0.284 0.433l-4.8 4.8c-0.244 0.244-0.556 0.361-0.933 0.349-0.001 0-0.003 0-0.004 0-0.363 0-0.691-0.146-0.93-0.383l0 0zM8.713 25.733l-4.8-4.8c-0.123-0.118-0.219-0.263-0.28-0.425l-0.003-0.008c-0.053-0.146-0.084-0.314-0.084-0.489 0-0.004 0-0.008 0-0.011v0.001c-0-0.003-0-0.007-0-0.011 0-0.175 0.031-0.344 0.087-0.5l-0.003 0.010c0.064-0.17 0.16-0.315 0.282-0.433l0-0 4.8-4.8c0.244-0.244 0.556-0.367 0.933-0.367s0.689 0.123 0.933 0.367 0.367 0.561 0.367 0.949-0.123 0.707-0.367 0.951l-2.5 2.5h8.233c0.012-0 0.026-0.001 0.041-0.001 0.714 0 1.293 0.579 1.293 1.293 0 0.014-0 0.029-0.001 0.043l0-0.002c0 0.377-0.128 0.695-0.383 0.949s-0.573 0.384-0.951 0.384h-8.233l2.5 2.5c0.244 0.244 0.367 0.556 0.367 0.933s-0.123 0.689-0.367 0.933c-0.238 0.237-0.567 0.383-0.929 0.383-0.001 0-0.003 0-0.004 0h0c-0.377 0.012-0.689-0.105-0.933-0.349z"></path>
</svg>
