<svg xmlns="http://www.w3.org/2000/svg" width="17" height="15" fill="none" xmlns:v="https://vecta.io/nano"><path d="M11.752 2.625c-.633 0-1.242.248-1.694.692s-.712 1.047-.723 1.68L9.312 6.31a.5.5 0 0 1-.174.37.5.5 0 0 1-.392.116l-1.301-.177c-1.712-.233-3.352-1.022-4.925-2.333-.498 2.758.475 4.669 2.819 6.143l1.456.915a.5.5 0 0 1 .234.406.5.5 0 0 1-.205.421l-1.327.969c.789.049 1.538.014 2.16-.109 3.932-.785 6.546-3.743 6.546-8.623 0-.398-.843-1.784-2.45-1.784zM7.668 4.966c.015-.803.266-1.584.722-2.246s1.098-1.173 1.844-1.472 1.563-.37 2.35-.206 1.507.556 2.072 1.128c.593-.004 1.097.146 2.224-.537-.279 1.367-.417 1.96-1.012 2.776 0 6.368-3.914 9.465-7.886 10.257-2.723.543-6.683-.349-7.818-1.534.578-.045 2.928-.298 4.287-1.292-1.149-.758-5.723-3.449-2.718-10.686 1.411 1.648 2.842 2.769 4.292 3.364.965.396 1.202.388 1.644.448l-.001-.001z" fill="#000"/></svg>