<!-- Generated by IcoMoon.io -->
<svg version="1.1" xmlns="http://www.w3.org/2000/svg" width="37" height="32" viewBox="0 0 37 32">
<path fill="#50af95" d="M6.736 0.157l-6.707 14.089c-0.017 0.035-0.028 0.076-0.028 0.12 0 0.078 0.033 0.149 0.086 0.199l0 0 18.115 17.358c0.050 0.048 0.117 0.077 0.191 0.077s0.142-0.029 0.191-0.077l-0 0 18.115-17.357c0.053-0.050 0.086-0.121 0.086-0.199 0-0.044-0.010-0.085-0.028-0.121l0.001 0.002-6.707-14.089c-0.044-0.094-0.138-0.158-0.246-0.158-0 0-0 0-0.001 0h-22.818c-0.001 0-0.002-0-0.003-0-0.108 0-0.202 0.064-0.245 0.155l-0.001 0.002z"></path>
<path fill="#fff" d="M20.72 15.693v0c-0.13 0.010-0.802 0.050-2.301 0.050-1.192 0-2.039-0.036-2.335-0.050v0c-4.607-0.203-8.046-1.005-8.046-1.965s3.439-1.761 8.046-1.967v3.133c0.301 0.022 1.164 0.073 2.356 0.073 1.431 0 2.147-0.060 2.276-0.072v-3.132c4.597 0.205 8.028 1.007 8.028 1.965s-3.43 1.76-8.028 1.964v0zM20.72 11.439v-2.804h6.416v-4.275h-17.468v4.275h6.415v2.803c-5.214 0.239-9.135 1.272-9.135 2.51s3.921 2.269 9.135 2.51v8.984h4.636v-8.988c5.202-0.239 9.117-1.271 9.117-2.508s-3.911-2.268-9.117-2.509v0zM20.72 11.439v0z"></path>
</svg>
