<!-- Generated by IcoMoon.io -->
<svg version="1.1" xmlns="http://www.w3.org/2000/svg" width="33" height="32" viewBox="0 0 33 32">
<path d="M16.812 16c-0.022 0-0.048 0.001-0.074 0.001-1.449 0-2.758-0.6-3.691-1.566l-0.001-0.001c-0.967-0.935-1.567-2.243-1.567-3.692 0-0.026 0-0.052 0.001-0.078l-0 0.004c-0-0.022-0.001-0.048-0.001-0.074 0-1.449 0.6-2.758 1.566-3.691l0.001-0.001c0.935-0.967 2.243-1.567 3.692-1.567 0.026 0 0.052 0 0.078 0.001l-0.004-0c0.022-0 0.048-0.001 0.074-0.001 1.449 0 2.758 0.6 3.691 1.566l0.001 0.001c0.967 0.935 1.567 2.243 1.567 3.692 0 0.026-0 0.052-0.001 0.078l0-0.004c0 0.022 0.001 0.048 0.001 0.074 0 1.449-0.6 2.758-1.566 3.691l-0.001 0.001c-0.935 0.967-2.243 1.567-3.692 1.567-0.026 0-0.052-0-0.078-0.001l0.004 0zM24.812 26.667h-16c-0.733 0-1.361-0.261-1.883-0.783s-0.784-1.151-0.784-1.884v-1.067c-0-0.009-0-0.019-0-0.029 0-0.761 0.217-1.471 0.594-2.071l-0.010 0.016c0.388-0.633 0.905-1.116 1.549-1.449 1.377-0.689 2.777-1.205 4.2-1.551s2.867-0.516 4.333-0.516 2.911 0.172 4.333 0.516c1.6 0.398 2.998 0.929 4.312 1.603l-0.112-0.052c0.644 0.333 1.161 0.816 1.549 1.449 0.367 0.584 0.584 1.294 0.584 2.055 0 0.010-0 0.020-0 0.031v-0.002 1.067c0 0.733-0.261 1.361-0.783 1.884s-1.151 0.783-1.884 0.783zM8.812 24h16v-1.067c0-0.244-0.061-0.467-0.183-0.667s-0.284-0.356-0.484-0.467c-1.2-0.6-2.411-1.051-3.633-1.351s-2.455-0.449-3.7-0.449-2.477 0.149-3.7 0.449-2.433 0.751-3.633 1.351c-0.201 0.113-0.364 0.271-0.479 0.461l-0.003 0.006c-0.123 0.2-0.184 0.423-0.184 0.667v1.067zM16.812 13.333c0.733 0 1.361-0.261 1.884-0.784s0.783-1.149 0.783-1.883-0.261-1.361-0.783-1.883-1.151-0.784-1.884-0.784c-0.012-0-0.025-0-0.039-0-0.724 0-1.378 0.3-1.843 0.783l-0.001 0.001c-0.484 0.466-0.784 1.12-0.784 1.844 0 0.014 0 0.027 0 0.041l-0-0.002c-0 0.011-0 0.025-0 0.039 0 0.724 0.3 1.378 0.784 1.843l0.001 0.001c0.466 0.484 1.12 0.784 1.844 0.784 0.014 0 0.027-0 0.041-0l-0.002 0z"></path>
</svg>
