<!-- Generated by IcoMoon.io -->
<svg version="1.1" xmlns="http://www.w3.org/2000/svg" width="33" height="32" viewBox="0 0 33 32">
<path d="M22.315 16.767c-0.003 0-0.007 0-0.011 0-0.175 0-0.344-0.031-0.5-0.087l0.010 0.003c-0.17-0.064-0.315-0.16-0.433-0.282l-0-0-5.667-5.667c-0.133-0.133-0.228-0.277-0.283-0.433-0.053-0.146-0.084-0.314-0.084-0.489 0-0.004 0-0.008 0-0.011v0.001c-0-0.003-0-0.007-0-0.011 0-0.175 0.031-0.344 0.087-0.5l-0.003 0.010c0.055-0.156 0.149-0.3 0.283-0.433l5.667-5.667c0.133-0.133 0.277-0.228 0.433-0.283 0.146-0.053 0.314-0.084 0.489-0.084 0.004 0 0.008 0 0.011 0h-0.001c0.003-0 0.007-0 0.011-0 0.175 0 0.344 0.031 0.5 0.087l-0.010-0.003c0.17 0.064 0.315 0.16 0.433 0.282l0 0 5.667 5.667c0.123 0.118 0.219 0.263 0.28 0.425l0.003 0.008c0.053 0.146 0.084 0.314 0.084 0.489 0 0.004 0 0.008-0 0.011v-0.001c0 0.003 0 0.007 0 0.011 0 0.175-0.031 0.344-0.087 0.5l0.003-0.010c-0.064 0.17-0.16 0.315-0.282 0.433l-0 0-5.667 5.667c-0.118 0.123-0.263 0.219-0.425 0.28l-0.008 0.003c-0.146 0.053-0.314 0.084-0.489 0.084-0.004 0-0.008 0-0.011-0h0.001zM5.448 14.667c-0.377 0-0.695-0.128-0.949-0.384s-0.384-0.572-0.384-0.949v-8c0-0.377 0.128-0.695 0.384-0.951s0.572-0.383 0.949-0.383h8c0.009-0 0.021-0 0.032-0 0.359 0 0.684 0.146 0.919 0.383l0 0c0.237 0.234 0.383 0.559 0.383 0.919 0 0.011-0 0.022-0 0.034l0-0.002v8c0 0.377-0.128 0.695-0.383 0.949s-0.573 0.384-0.951 0.384h-8zM18.781 28c-0.377 0-0.695-0.128-0.949-0.384s-0.384-0.572-0.384-0.949v-8c0-0.377 0.128-0.695 0.384-0.951s0.572-0.383 0.949-0.383h8c0.377 0 0.695 0.128 0.949 0.383s0.384 0.573 0.384 0.951v8c0 0.377-0.128 0.695-0.384 0.949s-0.572 0.384-0.949 0.384h-8zM5.448 28c-0.377 0-0.695-0.128-0.949-0.384s-0.384-0.572-0.384-0.949v-8c0-0.377 0.128-0.695 0.384-0.951s0.572-0.383 0.949-0.383h8c0.012-0 0.026-0.001 0.041-0.001 0.714 0 1.293 0.579 1.293 1.293 0 0.014-0 0.029-0.001 0.043l0-0.002v8c0 0.377-0.128 0.695-0.383 0.949s-0.573 0.384-0.951 0.384h-8zM6.781 12h5.333v-5.333h-5.333v5.333zM22.348 13.6l3.767-3.767-3.767-3.767-3.767 3.767 3.767 3.767zM20.115 25.333h5.333v-5.333h-5.333v5.333zM6.781 25.333h5.333v-5.333h-5.333v5.333z"></path>
</svg>
