<svg width="200" height="168" viewBox="0 0 200 168" fill="none" xmlns="http://www.w3.org/2000/svg">
<g filter="url(#filter0_b_1704_29052)">
<rect width="200" height="160" rx="20" fill="url(#paint0_linear_1704_29052)" fill-opacity="0.08"/>
</g>
<rect x="126" y="125" width="58" height="43" rx="8" fill="url(#paint1_linear_1704_29052)"/>
<rect x="128.162" y="127.162" width="53.6769" height="38.6769" rx="7.83847" stroke="white" stroke-width="0.323056"/>
<mask id="mask0_1704_29052" style="mask-type:alpha" maskUnits="userSpaceOnUse" x="143" y="133" width="25" height="25">
<rect x="143" y="133.471" width="24.4528" height="24.4528" fill="#D9D9D9"/>
</mask>
<g mask="url(#mask0_1704_29052)">
<path d="M163.172 146.64L147.481 153.262C147.141 153.398 146.819 153.368 146.513 153.173C146.208 152.978 146.055 152.693 146.055 152.32V139.075C146.055 138.701 146.208 138.416 146.513 138.221C146.819 138.026 147.141 137.996 147.481 138.132L163.172 144.755C163.596 144.941 163.808 145.256 163.808 145.697C163.808 146.139 163.596 146.453 163.172 146.64ZM148.092 150.791L160.166 145.697L148.092 140.603V144.169L154.206 145.697L148.092 147.225V150.791Z" fill="#1C1B1F"/>
</g>
<rect x="48" y="42" width="117" height="16" rx="8" fill="white" fill-opacity="0.16"/>
<rect x="12" y="83" width="172" height="8" rx="4" fill="white" fill-opacity="0.08"/>
<rect x="12" y="101" width="146" height="8" rx="4" fill="white" fill-opacity="0.08"/>
<mask id="mask1_1704_29052" style="mask-type:alpha" maskUnits="userSpaceOnUse" x="12" y="38" width="24" height="24">
<rect x="12" y="38" width="24" height="24" fill="#D9D9D9"/>
</mask>
<g mask="url(#mask1_1704_29052)">
<path d="M22.9492 50.7001L21.4992 49.2751C21.3159 49.0918 21.0867 49.0001 20.8117 49.0001C20.5367 49.0001 20.2992 49.1001 20.0992 49.3001C19.9159 49.4835 19.8242 49.7168 19.8242 50.0001C19.8242 50.2835 19.9159 50.5168 20.0992 50.7001L22.2492 52.8501C22.4492 53.0501 22.6826 53.1501 22.9492 53.1501C23.2159 53.1501 23.4492 53.0501 23.6492 52.8501L27.8992 48.6001C28.0992 48.4001 28.1951 48.1668 28.1867 47.9001C28.1784 47.6335 28.0826 47.4001 27.8992 47.2001C27.6992 47.0001 27.4617 46.896 27.1867 46.8876C26.9117 46.8793 26.6742 46.9751 26.4742 47.1751L22.9492 50.7001ZM20.1492 59.7501L18.6992 57.3001L15.9492 56.7001C15.6992 56.6501 15.4992 56.521 15.3492 56.3126C15.1992 56.1043 15.1409 55.8751 15.1742 55.6251L15.4492 52.8001L13.5742 50.6501C13.4076 50.4668 13.3242 50.2501 13.3242 50.0001C13.3242 49.7501 13.4076 49.5335 13.5742 49.3501L15.4492 47.2001L15.1742 44.3751C15.1409 44.1251 15.1992 43.896 15.3492 43.6876C15.4992 43.4793 15.6992 43.3501 15.9492 43.3001L18.6992 42.7001L20.1492 40.2501C20.2826 40.0335 20.4659 39.8876 20.6992 39.8126C20.9326 39.7376 21.1659 39.7501 21.3992 39.8501L23.9992 40.9501L26.5992 39.8501C26.8326 39.7501 27.0659 39.7376 27.2992 39.8126C27.5326 39.8876 27.7159 40.0335 27.8492 40.2501L29.2992 42.7001L32.0492 43.3001C32.2992 43.3501 32.4992 43.4793 32.6492 43.6876C32.7992 43.896 32.8576 44.1251 32.8242 44.3751L32.5492 47.2001L34.4242 49.3501C34.5909 49.5335 34.6742 49.7501 34.6742 50.0001C34.6742 50.2501 34.5909 50.4668 34.4242 50.6501L32.5492 52.8001L32.8242 55.6251C32.8576 55.8751 32.7992 56.1043 32.6492 56.3126C32.4992 56.521 32.2992 56.6501 32.0492 56.7001L29.2992 57.3001L27.8492 59.7501C27.7159 59.9668 27.5326 60.1126 27.2992 60.1876C27.0659 60.2626 26.8326 60.2501 26.5992 60.1501L23.9992 59.0501L21.3992 60.1501C21.1659 60.2501 20.9326 60.2626 20.6992 60.1876C20.4659 60.1126 20.2826 59.9668 20.1492 59.7501ZM21.4492 57.9501L23.9992 56.8501L26.5992 57.9501L27.9992 55.5501L30.7492 54.9001L30.4992 52.1001L32.3492 50.0001L30.4992 47.8501L30.7492 45.0501L27.9992 44.4501L26.5492 42.0501L23.9992 43.1501L21.3992 42.0501L19.9992 44.4501L17.2492 45.0501L17.4992 47.8501L15.6492 50.0001L17.4992 52.1001L17.2492 54.9501L19.9992 55.5501L21.4492 57.9501Z" fill="white"/>
</g>
<circle cx="14.5" cy="14.5" r="2.5" fill="white" fill-opacity="0.1"/>
<circle cx="23.5" cy="14.5" r="2.5" fill="white" fill-opacity="0.1"/>
<circle cx="32.5" cy="14.5" r="2.5" fill="white" fill-opacity="0.1"/>
<defs>
<filter id="filter0_b_1704_29052" x="-22.54" y="-22.54" width="245.08" height="205.08" filterUnits="userSpaceOnUse" color-interpolation-filters="sRGB">
<feFlood flood-opacity="0" result="BackgroundImageFix"/>
<feGaussianBlur in="BackgroundImageFix" stdDeviation="11.27"/>
<feComposite in2="SourceAlpha" operator="in" result="effect1_backgroundBlur_1704_29052"/>
<feBlend mode="normal" in="SourceGraphic" in2="effect1_backgroundBlur_1704_29052" result="shape"/>
</filter>
<linearGradient id="paint0_linear_1704_29052" x1="100" y1="0" x2="100" y2="160" gradientUnits="userSpaceOnUse">
<stop stop-color="white"/>
<stop offset="1" stop-color="white"/>
</linearGradient>
<linearGradient id="paint1_linear_1704_29052" x1="125.321" y1="171.127" x2="194.649" y2="167.263" gradientUnits="userSpaceOnUse">
<stop stop-color="#82ED95"/>
<stop offset="1" stop-color="#82EDC0"/>
</linearGradient>
</defs>
</svg>
