<svg width="244" height="258" viewBox="0 0 244 258" fill="none" xmlns="http://www.w3.org/2000/svg">
<g filter="url(#filter0_b_1704_28997)">
<rect x="135" y="74" width="64" height="48" rx="12" fill="url(#paint0_linear_1704_28997)" fill-opacity="0.08"/>
</g>
<mask id="mask0_1704_28997" style="mask-type:alpha" maskUnits="userSpaceOnUse" x="157" y="88" width="20" height="20">
<rect x="157" y="88" width="20" height="20" fill="#D9D9D9"/>
</mask>
<g mask="url(#mask0_1704_28997)">
<path d="M167.001 106.333C165.849 106.333 164.765 106.115 163.751 105.677C162.737 105.24 161.855 104.646 161.105 103.896C160.355 103.146 159.762 102.264 159.324 101.25C158.887 100.236 158.668 99.1529 158.668 98.0001C158.668 96.8473 158.887 95.764 159.324 94.7501C159.762 93.7362 160.355 92.8542 161.105 92.1042C161.855 91.3542 162.737 90.7605 163.751 90.323C164.765 89.8855 165.849 89.6667 167.001 89.6667C168.154 89.6667 169.237 89.8855 170.251 90.323C171.265 90.7605 172.147 91.3542 172.897 92.1042C173.647 92.8542 174.241 93.7362 174.678 94.7501C175.116 95.764 175.335 96.8473 175.335 98.0001C175.335 99.1529 175.116 100.236 174.678 101.25C174.241 102.264 173.647 103.146 172.897 103.896C172.147 104.646 171.265 105.24 170.251 105.677C169.237 106.115 168.154 106.333 167.001 106.333ZM166.168 104.625V91.3751C164.487 91.5834 163.095 92.3195 161.991 93.5834C160.887 94.8473 160.335 96.3195 160.335 98.0001C160.335 99.6806 160.887 101.153 161.991 102.417C163.095 103.681 164.487 104.417 166.168 104.625ZM167.835 104.625C168.251 104.556 168.661 104.462 169.064 104.344C169.467 104.226 169.849 104.056 170.21 103.833H167.835V104.625ZM167.835 102.167H172.21C172.321 102.042 172.418 101.91 172.501 101.771C172.585 101.632 172.668 101.486 172.751 101.333H167.835V102.167ZM167.835 99.6667H173.46L173.626 98.8334H167.835V99.6667ZM167.835 97.1667H173.626L173.46 96.3334H167.835V97.1667ZM167.835 94.6667H172.751C172.668 94.514 172.585 94.3681 172.501 94.2292C172.418 94.0904 172.321 93.9584 172.21 93.8334H167.835V94.6667ZM167.835 92.1667H170.21C169.849 91.9445 169.467 91.7744 169.064 91.6563C168.661 91.5383 168.251 91.4445 167.835 91.3751V92.1667Z" fill="white"/>
</g>
<g filter="url(#filter1_b_1704_28997)">
<rect x="53" y="74" width="64" height="48" rx="12" fill="url(#paint1_linear_1704_28997)" fill-opacity="0.08"/>
</g>
<mask id="mask1_1704_28997" style="mask-type:alpha" maskUnits="userSpaceOnUse" x="75" y="88" width="20" height="20">
<rect x="75" y="88" width="20" height="20" fill="#D9D9D9"/>
</mask>
<g mask="url(#mask1_1704_28997)">
<path d="M85.0004 106.333C83.0281 106.333 81.2886 105.729 79.7816 104.521C78.2747 103.313 77.3059 101.771 76.8754 99.8959C76.8198 99.6598 76.8615 99.448 77.0004 99.2605C77.1393 99.073 77.3268 98.9654 77.5629 98.9376C77.799 98.9098 78.0073 98.9654 78.1879 99.1042C78.3684 99.2431 78.4934 99.4306 78.5629 99.6667C78.9379 101.125 79.7191 102.323 80.9066 103.26C82.0941 104.198 83.4587 104.667 85.0004 104.667C86.8615 104.667 88.4379 104.021 89.7295 102.729C91.0212 101.438 91.667 99.8612 91.667 98.0001C91.667 96.139 91.0212 94.5626 89.7295 93.2709C88.4379 91.9792 86.8615 91.3334 85.0004 91.3334C83.8059 91.3334 82.6983 91.6286 81.6775 92.2188C80.6566 92.8091 79.8476 93.6251 79.2504 94.6667H80.8337C81.0698 94.6667 81.2677 94.7466 81.4275 94.9063C81.5872 95.0661 81.667 95.264 81.667 95.5001C81.667 95.7362 81.5872 95.9341 81.4275 96.0938C81.2677 96.2536 81.0698 96.3334 80.8337 96.3334H78.0004C77.6948 96.3334 77.4518 96.2119 77.2712 95.9688C77.0906 95.7258 77.049 95.4654 77.1462 95.1876C77.7295 93.5487 78.7365 92.2188 80.167 91.198C81.5976 90.1772 83.2087 89.6667 85.0004 89.6667C86.1531 89.6667 87.2365 89.8855 88.2504 90.323C89.2643 90.7605 90.1462 91.3542 90.8962 92.1042C91.6462 92.8542 92.24 93.7362 92.6775 94.7501C93.115 95.764 93.3337 96.8473 93.3337 98.0001C93.3337 99.1529 93.115 100.236 92.6775 101.25C92.24 102.264 91.6462 103.146 90.8962 103.896C90.1462 104.646 89.2643 105.24 88.2504 105.677C87.2365 106.115 86.1531 106.333 85.0004 106.333ZM85.8337 97.6667L87.917 99.7501C88.0698 99.9029 88.1462 100.097 88.1462 100.333C88.1462 100.57 88.0698 100.764 87.917 100.917C87.7643 101.07 87.5698 101.146 87.3337 101.146C87.0976 101.146 86.9031 101.07 86.7504 100.917L84.417 98.5834C84.3337 98.5001 84.2712 98.4063 84.2295 98.3022C84.1879 98.198 84.167 98.0904 84.167 97.9792V94.6667C84.167 94.4306 84.2469 94.2327 84.4066 94.073C84.5663 93.9133 84.7643 93.8334 85.0004 93.8334C85.2365 93.8334 85.4344 93.9133 85.5941 94.073C85.7538 94.2327 85.8337 94.4306 85.8337 94.6667V97.6667Z" fill="white"/>
</g>
<g filter="url(#filter2_b_1704_28997)">
<rect x="135" y="206" width="64" height="48" rx="12" fill="url(#paint2_linear_1704_28997)" fill-opacity="0.08"/>
</g>
<mask id="mask2_1704_28997" style="mask-type:alpha" maskUnits="userSpaceOnUse" x="157" y="220" width="20" height="20">
<rect x="157" y="220" width="20" height="20" fill="#D9D9D9"/>
</mask>
<g mask="url(#mask2_1704_28997)">
<path d="M162.001 235L160.085 236.917C159.821 237.181 159.519 237.24 159.178 237.094C158.838 236.948 158.668 236.688 158.668 236.313V223.333C158.668 222.875 158.831 222.483 159.158 222.156C159.484 221.83 159.876 221.667 160.335 221.667H173.668C174.126 221.667 174.519 221.83 174.845 222.156C175.171 222.483 175.335 222.875 175.335 223.333V233.333C175.335 233.792 175.171 234.184 174.845 234.51C174.519 234.837 174.126 235 173.668 235H162.001ZM161.293 233.333H173.668V223.333H160.335V234.271L161.293 233.333Z" fill="white"/>
</g>
<g filter="url(#filter3_b_1704_28997)">
<rect x="45" y="206" width="64" height="48" rx="12" fill="url(#paint3_linear_1704_28997)" fill-opacity="0.08"/>
</g>
<mask id="mask3_1704_28997" style="mask-type:alpha" maskUnits="userSpaceOnUse" x="67" y="220" width="20" height="20">
<rect x="67" y="220" width="20" height="20" fill="#D9D9D9"/>
</mask>
<g mask="url(#mask3_1704_28997)">
<path d="M71.1667 237.5C70.7083 237.5 70.316 237.337 69.9896 237.01C69.6632 236.684 69.5 236.292 69.5 235.833V224.167C69.5 223.708 69.6632 223.316 69.9896 222.99C70.316 222.663 70.7083 222.5 71.1667 222.5H82.8333C83.2917 222.5 83.684 222.663 84.0104 222.99C84.3368 223.316 84.5 223.708 84.5 224.167V226.25H82.8333V224.167H71.1667V235.833H82.8333V233.75H84.5V235.833C84.5 236.292 84.3368 236.684 84.0104 237.01C83.684 237.337 83.2917 237.5 82.8333 237.5H71.1667ZM77.8333 234.167C77.375 234.167 76.9826 234.003 76.6563 233.677C76.3299 233.351 76.1667 232.958 76.1667 232.5V227.5C76.1667 227.042 76.3299 226.649 76.6563 226.323C76.9826 225.997 77.375 225.833 77.8333 225.833H83.6667C84.125 225.833 84.5174 225.997 84.8438 226.323C85.1701 226.649 85.3333 227.042 85.3333 227.5V232.5C85.3333 232.958 85.1701 233.351 84.8438 233.677C84.5174 234.003 84.125 234.167 83.6667 234.167H77.8333ZM83.6667 232.5V227.5H77.8333V232.5H83.6667ZM80.3333 231.25C80.6806 231.25 80.9757 231.128 81.2188 230.885C81.4618 230.642 81.5833 230.347 81.5833 230C81.5833 229.653 81.4618 229.358 81.2188 229.115C80.9757 228.872 80.6806 228.75 80.3333 228.75C79.9861 228.75 79.691 228.872 79.4479 229.115C79.2049 229.358 79.0833 229.653 79.0833 230C79.0833 230.347 79.2049 230.642 79.4479 230.885C79.691 231.128 79.9861 231.25 80.3333 231.25Z" fill="white"/>
</g>
<g filter="url(#filter4_b_1704_28997)">
<rect x="90" y="140" width="64" height="48" rx="12" fill="url(#paint4_linear_1704_28997)" fill-opacity="0.08"/>
</g>
<mask id="mask4_1704_28997" style="mask-type:alpha" maskUnits="userSpaceOnUse" x="112" y="154" width="20" height="20">
<rect x="112" y="154" width="20" height="20" fill="#D9D9D9"/>
</mask>
<g mask="url(#mask4_1704_28997)">
<path d="M116.167 172.333C115.708 172.333 115.316 172.17 114.99 171.844C114.663 171.517 114.5 171.125 114.5 170.667V159C114.5 158.542 114.663 158.149 114.99 157.823C115.316 157.496 115.708 157.333 116.167 157.333H117V156.5C117 156.264 117.08 156.066 117.24 155.906C117.399 155.746 117.597 155.667 117.833 155.667C118.069 155.667 118.267 155.746 118.427 155.906C118.587 156.066 118.667 156.264 118.667 156.5V157.333H125.333V156.5C125.333 156.264 125.413 156.066 125.573 155.906C125.733 155.746 125.931 155.667 126.167 155.667C126.403 155.667 126.601 155.746 126.76 155.906C126.92 156.066 127 156.264 127 156.5V157.333H127.833C128.292 157.333 128.684 157.496 129.01 157.823C129.337 158.149 129.5 158.542 129.5 159V170.667C129.5 171.125 129.337 171.517 129.01 171.844C128.684 172.17 128.292 172.333 127.833 172.333H116.167ZM116.167 170.667H127.833V162.333H116.167V170.667ZM116.167 160.667H127.833V159H116.167V160.667Z" fill="white"/>
</g>
<g filter="url(#filter5_b_1704_28997)">
<rect y="140" width="64" height="48" rx="12" fill="url(#paint5_linear_1704_28997)" fill-opacity="0.08"/>
</g>
<mask id="mask5_1704_28997" style="mask-type:alpha" maskUnits="userSpaceOnUse" x="22" y="154" width="20" height="20">
<rect x="22" y="154" width="20" height="20" fill="#D9D9D9"/>
</mask>
<g mask="url(#mask5_1704_28997)">
<path d="M32.0013 172.333C30.8485 172.333 29.7652 172.115 28.7513 171.677C27.7374 171.24 26.8555 170.646 26.1055 169.896C25.3555 169.146 24.7617 168.264 24.3242 167.25C23.8867 166.236 23.668 165.153 23.668 164C23.668 162.847 23.8867 161.764 24.3242 160.75C24.7617 159.736 25.3555 158.854 26.1055 158.104C26.8555 157.354 27.7374 156.76 28.7513 156.323C29.7652 155.885 30.8485 155.667 32.0013 155.667C33.1541 155.667 34.2374 155.885 35.2513 156.323C36.2652 156.76 37.1471 157.354 37.8971 158.104C38.6471 158.854 39.2409 159.736 39.6784 160.75C40.1159 161.764 40.3346 162.847 40.3346 164C40.3346 165.153 40.1159 166.236 39.6784 167.25C39.2409 168.264 38.6471 169.146 37.8971 169.896C37.1471 170.646 36.2652 171.24 35.2513 171.677C34.2374 172.115 33.1541 172.333 32.0013 172.333ZM31.168 170.625V169C30.7096 169 30.3173 168.837 29.9909 168.51C29.6645 168.184 29.5013 167.792 29.5013 167.333V166.5L25.5013 162.5C25.4596 162.75 25.4214 163 25.3867 163.25C25.352 163.5 25.3346 163.75 25.3346 164C25.3346 165.681 25.8867 167.153 26.9909 168.417C28.0951 169.681 29.4874 170.417 31.168 170.625ZM36.918 168.5C37.1957 168.195 37.4457 167.865 37.668 167.51C37.8902 167.156 38.0742 166.788 38.2201 166.406C38.3659 166.024 38.477 165.632 38.5534 165.229C38.6298 164.826 38.668 164.417 38.668 164C38.668 162.639 38.2895 161.396 37.5326 160.271C36.7756 159.146 35.7652 158.333 34.5013 157.833V158.167C34.5013 158.625 34.3381 159.017 34.0117 159.344C33.6853 159.67 33.293 159.833 32.8346 159.833H31.168V161.5C31.168 161.736 31.0881 161.934 30.9284 162.094C30.7687 162.254 30.5707 162.333 30.3346 162.333H28.668V164H33.668C33.9041 164 34.102 164.08 34.2617 164.24C34.4214 164.399 34.5013 164.597 34.5013 164.833V167.333H35.3346C35.6957 167.333 36.0221 167.441 36.3138 167.656C36.6055 167.872 36.8069 168.153 36.918 168.5Z" fill="white"/>
</g>
<g filter="url(#filter6_b_1704_28997)">
<rect x="180" y="140" width="64" height="48" rx="12" fill="url(#paint6_linear_1704_28997)" fill-opacity="0.08"/>
</g>
<mask id="mask6_1704_28997" style="mask-type:alpha" maskUnits="userSpaceOnUse" x="202" y="154" width="20" height="20">
<rect x="202" y="154" width="20" height="20" fill="#D9D9D9"/>
</mask>
<g mask="url(#mask6_1704_28997)">
<path d="M212.001 172.333C210.849 172.333 209.765 172.115 208.751 171.677C207.737 171.24 206.855 170.646 206.105 169.896C205.355 169.146 204.762 168.264 204.324 167.25C203.887 166.236 203.668 165.153 203.668 164C203.668 162.847 203.887 161.764 204.324 160.75C204.762 159.736 205.355 158.854 206.105 158.104C206.855 157.354 207.737 156.76 208.751 156.323C209.765 155.885 210.849 155.667 212.001 155.667C213.154 155.667 214.237 155.885 215.251 156.323C216.265 156.76 217.147 157.354 217.897 158.104C218.647 158.854 219.241 159.736 219.678 160.75C220.116 161.764 220.335 162.847 220.335 164C220.335 165.153 220.116 166.236 219.678 167.25C219.241 168.264 218.647 169.146 217.897 169.896C217.147 170.646 216.265 171.24 215.251 171.677C214.237 172.115 213.154 172.333 212.001 172.333ZM212.001 170.667C213.862 170.667 215.439 170.021 216.73 168.729C218.022 167.438 218.668 165.861 218.668 164C218.668 162.139 218.022 160.563 216.73 159.271C215.439 157.979 213.862 157.333 212.001 157.333C210.14 157.333 208.564 157.979 207.272 159.271C205.98 160.563 205.335 162.139 205.335 164C205.335 165.861 205.98 167.438 207.272 168.729C208.564 170.021 210.14 170.667 212.001 170.667ZM209.251 167.854L211.814 166.729C211.883 166.701 211.949 166.688 212.012 166.688C212.074 166.688 212.14 166.701 212.21 166.729L214.751 167.854C214.946 167.938 215.119 167.906 215.272 167.76C215.425 167.615 215.46 167.445 215.376 167.25L212.439 160.083C212.355 159.889 212.21 159.792 212.001 159.792C211.793 159.792 211.647 159.889 211.564 160.083L208.626 167.25C208.543 167.445 208.578 167.615 208.73 167.76C208.883 167.906 209.057 167.938 209.251 167.854Z" fill="white"/>
</g>
<path d="M124.5 39.5V119.5C124.5 126.127 119.127 131.5 112.5 131.5H89.5C82.8726 131.5 77.5 136.873 77.5 143.5V186C77.5 192.627 72.1274 198 65.5 198H40C33.3726 198 28 203.373 28 210V254" stroke="url(#paint7_linear_1704_28997)" stroke-width="2"/>
<path d="M125 39.5V118.5C125 125.127 130.373 130.5 137 130.5H154C160.627 130.5 166 135.873 166 142.5V187C166 193.627 171.373 199 178 199H203.5C210.127 199 215.5 204.373 215.5 211V258" stroke="url(#paint8_linear_1704_28997)" stroke-width="2"/>
<circle cx="122" cy="24" r="24" fill="url(#paint9_linear_1704_28997)"/>
<mask id="mask7_1704_28997" style="mask-type:alpha" maskUnits="userSpaceOnUse" x="112" y="14" width="20" height="20">
<rect x="112" y="14" width="20" height="20" fill="#D9D9D9"/>
</mask>
<g mask="url(#mask7_1704_28997)">
<path d="M121.999 23.9999C121.082 23.9999 120.297 23.6735 119.645 23.0208C118.992 22.368 118.665 21.5833 118.665 20.6666C118.665 19.7499 118.992 18.9652 119.645 18.3124C120.297 17.6596 121.082 17.3333 121.999 17.3333C122.915 17.3333 123.7 17.6596 124.353 18.3124C125.006 18.9652 125.332 19.7499 125.332 20.6666C125.332 21.5833 125.006 22.368 124.353 23.0208C123.7 23.6735 122.915 23.9999 121.999 23.9999ZM115.332 30.6666V28.3333C115.332 27.861 115.454 27.427 115.697 27.0312C115.94 26.6353 116.263 26.3333 116.665 26.1249C117.526 25.6944 118.401 25.3714 119.29 25.1562C120.179 24.9409 121.082 24.8333 121.999 24.8333C122.915 24.8333 123.818 24.9409 124.707 25.1562C125.596 25.3714 126.471 25.6944 127.332 26.1249C127.735 26.3333 128.058 26.6353 128.301 27.0312C128.544 27.427 128.665 27.861 128.665 28.3333V30.6666H115.332ZM116.999 28.9999H126.999V28.3333C126.999 28.1805 126.961 28.0416 126.884 27.9166C126.808 27.7916 126.707 27.6944 126.582 27.6249C125.832 27.2499 125.075 26.9687 124.311 26.7812C123.547 26.5937 122.776 26.4999 121.999 26.4999C121.221 26.4999 120.45 26.5937 119.686 26.7812C118.922 26.9687 118.165 27.2499 117.415 27.6249C117.29 27.6944 117.19 27.7916 117.113 27.9166C117.037 28.0416 116.999 28.1805 116.999 28.3333V28.9999ZM121.999 22.3333C122.457 22.3333 122.849 22.1701 123.176 21.8437C123.502 21.5173 123.665 21.1249 123.665 20.6666C123.665 20.2083 123.502 19.8159 123.176 19.4895C122.849 19.1631 122.457 18.9999 121.999 18.9999C121.54 18.9999 121.148 19.1631 120.822 19.4895C120.495 19.8159 120.332 20.2083 120.332 20.6666C120.332 21.1249 120.495 21.5173 120.822 21.8437C121.148 22.1701 121.54 22.3333 121.999 22.3333Z" fill="#1C1C1C"/>
</g>
<defs>
<filter id="filter0_b_1704_28997" x="112.46" y="51.46" width="109.08" height="93.08" filterUnits="userSpaceOnUse" color-interpolation-filters="sRGB">
<feFlood flood-opacity="0" result="BackgroundImageFix"/>
<feGaussianBlur in="BackgroundImageFix" stdDeviation="11.27"/>
<feComposite in2="SourceAlpha" operator="in" result="effect1_backgroundBlur_1704_28997"/>
<feBlend mode="normal" in="SourceGraphic" in2="effect1_backgroundBlur_1704_28997" result="shape"/>
</filter>
<filter id="filter1_b_1704_28997" x="30.46" y="51.46" width="109.08" height="93.08" filterUnits="userSpaceOnUse" color-interpolation-filters="sRGB">
<feFlood flood-opacity="0" result="BackgroundImageFix"/>
<feGaussianBlur in="BackgroundImageFix" stdDeviation="11.27"/>
<feComposite in2="SourceAlpha" operator="in" result="effect1_backgroundBlur_1704_28997"/>
<feBlend mode="normal" in="SourceGraphic" in2="effect1_backgroundBlur_1704_28997" result="shape"/>
</filter>
<filter id="filter2_b_1704_28997" x="112.46" y="183.46" width="109.08" height="93.08" filterUnits="userSpaceOnUse" color-interpolation-filters="sRGB">
<feFlood flood-opacity="0" result="BackgroundImageFix"/>
<feGaussianBlur in="BackgroundImageFix" stdDeviation="11.27"/>
<feComposite in2="SourceAlpha" operator="in" result="effect1_backgroundBlur_1704_28997"/>
<feBlend mode="normal" in="SourceGraphic" in2="effect1_backgroundBlur_1704_28997" result="shape"/>
</filter>
<filter id="filter3_b_1704_28997" x="22.46" y="183.46" width="109.08" height="93.08" filterUnits="userSpaceOnUse" color-interpolation-filters="sRGB">
<feFlood flood-opacity="0" result="BackgroundImageFix"/>
<feGaussianBlur in="BackgroundImageFix" stdDeviation="11.27"/>
<feComposite in2="SourceAlpha" operator="in" result="effect1_backgroundBlur_1704_28997"/>
<feBlend mode="normal" in="SourceGraphic" in2="effect1_backgroundBlur_1704_28997" result="shape"/>
</filter>
<filter id="filter4_b_1704_28997" x="67.46" y="117.46" width="109.08" height="93.08" filterUnits="userSpaceOnUse" color-interpolation-filters="sRGB">
<feFlood flood-opacity="0" result="BackgroundImageFix"/>
<feGaussianBlur in="BackgroundImageFix" stdDeviation="11.27"/>
<feComposite in2="SourceAlpha" operator="in" result="effect1_backgroundBlur_1704_28997"/>
<feBlend mode="normal" in="SourceGraphic" in2="effect1_backgroundBlur_1704_28997" result="shape"/>
</filter>
<filter id="filter5_b_1704_28997" x="-22.54" y="117.46" width="109.08" height="93.08" filterUnits="userSpaceOnUse" color-interpolation-filters="sRGB">
<feFlood flood-opacity="0" result="BackgroundImageFix"/>
<feGaussianBlur in="BackgroundImageFix" stdDeviation="11.27"/>
<feComposite in2="SourceAlpha" operator="in" result="effect1_backgroundBlur_1704_28997"/>
<feBlend mode="normal" in="SourceGraphic" in2="effect1_backgroundBlur_1704_28997" result="shape"/>
</filter>
<filter id="filter6_b_1704_28997" x="157.46" y="117.46" width="109.08" height="93.08" filterUnits="userSpaceOnUse" color-interpolation-filters="sRGB">
<feFlood flood-opacity="0" result="BackgroundImageFix"/>
<feGaussianBlur in="BackgroundImageFix" stdDeviation="11.27"/>
<feComposite in2="SourceAlpha" operator="in" result="effect1_backgroundBlur_1704_28997"/>
<feBlend mode="normal" in="SourceGraphic" in2="effect1_backgroundBlur_1704_28997" result="shape"/>
</filter>
<linearGradient id="paint0_linear_1704_28997" x1="167" y1="74" x2="167" y2="122" gradientUnits="userSpaceOnUse">
<stop stop-color="white"/>
<stop offset="1" stop-color="white"/>
</linearGradient>
<linearGradient id="paint1_linear_1704_28997" x1="85" y1="74" x2="85" y2="122" gradientUnits="userSpaceOnUse">
<stop stop-color="white"/>
<stop offset="1" stop-color="white"/>
</linearGradient>
<linearGradient id="paint2_linear_1704_28997" x1="167" y1="206" x2="167" y2="254" gradientUnits="userSpaceOnUse">
<stop stop-color="white"/>
<stop offset="1" stop-color="white"/>
</linearGradient>
<linearGradient id="paint3_linear_1704_28997" x1="77" y1="206" x2="77" y2="254" gradientUnits="userSpaceOnUse">
<stop stop-color="white"/>
<stop offset="1" stop-color="white"/>
</linearGradient>
<linearGradient id="paint4_linear_1704_28997" x1="122" y1="140" x2="122" y2="188" gradientUnits="userSpaceOnUse">
<stop stop-color="white"/>
<stop offset="1" stop-color="white"/>
</linearGradient>
<linearGradient id="paint5_linear_1704_28997" x1="32" y1="140" x2="32" y2="188" gradientUnits="userSpaceOnUse">
<stop stop-color="white"/>
<stop offset="1" stop-color="white"/>
</linearGradient>
<linearGradient id="paint6_linear_1704_28997" x1="212" y1="140" x2="212" y2="188" gradientUnits="userSpaceOnUse">
<stop stop-color="white"/>
<stop offset="1" stop-color="white"/>
</linearGradient>
<linearGradient id="paint7_linear_1704_28997" x1="26.8707" y1="269.6" x2="142.536" y2="267.45" gradientUnits="userSpaceOnUse">
<stop stop-color="#82ED95"/>
<stop offset="1" stop-color="#82EDC0"/>
</linearGradient>
<linearGradient id="paint8_linear_1704_28997" x1="216.559" y1="273.891" x2="108.079" y2="272.034" gradientUnits="userSpaceOnUse">
<stop stop-color="#82ED95"/>
<stop offset="1" stop-color="#82EDC0"/>
</linearGradient>
<linearGradient id="paint9_linear_1704_28997" x1="97.4383" y1="51.4909" x2="154.893" y2="49.1165" gradientUnits="userSpaceOnUse">
<stop stop-color="#82ED95"/>
<stop offset="1" stop-color="#82EDC0"/>
</linearGradient>
</defs>
</svg>
