<svg width="258" height="263" viewBox="0 0 258 263" fill="none" xmlns="http://www.w3.org/2000/svg">
<g filter="url(#filter0_d_1704_28558)">
<rect x="140" y="74" width="64" height="48" rx="12" fill="white"/>
</g>
<mask id="mask0_1704_28558" style="mask-type:alpha" maskUnits="userSpaceOnUse" x="162" y="88" width="20" height="20">
<rect x="162" y="88" width="20" height="20" fill="#D9D9D9"/>
</mask>
<g mask="url(#mask0_1704_28558)">
<path d="M172.001 106.333C170.849 106.333 169.765 106.115 168.751 105.677C167.737 105.24 166.855 104.646 166.105 103.896C165.355 103.146 164.762 102.264 164.324 101.25C163.887 100.236 163.668 99.1529 163.668 98.0001C163.668 96.8473 163.887 95.764 164.324 94.7501C164.762 93.7362 165.355 92.8542 166.105 92.1042C166.855 91.3542 167.737 90.7605 168.751 90.323C169.765 89.8855 170.849 89.6667 172.001 89.6667C173.154 89.6667 174.237 89.8855 175.251 90.323C176.265 90.7605 177.147 91.3542 177.897 92.1042C178.647 92.8542 179.241 93.7362 179.678 94.7501C180.116 95.764 180.335 96.8473 180.335 98.0001C180.335 99.1529 180.116 100.236 179.678 101.25C179.241 102.264 178.647 103.146 177.897 103.896C177.147 104.646 176.265 105.24 175.251 105.677C174.237 106.115 173.154 106.333 172.001 106.333ZM171.168 104.625V91.3751C169.487 91.5834 168.095 92.3195 166.991 93.5834C165.887 94.8473 165.335 96.3195 165.335 98.0001C165.335 99.6806 165.887 101.153 166.991 102.417C168.095 103.681 169.487 104.417 171.168 104.625ZM172.835 104.625C173.251 104.556 173.661 104.462 174.064 104.344C174.467 104.226 174.849 104.056 175.21 103.833H172.835V104.625ZM172.835 102.167H177.21C177.321 102.042 177.418 101.91 177.501 101.771C177.585 101.632 177.668 101.486 177.751 101.333H172.835V102.167ZM172.835 99.6667H178.46L178.626 98.8334H172.835V99.6667ZM172.835 97.1667H178.626L178.46 96.3334H172.835V97.1667ZM172.835 94.6667H177.751C177.668 94.514 177.585 94.3681 177.501 94.2292C177.418 94.0904 177.321 93.9584 177.21 93.8334H172.835V94.6667ZM172.835 92.1667H175.21C174.849 91.9445 174.467 91.7744 174.064 91.6563C173.661 91.5383 173.251 91.4445 172.835 91.3751V92.1667Z" fill="#1C1B1F"/>
</g>
<g filter="url(#filter1_d_1704_28558)">
<rect x="58" y="74" width="64" height="48" rx="12" fill="white"/>
</g>
<mask id="mask1_1704_28558" style="mask-type:alpha" maskUnits="userSpaceOnUse" x="80" y="88" width="20" height="20">
<rect x="80" y="88" width="20" height="20" fill="#D9D9D9"/>
</mask>
<g mask="url(#mask1_1704_28558)">
<path d="M90.0004 106.333C88.0281 106.333 86.2886 105.729 84.7816 104.521C83.2747 103.313 82.3059 101.771 81.8754 99.8959C81.8198 99.6598 81.8615 99.448 82.0004 99.2605C82.1393 99.073 82.3268 98.9654 82.5629 98.9376C82.799 98.9098 83.0073 98.9654 83.1879 99.1042C83.3684 99.2431 83.4934 99.4306 83.5629 99.6667C83.9379 101.125 84.7191 102.323 85.9066 103.26C87.0941 104.198 88.4587 104.667 90.0004 104.667C91.8615 104.667 93.4379 104.021 94.7295 102.729C96.0212 101.438 96.667 99.8612 96.667 98.0001C96.667 96.139 96.0212 94.5626 94.7295 93.2709C93.4379 91.9792 91.8615 91.3334 90.0004 91.3334C88.8059 91.3334 87.6983 91.6286 86.6775 92.2188C85.6566 92.8091 84.8476 93.6251 84.2504 94.6667H85.8337C86.0698 94.6667 86.2677 94.7466 86.4275 94.9063C86.5872 95.0661 86.667 95.264 86.667 95.5001C86.667 95.7362 86.5872 95.9341 86.4275 96.0938C86.2677 96.2536 86.0698 96.3334 85.8337 96.3334H83.0004C82.6948 96.3334 82.4518 96.2119 82.2712 95.9688C82.0906 95.7258 82.049 95.4654 82.1462 95.1876C82.7295 93.5487 83.7365 92.2188 85.167 91.198C86.5976 90.1772 88.2087 89.6667 90.0004 89.6667C91.1531 89.6667 92.2365 89.8855 93.2504 90.323C94.2643 90.7605 95.1462 91.3542 95.8962 92.1042C96.6462 92.8542 97.24 93.7362 97.6775 94.7501C98.115 95.764 98.3337 96.8473 98.3337 98.0001C98.3337 99.1529 98.115 100.236 97.6775 101.25C97.24 102.264 96.6462 103.146 95.8962 103.896C95.1462 104.646 94.2643 105.24 93.2504 105.677C92.2365 106.115 91.1531 106.333 90.0004 106.333ZM90.8337 97.6667L92.917 99.7501C93.0698 99.9029 93.1462 100.097 93.1462 100.333C93.1462 100.57 93.0698 100.764 92.917 100.917C92.7643 101.07 92.5698 101.146 92.3337 101.146C92.0976 101.146 91.9031 101.07 91.7504 100.917L89.417 98.5834C89.3337 98.5001 89.2712 98.4063 89.2295 98.3022C89.1879 98.198 89.167 98.0904 89.167 97.9792V94.6667C89.167 94.4306 89.2469 94.2327 89.4066 94.073C89.5663 93.9133 89.7643 93.8334 90.0004 93.8334C90.2365 93.8334 90.4344 93.9133 90.5941 94.073C90.7538 94.2327 90.8337 94.4306 90.8337 94.6667V97.6667Z" fill="#1C1B1F"/>
</g>
<g filter="url(#filter2_d_1704_28558)">
<rect x="140" y="206" width="64" height="48" rx="12" fill="white"/>
</g>
<mask id="mask2_1704_28558" style="mask-type:alpha" maskUnits="userSpaceOnUse" x="162" y="220" width="20" height="20">
<rect x="162" y="220" width="20" height="20" fill="#D9D9D9"/>
</mask>
<g mask="url(#mask2_1704_28558)">
<path d="M167.001 235L165.085 236.917C164.821 237.181 164.519 237.24 164.178 237.094C163.838 236.948 163.668 236.688 163.668 236.313V223.333C163.668 222.875 163.831 222.483 164.158 222.156C164.484 221.83 164.876 221.667 165.335 221.667H178.668C179.126 221.667 179.519 221.83 179.845 222.156C180.171 222.483 180.335 222.875 180.335 223.333V233.333C180.335 233.792 180.171 234.184 179.845 234.51C179.519 234.837 179.126 235 178.668 235H167.001ZM166.293 233.333H178.668V223.333H165.335V234.271L166.293 233.333Z" fill="#1C1B1F"/>
</g>
<g filter="url(#filter3_d_1704_28558)">
<rect x="50" y="206" width="64" height="48" rx="12" fill="white"/>
</g>
<mask id="mask3_1704_28558" style="mask-type:alpha" maskUnits="userSpaceOnUse" x="72" y="220" width="20" height="20">
<rect x="72" y="220" width="20" height="20" fill="#D9D9D9"/>
</mask>
<g mask="url(#mask3_1704_28558)">
<path d="M76.1667 237.5C75.7083 237.5 75.316 237.337 74.9896 237.01C74.6632 236.684 74.5 236.292 74.5 235.833V224.167C74.5 223.708 74.6632 223.316 74.9896 222.99C75.316 222.663 75.7083 222.5 76.1667 222.5H87.8333C88.2917 222.5 88.684 222.663 89.0104 222.99C89.3368 223.316 89.5 223.708 89.5 224.167V226.25H87.8333V224.167H76.1667V235.833H87.8333V233.75H89.5V235.833C89.5 236.292 89.3368 236.684 89.0104 237.01C88.684 237.337 88.2917 237.5 87.8333 237.5H76.1667ZM82.8333 234.167C82.375 234.167 81.9826 234.003 81.6563 233.677C81.3299 233.351 81.1667 232.958 81.1667 232.5V227.5C81.1667 227.042 81.3299 226.649 81.6563 226.323C81.9826 225.997 82.375 225.833 82.8333 225.833H88.6667C89.125 225.833 89.5174 225.997 89.8438 226.323C90.1701 226.649 90.3333 227.042 90.3333 227.5V232.5C90.3333 232.958 90.1701 233.351 89.8438 233.677C89.5174 234.003 89.125 234.167 88.6667 234.167H82.8333ZM88.6667 232.5V227.5H82.8333V232.5H88.6667ZM85.3333 231.25C85.6806 231.25 85.9757 231.128 86.2188 230.885C86.4618 230.642 86.5833 230.347 86.5833 230C86.5833 229.653 86.4618 229.358 86.2188 229.115C85.9757 228.872 85.6806 228.75 85.3333 228.75C84.9861 228.75 84.691 228.872 84.4479 229.115C84.2049 229.358 84.0833 229.653 84.0833 230C84.0833 230.347 84.2049 230.642 84.4479 230.885C84.691 231.128 84.9861 231.25 85.3333 231.25Z" fill="#1C1B1F"/>
</g>
<g filter="url(#filter4_d_1704_28558)">
<rect x="95" y="140" width="64" height="48" rx="12" fill="white"/>
</g>
<mask id="mask4_1704_28558" style="mask-type:alpha" maskUnits="userSpaceOnUse" x="117" y="154" width="20" height="20">
<rect x="117" y="154" width="20" height="20" fill="#D9D9D9"/>
</mask>
<g mask="url(#mask4_1704_28558)">
<path d="M121.167 172.333C120.708 172.333 120.316 172.17 119.99 171.844C119.663 171.517 119.5 171.125 119.5 170.667V159C119.5 158.542 119.663 158.149 119.99 157.823C120.316 157.496 120.708 157.333 121.167 157.333H122V156.5C122 156.264 122.08 156.066 122.24 155.906C122.399 155.746 122.597 155.667 122.833 155.667C123.069 155.667 123.267 155.746 123.427 155.906C123.587 156.066 123.667 156.264 123.667 156.5V157.333H130.333V156.5C130.333 156.264 130.413 156.066 130.573 155.906C130.733 155.746 130.931 155.667 131.167 155.667C131.403 155.667 131.601 155.746 131.76 155.906C131.92 156.066 132 156.264 132 156.5V157.333H132.833C133.292 157.333 133.684 157.496 134.01 157.823C134.337 158.149 134.5 158.542 134.5 159V170.667C134.5 171.125 134.337 171.517 134.01 171.844C133.684 172.17 133.292 172.333 132.833 172.333H121.167ZM121.167 170.667H132.833V162.333H121.167V170.667ZM121.167 160.667H132.833V159H121.167V160.667Z" fill="#1C1B1F"/>
</g>
<g filter="url(#filter5_d_1704_28558)">
<rect x="5" y="140" width="64" height="48" rx="12" fill="white"/>
</g>
<mask id="mask5_1704_28558" style="mask-type:alpha" maskUnits="userSpaceOnUse" x="27" y="154" width="20" height="20">
<rect x="27" y="154" width="20" height="20" fill="#D9D9D9"/>
</mask>
<g mask="url(#mask5_1704_28558)">
<path d="M37.0013 172.333C35.8485 172.333 34.7652 172.115 33.7513 171.677C32.7374 171.24 31.8555 170.646 31.1055 169.896C30.3555 169.146 29.7617 168.264 29.3242 167.25C28.8867 166.236 28.668 165.153 28.668 164C28.668 162.847 28.8867 161.764 29.3242 160.75C29.7617 159.736 30.3555 158.854 31.1055 158.104C31.8555 157.354 32.7374 156.76 33.7513 156.323C34.7652 155.885 35.8485 155.667 37.0013 155.667C38.1541 155.667 39.2374 155.885 40.2513 156.323C41.2652 156.76 42.1471 157.354 42.8971 158.104C43.6471 158.854 44.2409 159.736 44.6784 160.75C45.1159 161.764 45.3346 162.847 45.3346 164C45.3346 165.153 45.1159 166.236 44.6784 167.25C44.2409 168.264 43.6471 169.146 42.8971 169.896C42.1471 170.646 41.2652 171.24 40.2513 171.677C39.2374 172.115 38.1541 172.333 37.0013 172.333ZM36.168 170.625V169C35.7096 169 35.3173 168.837 34.9909 168.51C34.6645 168.184 34.5013 167.792 34.5013 167.333V166.5L30.5013 162.5C30.4596 162.75 30.4214 163 30.3867 163.25C30.352 163.5 30.3346 163.75 30.3346 164C30.3346 165.681 30.8867 167.153 31.9909 168.417C33.0951 169.681 34.4874 170.417 36.168 170.625ZM41.918 168.5C42.1957 168.195 42.4457 167.865 42.668 167.51C42.8902 167.156 43.0742 166.788 43.2201 166.406C43.3659 166.024 43.477 165.632 43.5534 165.229C43.6298 164.826 43.668 164.417 43.668 164C43.668 162.639 43.2895 161.396 42.5326 160.271C41.7756 159.146 40.7652 158.333 39.5013 157.833V158.167C39.5013 158.625 39.3381 159.017 39.0117 159.344C38.6853 159.67 38.293 159.833 37.8346 159.833H36.168V161.5C36.168 161.736 36.0881 161.934 35.9284 162.094C35.7687 162.254 35.5707 162.333 35.3346 162.333H33.668V164H38.668C38.9041 164 39.102 164.08 39.2617 164.24C39.4214 164.399 39.5013 164.597 39.5013 164.833V167.333H40.3346C40.6957 167.333 41.0221 167.441 41.3138 167.656C41.6055 167.872 41.8069 168.153 41.918 168.5Z" fill="#1C1B1F"/>
</g>
<g filter="url(#filter6_d_1704_28558)">
<rect x="185" y="140" width="64" height="48" rx="12" fill="white"/>
</g>
<mask id="mask6_1704_28558" style="mask-type:alpha" maskUnits="userSpaceOnUse" x="207" y="154" width="20" height="20">
<rect x="207" y="154" width="20" height="20" fill="#D9D9D9"/>
</mask>
<g mask="url(#mask6_1704_28558)">
<path d="M217.001 172.333C215.849 172.333 214.765 172.115 213.751 171.677C212.737 171.24 211.855 170.646 211.105 169.896C210.355 169.146 209.762 168.264 209.324 167.25C208.887 166.236 208.668 165.153 208.668 164C208.668 162.847 208.887 161.764 209.324 160.75C209.762 159.736 210.355 158.854 211.105 158.104C211.855 157.354 212.737 156.76 213.751 156.323C214.765 155.885 215.849 155.667 217.001 155.667C218.154 155.667 219.237 155.885 220.251 156.323C221.265 156.76 222.147 157.354 222.897 158.104C223.647 158.854 224.241 159.736 224.678 160.75C225.116 161.764 225.335 162.847 225.335 164C225.335 165.153 225.116 166.236 224.678 167.25C224.241 168.264 223.647 169.146 222.897 169.896C222.147 170.646 221.265 171.24 220.251 171.677C219.237 172.115 218.154 172.333 217.001 172.333ZM217.001 170.667C218.862 170.667 220.439 170.021 221.73 168.729C223.022 167.438 223.668 165.861 223.668 164C223.668 162.139 223.022 160.563 221.73 159.271C220.439 157.979 218.862 157.333 217.001 157.333C215.14 157.333 213.564 157.979 212.272 159.271C210.98 160.563 210.335 162.139 210.335 164C210.335 165.861 210.98 167.438 212.272 168.729C213.564 170.021 215.14 170.667 217.001 170.667ZM214.251 167.854L216.814 166.729C216.883 166.701 216.949 166.688 217.012 166.688C217.074 166.688 217.14 166.701 217.21 166.729L219.751 167.854C219.946 167.938 220.119 167.906 220.272 167.76C220.425 167.615 220.46 167.445 220.376 167.25L217.439 160.083C217.355 159.889 217.21 159.792 217.001 159.792C216.793 159.792 216.647 159.889 216.564 160.083L213.626 167.25C213.543 167.445 213.578 167.615 213.73 167.76C213.883 167.906 214.057 167.938 214.251 167.854Z" fill="#1C1B1F"/>
</g>
<path d="M129.5 39.5V119.5C129.5 126.127 124.127 131.5 117.5 131.5H94.5C87.8726 131.5 82.5 136.873 82.5 143.5V186C82.5 192.627 77.1274 198 70.5 198H45C38.3726 198 33 203.373 33 210V254" stroke="url(#paint0_linear_1704_28558)" stroke-width="2"/>
<path d="M130 39.5V118.5C130 125.127 135.373 130.5 142 130.5H159C165.627 130.5 171 135.873 171 142.5V187C171 193.627 176.373 199 183 199H208.5C215.127 199 220.5 204.373 220.5 211V258" stroke="url(#paint1_linear_1704_28558)" stroke-width="2"/>
<circle cx="127" cy="24" r="24" fill="url(#paint2_linear_1704_28558)"/>
<mask id="mask7_1704_28558" style="mask-type:alpha" maskUnits="userSpaceOnUse" x="117" y="14" width="20" height="20">
<rect x="117" y="14" width="20" height="20" fill="#D9D9D9"/>
</mask>
<g mask="url(#mask7_1704_28558)">
<path d="M126.999 23.9999C126.082 23.9999 125.297 23.6735 124.645 23.0208C123.992 22.368 123.665 21.5833 123.665 20.6666C123.665 19.7499 123.992 18.9652 124.645 18.3124C125.297 17.6596 126.082 17.3333 126.999 17.3333C127.915 17.3333 128.7 17.6596 129.353 18.3124C130.006 18.9652 130.332 19.7499 130.332 20.6666C130.332 21.5833 130.006 22.368 129.353 23.0208C128.7 23.6735 127.915 23.9999 126.999 23.9999ZM120.332 30.6666V28.3333C120.332 27.861 120.454 27.427 120.697 27.0312C120.94 26.6353 121.263 26.3333 121.665 26.1249C122.526 25.6944 123.401 25.3714 124.29 25.1562C125.179 24.9409 126.082 24.8333 126.999 24.8333C127.915 24.8333 128.818 24.9409 129.707 25.1562C130.596 25.3714 131.471 25.6944 132.332 26.1249C132.735 26.3333 133.058 26.6353 133.301 27.0312C133.544 27.427 133.665 27.861 133.665 28.3333V30.6666H120.332ZM121.999 28.9999H131.999V28.3333C131.999 28.1805 131.961 28.0416 131.884 27.9166C131.808 27.7916 131.707 27.6944 131.582 27.6249C130.832 27.2499 130.075 26.9687 129.311 26.7812C128.547 26.5937 127.776 26.4999 126.999 26.4999C126.221 26.4999 125.45 26.5937 124.686 26.7812C123.922 26.9687 123.165 27.2499 122.415 27.6249C122.29 27.6944 122.19 27.7916 122.113 27.9166C122.037 28.0416 121.999 28.1805 121.999 28.3333V28.9999ZM126.999 22.3333C127.457 22.3333 127.849 22.1701 128.176 21.8437C128.502 21.5173 128.665 21.1249 128.665 20.6666C128.665 20.2083 128.502 19.8159 128.176 19.4895C127.849 19.1631 127.457 18.9999 126.999 18.9999C126.54 18.9999 126.148 19.1631 125.822 19.4895C125.495 19.8159 125.332 20.2083 125.332 20.6666C125.332 21.1249 125.495 21.5173 125.822 21.8437C126.148 22.1701 126.54 22.3333 126.999 22.3333Z" fill="#1C1C1C"/>
</g>
<defs>
<filter id="filter0_d_1704_28558" x="135.642" y="69.6421" width="77.0736" height="61.0736" filterUnits="userSpaceOnUse" color-interpolation-filters="sRGB">
<feFlood flood-opacity="0" result="BackgroundImageFix"/>
<feColorMatrix in="SourceAlpha" type="matrix" values="0 0 0 0 0 0 0 0 0 0 0 0 0 0 0 0 0 0 127 0" result="hardAlpha"/>
<feOffset dx="2.17893" dy="2.17893"/>
<feGaussianBlur stdDeviation="3.2684"/>
<feColorMatrix type="matrix" values="0 0 0 0 0 0 0 0 0 0 0 0 0 0 0 0 0 0 0.04 0"/>
<feBlend mode="normal" in2="BackgroundImageFix" result="effect1_dropShadow_1704_28558"/>
<feBlend mode="normal" in="SourceGraphic" in2="effect1_dropShadow_1704_28558" result="shape"/>
</filter>
<filter id="filter1_d_1704_28558" x="53.6421" y="69.6421" width="77.0736" height="61.0736" filterUnits="userSpaceOnUse" color-interpolation-filters="sRGB">
<feFlood flood-opacity="0" result="BackgroundImageFix"/>
<feColorMatrix in="SourceAlpha" type="matrix" values="0 0 0 0 0 0 0 0 0 0 0 0 0 0 0 0 0 0 127 0" result="hardAlpha"/>
<feOffset dx="2.17893" dy="2.17893"/>
<feGaussianBlur stdDeviation="3.2684"/>
<feColorMatrix type="matrix" values="0 0 0 0 0 0 0 0 0 0 0 0 0 0 0 0 0 0 0.04 0"/>
<feBlend mode="normal" in2="BackgroundImageFix" result="effect1_dropShadow_1704_28558"/>
<feBlend mode="normal" in="SourceGraphic" in2="effect1_dropShadow_1704_28558" result="shape"/>
</filter>
<filter id="filter2_d_1704_28558" x="135.642" y="201.642" width="77.0736" height="61.0736" filterUnits="userSpaceOnUse" color-interpolation-filters="sRGB">
<feFlood flood-opacity="0" result="BackgroundImageFix"/>
<feColorMatrix in="SourceAlpha" type="matrix" values="0 0 0 0 0 0 0 0 0 0 0 0 0 0 0 0 0 0 127 0" result="hardAlpha"/>
<feOffset dx="2.17893" dy="2.17893"/>
<feGaussianBlur stdDeviation="3.2684"/>
<feColorMatrix type="matrix" values="0 0 0 0 0 0 0 0 0 0 0 0 0 0 0 0 0 0 0.04 0"/>
<feBlend mode="normal" in2="BackgroundImageFix" result="effect1_dropShadow_1704_28558"/>
<feBlend mode="normal" in="SourceGraphic" in2="effect1_dropShadow_1704_28558" result="shape"/>
</filter>
<filter id="filter3_d_1704_28558" x="45.6421" y="201.642" width="77.0736" height="61.0736" filterUnits="userSpaceOnUse" color-interpolation-filters="sRGB">
<feFlood flood-opacity="0" result="BackgroundImageFix"/>
<feColorMatrix in="SourceAlpha" type="matrix" values="0 0 0 0 0 0 0 0 0 0 0 0 0 0 0 0 0 0 127 0" result="hardAlpha"/>
<feOffset dx="2.17893" dy="2.17893"/>
<feGaussianBlur stdDeviation="3.2684"/>
<feColorMatrix type="matrix" values="0 0 0 0 0 0 0 0 0 0 0 0 0 0 0 0 0 0 0.04 0"/>
<feBlend mode="normal" in2="BackgroundImageFix" result="effect1_dropShadow_1704_28558"/>
<feBlend mode="normal" in="SourceGraphic" in2="effect1_dropShadow_1704_28558" result="shape"/>
</filter>
<filter id="filter4_d_1704_28558" x="90.6421" y="135.642" width="77.0736" height="61.0736" filterUnits="userSpaceOnUse" color-interpolation-filters="sRGB">
<feFlood flood-opacity="0" result="BackgroundImageFix"/>
<feColorMatrix in="SourceAlpha" type="matrix" values="0 0 0 0 0 0 0 0 0 0 0 0 0 0 0 0 0 0 127 0" result="hardAlpha"/>
<feOffset dx="2.17893" dy="2.17893"/>
<feGaussianBlur stdDeviation="3.2684"/>
<feColorMatrix type="matrix" values="0 0 0 0 0 0 0 0 0 0 0 0 0 0 0 0 0 0 0.04 0"/>
<feBlend mode="normal" in2="BackgroundImageFix" result="effect1_dropShadow_1704_28558"/>
<feBlend mode="normal" in="SourceGraphic" in2="effect1_dropShadow_1704_28558" result="shape"/>
</filter>
<filter id="filter5_d_1704_28558" x="0.642135" y="135.642" width="77.0736" height="61.0736" filterUnits="userSpaceOnUse" color-interpolation-filters="sRGB">
<feFlood flood-opacity="0" result="BackgroundImageFix"/>
<feColorMatrix in="SourceAlpha" type="matrix" values="0 0 0 0 0 0 0 0 0 0 0 0 0 0 0 0 0 0 127 0" result="hardAlpha"/>
<feOffset dx="2.17893" dy="2.17893"/>
<feGaussianBlur stdDeviation="3.2684"/>
<feColorMatrix type="matrix" values="0 0 0 0 0 0 0 0 0 0 0 0 0 0 0 0 0 0 0.04 0"/>
<feBlend mode="normal" in2="BackgroundImageFix" result="effect1_dropShadow_1704_28558"/>
<feBlend mode="normal" in="SourceGraphic" in2="effect1_dropShadow_1704_28558" result="shape"/>
</filter>
<filter id="filter6_d_1704_28558" x="180.642" y="135.642" width="77.0736" height="61.0736" filterUnits="userSpaceOnUse" color-interpolation-filters="sRGB">
<feFlood flood-opacity="0" result="BackgroundImageFix"/>
<feColorMatrix in="SourceAlpha" type="matrix" values="0 0 0 0 0 0 0 0 0 0 0 0 0 0 0 0 0 0 127 0" result="hardAlpha"/>
<feOffset dx="2.17893" dy="2.17893"/>
<feGaussianBlur stdDeviation="3.2684"/>
<feColorMatrix type="matrix" values="0 0 0 0 0 0 0 0 0 0 0 0 0 0 0 0 0 0 0.04 0"/>
<feBlend mode="normal" in2="BackgroundImageFix" result="effect1_dropShadow_1704_28558"/>
<feBlend mode="normal" in="SourceGraphic" in2="effect1_dropShadow_1704_28558" result="shape"/>
</filter>
<linearGradient id="paint0_linear_1704_28558" x1="31.8707" y1="269.6" x2="147.536" y2="267.45" gradientUnits="userSpaceOnUse">
<stop stop-color="#82ED95"/>
<stop offset="1" stop-color="#82EDC0"/>
</linearGradient>
<linearGradient id="paint1_linear_1704_28558" x1="221.559" y1="273.891" x2="113.079" y2="272.034" gradientUnits="userSpaceOnUse">
<stop stop-color="#82ED95"/>
<stop offset="1" stop-color="#82EDC0"/>
</linearGradient>
<linearGradient id="paint2_linear_1704_28558" x1="102.438" y1="51.4909" x2="159.893" y2="49.1165" gradientUnits="userSpaceOnUse">
<stop stop-color="#82ED95"/>
<stop offset="1" stop-color="#82EDC0"/>
</linearGradient>
</defs>
</svg>
