<svg width="162" height="184" viewBox="0 0 162 184" fill="none" xmlns="http://www.w3.org/2000/svg">
<g filter="url(#filter0_b_1704_28976)">
<path d="M16.3008 7.99977C16.3008 3.58149 19.8825 -0.000244141 24.3008 -0.000244141H140.645C152.439 -0.000244141 161.999 9.56006 161.999 21.3533V162.042C161.999 173.836 152.439 183.396 140.645 183.396H24.3008C19.8825 183.396 16.3008 179.814 16.3008 175.396V7.99977Z" fill="url(#paint0_linear_1704_28976)" fill-opacity="0.08"/>
</g>
<path d="M23.6797 11.1318C23.6797 9.06077 25.3586 7.38184 27.4297 7.38184H142.864C149.353 7.38184 154.614 12.6425 154.614 19.1318V164.264C154.614 170.753 149.353 176.014 142.864 176.014H27.4297C25.3586 176.014 23.6797 174.335 23.6797 172.264V11.1318Z" stroke="white" stroke-opacity="0.1" stroke-width="0.5"/>
<path d="M89.6582 28.2739C86.3836 28.2739 83.1825 29.245 80.4598 31.0642C77.7371 32.8835 75.615 35.4693 74.3619 38.4946C73.1087 41.5199 72.7809 44.8489 73.4197 48.0606C74.0585 51.2722 75.6354 54.2223 77.9509 56.5378C80.2664 58.8533 83.2165 60.4302 86.4281 61.069C89.6398 61.7078 92.9688 61.38 95.9941 60.1268C99.0194 58.8737 101.605 56.7516 103.424 54.0289C105.244 51.3062 106.215 48.1051 106.215 44.8305C106.21 40.441 104.464 36.2327 101.36 33.1288C98.256 30.025 94.0477 28.279 89.6582 28.2739ZM103.668 44.8305C103.669 46.1225 103.49 47.4084 103.137 48.6513H97.0068C97.3973 46.1191 97.3973 43.542 97.0068 41.0098H103.137C103.49 42.2527 103.669 43.5385 103.668 44.8305ZM85.519 51.1985H93.7973C92.9818 53.8707 91.566 56.3212 89.6582 58.3624C87.7511 56.3206 86.3354 53.8704 85.519 51.1985ZM84.8981 48.6513C84.4609 46.1229 84.4609 43.5382 84.8981 41.0098H94.4309C94.8682 43.5382 94.8682 46.1229 94.4309 48.6513H84.8981ZM75.6487 44.8305C75.6476 43.5385 75.826 42.2527 76.1789 41.0098H82.3096C81.919 43.542 81.919 46.1191 82.3096 48.6513H76.1789C75.826 47.4084 75.6476 46.1225 75.6487 44.8305ZM93.7973 38.4626H85.519C86.3346 35.7903 87.7504 33.3399 89.6582 31.2987C91.5652 33.3404 92.9809 35.7907 93.7973 38.4626ZM102.128 38.4626H96.4575C95.7428 35.8405 94.5382 33.3773 92.9074 31.2032C94.8778 31.6765 96.7226 32.5703 98.3152 33.8233C99.9079 35.0764 101.211 36.6589 102.135 38.4626H102.128ZM86.4089 31.2032C84.7781 33.3773 83.5735 35.8405 82.8588 38.4626H77.1818C78.1056 36.6589 79.4085 35.0764 81.0011 33.8233C82.5938 32.5703 84.4385 31.6765 86.4089 31.2032ZM77.1818 51.1985H82.8588C83.5735 53.8206 84.7781 56.2838 86.4089 58.4579C84.4385 57.9845 82.5938 57.0907 81.0011 55.8377C79.4085 54.5847 78.1056 53.0021 77.1818 51.1985ZM92.9074 58.4579C94.5382 56.2838 95.7428 53.8206 96.4575 51.1985H102.135C101.211 53.0021 99.9079 54.5847 98.3152 55.8377C96.7226 57.0907 94.8778 57.9845 92.9074 58.4579Z" fill="white"/>
<rect x="51.9609" y="82.5281" width="74.3774" height="8.15094" rx="4.07547" fill="white" fill-opacity="0.16"/>
<rect x="66.2227" y="98.8298" width="45.8491" height="8.15094" rx="4.07547" fill="white" fill-opacity="0.08"/>
<rect x="79.4688" y="150.792" width="20.3774" height="8.15094" rx="4.07547" fill="white" fill-opacity="0.16"/>
<rect y="125" width="58" height="43" rx="8" fill="url(#paint1_linear_1704_28976)"/>
<rect x="2.16153" y="127.162" width="53.6769" height="38.6769" rx="7.83847" stroke="white" stroke-width="0.323056"/>
<mask id="mask0_1704_28976" style="mask-type:alpha" maskUnits="userSpaceOnUse" x="17" y="133" width="25" height="25">
<rect x="17" y="133.471" width="24.4528" height="24.4528" fill="#D9D9D9"/>
</mask>
<g mask="url(#mask0_1704_28976)">
<path d="M29.2252 145.697C28.1044 145.697 27.145 145.298 26.3469 144.5C25.5487 143.702 25.1497 142.742 25.1497 141.622C25.1497 140.501 25.5487 139.542 26.3469 138.743C27.145 137.945 28.1044 137.546 29.2252 137.546C30.3459 137.546 31.3054 137.945 32.1035 138.743C32.9016 139.542 33.3006 140.501 33.3006 141.622C33.3006 142.742 32.9016 143.702 32.1035 144.5C31.3054 145.298 30.3459 145.697 29.2252 145.697ZM21.0742 153.848V150.995C21.0742 150.418 21.2228 149.887 21.52 149.403C21.8171 148.919 22.212 148.55 22.7044 148.295C23.7572 147.769 24.827 147.374 25.9138 147.111C27.0006 146.848 28.1044 146.716 29.2252 146.716C30.3459 146.716 31.4497 146.848 32.5365 147.111C33.6233 147.374 34.6931 147.769 35.7459 148.295C36.2384 148.55 36.6332 148.919 36.9304 149.403C37.2275 149.887 37.3761 150.418 37.3761 150.995V153.848H21.0742ZM23.112 151.81H35.3384V150.995C35.3384 150.809 35.2917 150.639 35.1983 150.486C35.1049 150.333 34.9818 150.214 34.8289 150.129C33.912 149.671 32.9865 149.327 32.0525 149.098C31.1186 148.868 30.1761 148.754 29.2252 148.754C28.2742 148.754 27.3318 148.868 26.3978 149.098C25.4638 149.327 24.5384 149.671 23.6214 150.129C23.4686 150.214 23.3454 150.333 23.252 150.486C23.1587 150.639 23.112 150.809 23.112 150.995V151.81ZM29.2252 143.659C29.7855 143.659 30.2653 143.46 30.6643 143.061C31.0634 142.662 31.2629 142.182 31.2629 141.622C31.2629 141.061 31.0634 140.582 30.6643 140.183C30.2653 139.784 29.7855 139.584 29.2252 139.584C28.6648 139.584 28.1851 139.784 27.786 140.183C27.387 140.582 27.1874 141.061 27.1874 141.622C27.1874 142.182 27.387 142.662 27.786 143.061C28.1851 143.46 28.6648 143.659 29.2252 143.659Z" fill="#1C1C1C"/>
</g>
<defs>
<filter id="filter0_b_1704_28976" x="-6.23922" y="-22.5402" width="190.779" height="228.476" filterUnits="userSpaceOnUse" color-interpolation-filters="sRGB">
<feFlood flood-opacity="0" result="BackgroundImageFix"/>
<feGaussianBlur in="BackgroundImageFix" stdDeviation="11.27"/>
<feComposite in2="SourceAlpha" operator="in" result="effect1_backgroundBlur_1704_28976"/>
<feBlend mode="normal" in="SourceGraphic" in2="effect1_backgroundBlur_1704_28976" result="shape"/>
</filter>
<linearGradient id="paint0_linear_1704_28976" x1="89.1498" y1="-0.000244141" x2="89.1498" y2="183.396" gradientUnits="userSpaceOnUse">
<stop stop-color="white"/>
<stop offset="1" stop-color="white"/>
</linearGradient>
<linearGradient id="paint1_linear_1704_28976" x1="-0.678724" y1="171.127" x2="68.6491" y2="167.263" gradientUnits="userSpaceOnUse">
<stop stop-color="#82ED95"/>
<stop offset="1" stop-color="#82EDC0"/>
</linearGradient>
</defs>
</svg>
