<svg width="171" height="198" viewBox="0 0 171 198" fill="none" xmlns="http://www.w3.org/2000/svg">
<g filter="url(#filter0_d_1704_28539)">
<path d="M16.3008 12.9998C16.3008 8.58149 19.8825 4.99976 24.3008 4.99976H140.645C152.439 4.99976 161.999 14.5601 161.999 26.3533V167.042C161.999 178.836 152.439 188.396 140.645 188.396H24.3008C19.8825 188.396 16.3008 184.814 16.3008 180.396V12.9998Z" fill="white"/>
</g>
<path d="M23.6797 16.1318C23.6797 14.0608 25.3586 12.3818 27.4297 12.3818H142.864C149.353 12.3818 154.614 17.6425 154.614 24.1318V169.264C154.614 175.753 149.353 181.014 142.864 181.014H27.4297C25.3586 181.014 23.6797 179.335 23.6797 177.264V16.1318Z" stroke="#1C1C1C" stroke-opacity="0.1" stroke-width="0.5"/>
<path d="M89.6582 33.2739C86.3836 33.2739 83.1825 34.245 80.4598 36.0642C77.7371 37.8835 75.615 40.4693 74.3619 43.4946C73.1087 46.5199 72.7809 49.8489 73.4197 53.0606C74.0585 56.2722 75.6354 59.2223 77.9509 61.5378C80.2664 63.8533 83.2165 65.4302 86.4281 66.069C89.6398 66.7078 92.9688 66.38 95.9941 65.1268C99.0194 63.8737 101.605 61.7516 103.424 59.0289C105.244 56.3062 106.215 53.1051 106.215 49.8305C106.21 45.441 104.464 41.2327 101.36 38.1288C98.256 35.025 94.0477 33.279 89.6582 33.2739ZM103.668 49.8305C103.669 51.1225 103.49 52.4084 103.137 53.6513H97.0068C97.3973 51.1191 97.3973 48.542 97.0068 46.0098H103.137C103.49 47.2527 103.669 48.5385 103.668 49.8305ZM85.519 56.1985H93.7973C92.9818 58.8707 91.566 61.3212 89.6582 63.3624C87.7511 61.3206 86.3354 58.8704 85.519 56.1985ZM84.8981 53.6513C84.4609 51.1229 84.4609 48.5382 84.8981 46.0098H94.4309C94.8682 48.5382 94.8682 51.1229 94.4309 53.6513H84.8981ZM75.6487 49.8305C75.6476 48.5385 75.826 47.2527 76.1789 46.0098H82.3096C81.919 48.542 81.919 51.1191 82.3096 53.6513H76.1789C75.826 52.4084 75.6476 51.1225 75.6487 49.8305ZM93.7973 43.4626H85.519C86.3346 40.7903 87.7504 38.3399 89.6582 36.2987C91.5652 38.3404 92.9809 40.7907 93.7973 43.4626ZM102.128 43.4626H96.4575C95.7428 40.8405 94.5382 38.3773 92.9074 36.2032C94.8778 36.6765 96.7226 37.5703 98.3152 38.8233C99.9079 40.0764 101.211 41.6589 102.135 43.4626H102.128ZM86.4089 36.2032C84.7781 38.3773 83.5735 40.8405 82.8588 43.4626H77.1818C78.1056 41.6589 79.4085 40.0764 81.0011 38.8233C82.5938 37.5703 84.4385 36.6765 86.4089 36.2032ZM77.1818 56.1985H82.8588C83.5735 58.8206 84.7781 61.2838 86.4089 63.4579C84.4385 62.9845 82.5938 62.0907 81.0011 60.8377C79.4085 59.5847 78.1056 58.0021 77.1818 56.1985ZM92.9074 63.4579C94.5382 61.2838 95.7428 58.8206 96.4575 56.1985H102.135C101.211 58.0021 99.9079 59.5847 98.3152 60.8377C96.7226 62.0907 94.8778 62.9845 92.9074 63.4579Z" fill="#1C1C1C"/>
<rect x="51.9609" y="87.5281" width="74.3774" height="8.15094" rx="4.07547" fill="#1C1C1C" fill-opacity="0.16"/>
<rect x="66.2227" y="103.83" width="45.8491" height="8.15094" rx="4.07547" fill="#1C1C1C" fill-opacity="0.08"/>
<rect x="79.4688" y="155.792" width="20.3774" height="8.15094" rx="4.07547" fill="#1C1C1C" fill-opacity="0.16"/>
<rect y="130" width="58" height="43" rx="8" fill="url(#paint0_linear_1704_28539)"/>
<rect x="2.16153" y="132.162" width="53.6769" height="38.6769" rx="7.83847" stroke="white" stroke-width="0.323056"/>
<mask id="mask0_1704_28539" style="mask-type:alpha" maskUnits="userSpaceOnUse" x="17" y="138" width="25" height="25">
<rect x="17" y="138.471" width="24.4528" height="24.4528" fill="#D9D9D9"/>
</mask>
<g mask="url(#mask0_1704_28539)">
<path d="M29.2252 150.697C28.1044 150.697 27.145 150.298 26.3469 149.5C25.5487 148.702 25.1497 147.742 25.1497 146.622C25.1497 145.501 25.5487 144.542 26.3469 143.743C27.145 142.945 28.1044 142.546 29.2252 142.546C30.3459 142.546 31.3054 142.945 32.1035 143.743C32.9016 144.542 33.3006 145.501 33.3006 146.622C33.3006 147.742 32.9016 148.702 32.1035 149.5C31.3054 150.298 30.3459 150.697 29.2252 150.697ZM21.0742 158.848V155.995C21.0742 155.418 21.2228 154.887 21.52 154.403C21.8171 153.919 22.212 153.55 22.7044 153.295C23.7572 152.769 24.827 152.374 25.9138 152.111C27.0006 151.848 28.1044 151.716 29.2252 151.716C30.3459 151.716 31.4497 151.848 32.5365 152.111C33.6233 152.374 34.6931 152.769 35.7459 153.295C36.2384 153.55 36.6332 153.919 36.9304 154.403C37.2275 154.887 37.3761 155.418 37.3761 155.995V158.848H21.0742ZM23.112 156.81H35.3384V155.995C35.3384 155.809 35.2917 155.639 35.1983 155.486C35.1049 155.333 34.9818 155.214 34.8289 155.129C33.912 154.671 32.9865 154.327 32.0525 154.098C31.1186 153.868 30.1761 153.754 29.2252 153.754C28.2742 153.754 27.3318 153.868 26.3978 154.098C25.4638 154.327 24.5384 154.671 23.6214 155.129C23.4686 155.214 23.3454 155.333 23.252 155.486C23.1587 155.639 23.112 155.809 23.112 155.995V156.81ZM29.2252 148.659C29.7855 148.659 30.2653 148.46 30.6643 148.061C31.0634 147.662 31.2629 147.182 31.2629 146.622C31.2629 146.061 31.0634 145.582 30.6643 145.183C30.2653 144.784 29.7855 144.584 29.2252 144.584C28.6648 144.584 28.1851 144.784 27.786 145.183C27.387 145.582 27.1874 146.061 27.1874 146.622C27.1874 147.182 27.387 147.662 27.786 148.061C28.1851 148.46 28.6648 148.659 29.2252 148.659Z" fill="#1C1C1C"/>
</g>
<defs>
<filter id="filter0_d_1704_28539" x="11.9429" y="0.641891" width="158.773" height="196.47" filterUnits="userSpaceOnUse" color-interpolation-filters="sRGB">
<feFlood flood-opacity="0" result="BackgroundImageFix"/>
<feColorMatrix in="SourceAlpha" type="matrix" values="0 0 0 0 0 0 0 0 0 0 0 0 0 0 0 0 0 0 127 0" result="hardAlpha"/>
<feOffset dx="2.17893" dy="2.17893"/>
<feGaussianBlur stdDeviation="3.2684"/>
<feColorMatrix type="matrix" values="0 0 0 0 0 0 0 0 0 0 0 0 0 0 0 0 0 0 0.04 0"/>
<feBlend mode="normal" in2="BackgroundImageFix" result="effect1_dropShadow_1704_28539"/>
<feBlend mode="normal" in="SourceGraphic" in2="effect1_dropShadow_1704_28539" result="shape"/>
</filter>
<linearGradient id="paint0_linear_1704_28539" x1="-0.678724" y1="176.127" x2="68.6491" y2="172.263" gradientUnits="userSpaceOnUse">
<stop stop-color="#82ED95"/>
<stop offset="1" stop-color="#82EDC0"/>
</linearGradient>
</defs>
</svg>
