<svg width="214" height="174" viewBox="0 0 214 174" fill="none" xmlns="http://www.w3.org/2000/svg">
<g filter="url(#filter0_d_1704_28611)">
<rect x="5" y="5" width="200" height="160" rx="21" fill="white"/>
</g>
<rect x="131" y="130" width="58" height="43" rx="8" fill="url(#paint0_linear_1704_28611)"/>
<rect x="133.162" y="132.162" width="53.6769" height="38.6769" rx="7.83847" stroke="white" stroke-width="0.323056"/>
<mask id="mask0_1704_28611" style="mask-type:alpha" maskUnits="userSpaceOnUse" x="148" y="138" width="25" height="25">
<rect x="148" y="138.471" width="24.4528" height="24.4528" fill="#D9D9D9"/>
</mask>
<g mask="url(#mask0_1704_28611)">
<path d="M168.172 151.64L152.481 158.262C152.141 158.398 151.819 158.368 151.513 158.173C151.208 157.978 151.055 157.693 151.055 157.32V144.075C151.055 143.701 151.208 143.416 151.513 143.221C151.819 143.026 152.141 142.996 152.481 143.132L168.172 149.755C168.596 149.941 168.808 150.256 168.808 150.697C168.808 151.139 168.596 151.453 168.172 151.64ZM153.092 155.791L165.166 150.697L153.092 145.603V149.169L159.206 150.697L153.092 152.225V155.791Z" fill="#1C1B1F"/>
</g>
<rect x="53" y="47" width="117" height="16" rx="8" fill="#1C1C1C" fill-opacity="0.16"/>
<rect x="17" y="88" width="172" height="8" rx="4" fill="#1C1C1C" fill-opacity="0.08"/>
<rect x="17" y="106" width="146" height="8" rx="4" fill="#1C1C1C" fill-opacity="0.08"/>
<mask id="mask1_1704_28611" style="mask-type:alpha" maskUnits="userSpaceOnUse" x="17" y="43" width="24" height="24">
<rect x="17" y="43" width="24" height="24" fill="#D9D9D9"/>
</mask>
<g mask="url(#mask1_1704_28611)">
<path d="M27.9492 55.7001L26.4992 54.2751C26.3159 54.0918 26.0867 54.0001 25.8117 54.0001C25.5367 54.0001 25.2992 54.1001 25.0992 54.3001C24.9159 54.4835 24.8242 54.7168 24.8242 55.0001C24.8242 55.2835 24.9159 55.5168 25.0992 55.7001L27.2492 57.8501C27.4492 58.0501 27.6826 58.1501 27.9492 58.1501C28.2159 58.1501 28.4492 58.0501 28.6492 57.8501L32.8992 53.6001C33.0992 53.4001 33.1951 53.1668 33.1867 52.9001C33.1784 52.6335 33.0826 52.4001 32.8992 52.2001C32.6992 52.0001 32.4617 51.896 32.1867 51.8876C31.9117 51.8793 31.6742 51.9751 31.4742 52.1751L27.9492 55.7001ZM25.1492 64.7501L23.6992 62.3001L20.9492 61.7001C20.6992 61.6501 20.4992 61.521 20.3492 61.3126C20.1992 61.1043 20.1409 60.8751 20.1742 60.6251L20.4492 57.8001L18.5742 55.6501C18.4076 55.4668 18.3242 55.2501 18.3242 55.0001C18.3242 54.7501 18.4076 54.5335 18.5742 54.3501L20.4492 52.2001L20.1742 49.3751C20.1409 49.1251 20.1992 48.896 20.3492 48.6876C20.4992 48.4793 20.6992 48.3501 20.9492 48.3001L23.6992 47.7001L25.1492 45.2501C25.2826 45.0335 25.4659 44.8876 25.6992 44.8126C25.9326 44.7376 26.1659 44.7501 26.3992 44.8501L28.9992 45.9501L31.5992 44.8501C31.8326 44.7501 32.0659 44.7376 32.2992 44.8126C32.5326 44.8876 32.7159 45.0335 32.8492 45.2501L34.2992 47.7001L37.0492 48.3001C37.2992 48.3501 37.4992 48.4793 37.6492 48.6876C37.7992 48.896 37.8576 49.1251 37.8242 49.3751L37.5492 52.2001L39.4242 54.3501C39.5909 54.5335 39.6742 54.7501 39.6742 55.0001C39.6742 55.2501 39.5909 55.4668 39.4242 55.6501L37.5492 57.8001L37.8242 60.6251C37.8576 60.8751 37.7992 61.1043 37.6492 61.3126C37.4992 61.521 37.2992 61.6501 37.0492 61.7001L34.2992 62.3001L32.8492 64.7501C32.7159 64.9668 32.5326 65.1126 32.2992 65.1876C32.0659 65.2626 31.8326 65.2501 31.5992 65.1501L28.9992 64.0501L26.3992 65.1501C26.1659 65.2501 25.9326 65.2626 25.6992 65.1876C25.4659 65.1126 25.2826 64.9668 25.1492 64.7501ZM26.4492 62.9501L28.9992 61.8501L31.5992 62.9501L32.9992 60.5501L35.7492 59.9001L35.4992 57.1001L37.3492 55.0001L35.4992 52.8501L35.7492 50.0501L32.9992 49.4501L31.5492 47.0501L28.9992 48.1501L26.3992 47.0501L24.9992 49.4501L22.2492 50.0501L22.4992 52.8501L20.6492 55.0001L22.4992 57.1001L22.2492 59.9501L24.9992 60.5501L26.4492 62.9501Z" fill="#1C1B1F"/>
</g>
<circle cx="19.5" cy="19.5" r="2.5" fill="#1C1B1F" fill-opacity="0.1"/>
<circle cx="28.5" cy="19.5" r="2.5" fill="#1C1B1F" fill-opacity="0.1"/>
<circle cx="37.5" cy="19.5" r="2.5" fill="#1C1B1F" fill-opacity="0.1"/>
<defs>
<filter id="filter0_d_1704_28611" x="0.642135" y="0.642135" width="213.074" height="173.074" filterUnits="userSpaceOnUse" color-interpolation-filters="sRGB">
<feFlood flood-opacity="0" result="BackgroundImageFix"/>
<feColorMatrix in="SourceAlpha" type="matrix" values="0 0 0 0 0 0 0 0 0 0 0 0 0 0 0 0 0 0 127 0" result="hardAlpha"/>
<feOffset dx="2.17893" dy="2.17893"/>
<feGaussianBlur stdDeviation="3.2684"/>
<feColorMatrix type="matrix" values="0 0 0 0 0 0 0 0 0 0 0 0 0 0 0 0 0 0 0.04 0"/>
<feBlend mode="normal" in2="BackgroundImageFix" result="effect1_dropShadow_1704_28611"/>
<feBlend mode="normal" in="SourceGraphic" in2="effect1_dropShadow_1704_28611" result="shape"/>
</filter>
<linearGradient id="paint0_linear_1704_28611" x1="130.321" y1="176.127" x2="199.649" y2="172.263" gradientUnits="userSpaceOnUse">
<stop stop-color="#82ED95"/>
<stop offset="1" stop-color="#82EDC0"/>
</linearGradient>
</defs>
</svg>
