<svg width="20" height="21" viewBox="0 0 20 21" fill="none" xmlns="http://www.w3.org/2000/svg">
<path d="M9.68647 6.51833C8.95647 6.51833 7.82647 5.68833 6.63647 5.71833C5.06647 5.73833 3.62647 6.62833 2.81647 8.03833C1.18647 10.8683 2.39647 15.0483 3.98647 17.3483C4.76647 18.4683 5.68647 19.7283 6.90647 19.6883C8.07647 19.6383 8.51647 18.9283 9.93647 18.9283C11.3465 18.9283 11.7465 19.6883 12.9865 19.6583C14.2465 19.6383 15.0465 18.5183 15.8165 17.3883C16.7065 16.0883 17.0765 14.8283 17.0965 14.7583C17.0665 14.7483 14.6465 13.8183 14.6165 11.0183C14.5965 8.67833 16.5265 7.55833 16.6165 7.50833C15.5165 5.89833 13.8265 5.71833 13.2365 5.67833C11.6965 5.55833 10.4065 6.51833 9.68647 6.51833ZM12.2865 4.15833C12.9365 3.37833 13.3665 2.28833 13.2465 1.20833C12.3165 1.24833 11.1965 1.82833 10.5265 2.60833C9.92647 3.29833 9.40647 4.40833 9.54647 5.46833C10.5765 5.54833 11.6365 4.93833 12.2865 4.15833Z" fill="white"/>
</svg>
