<svg viewBox="0 0 72 72" fill="none" xmlns="http://www.w3.org/2000/svg">
<path d="M65.2687 37.7697L42.7687 60.2697C42.4191 60.6198 41.9735 60.8582 41.4883 60.9548C41.0031 61.0514 40.5001 61.0019 40.043 60.8125C39.586 60.6232 39.1954 60.3024 38.9207 59.8909C38.646 59.4795 38.4996 58.9957 38.5 58.501V38.501H8.5C7.83696 38.501 7.20107 38.2376 6.73223 37.7688C6.26339 37.2999 6 36.664 6 36.001C6 35.338 6.26339 34.7021 6.73223 34.2332C7.20107 33.7644 7.83696 33.501 8.5 33.501H38.5V13.501C38.4996 13.0063 38.646 12.5225 38.9207 12.111C39.1954 11.6996 39.586 11.3788 40.043 11.1894C40.5001 11.0001 41.0031 10.9505 41.4883 11.0472C41.9735 11.1438 42.4191 11.3822 42.7687 11.7322L65.2687 34.2322C65.5012 34.4644 65.6856 34.7401 65.8114 35.0436C65.9372 35.3471 66.002 35.6725 66.002 36.001C66.002 36.3295 65.9372 36.6548 65.8114 36.9583C65.6856 37.2618 65.5012 37.5376 65.2687 37.7697Z" fill="currentColor"/>
</svg>
