<svg width="24" height="24" viewBox="0 0 24 24" fill="none" xmlns="http://www.w3.org/2000/svg">
    <path d="M16.5 1.125H7.5C6.80381 1.125 6.13613 1.40156 5.64384 1.89384C5.15156 2.38613 4.875 3.05381 4.875 3.75V20.25C4.875 20.9462 5.15156 21.6139 5.64384 22.1062C6.13613 22.5984 6.80381 22.875 7.5 22.875H16.5C17.1962 22.875 17.8639 22.5984 18.3562 22.1062C18.8484 21.6139 19.125 20.9462 19.125 20.25V3.75C19.125 3.05381 18.8484 2.38613 18.3562 1.89384C17.8639 1.40156 17.1962 1.125 16.5 1.125ZM16.875 20.25C16.875 20.3495 16.8355 20.4448 16.7652 20.5152C16.6948 20.5855 16.5995 20.625 16.5 20.625H7.5C7.40054 20.625 7.30516 20.5855 7.23483 20.5152C7.16451 20.4448 7.125 20.3495 7.125 20.25V3.75C7.125 3.65054 7.16451 3.55516 7.23483 3.48484C7.30516 3.41451 7.40054 3.375 7.5 3.375H16.5C16.5995 3.375 16.6948 3.41451 16.7652 3.48484C16.8355 3.55516 16.875 3.65054 16.875 3.75V20.25ZM13.5 6.375C13.5 6.67167 13.412 6.96168 13.2472 7.20835C13.0824 7.45503 12.8481 7.64729 12.574 7.76082C12.2999 7.87435 11.9983 7.90406 11.7074 7.84618C11.4164 7.7883 11.1491 7.64544 10.9393 7.43566C10.7296 7.22588 10.5867 6.95861 10.5288 6.66764C10.4709 6.37666 10.5006 6.07506 10.6142 5.80097C10.7277 5.52689 10.92 5.29262 11.1666 5.1278C11.4133 4.96297 11.7033 4.875 12 4.875C12.3978 4.875 12.7794 5.03304 13.0607 5.31434C13.342 5.59564 13.5 5.97718 13.5 6.375Z"
          fill="currentColor"/>
</svg>
