<svg width="20" height="20" viewBox="0 0 20 20" fill="none" xmlns="http://www.w3.org/2000/svg">
    <path d="M7.09889 11.5382C6.2322 11.5382 5.5247 10.7512 5.5247 9.78719C5.5247 8.82327 6.21451 8.03611 7.09889 8.03611C7.9744 8.03611 8.69071 8.82327 8.67304 9.78719C8.67304 10.7512 7.9744 11.5382 7.09889 11.5382ZM12.9101 11.5382C12.0434 11.5382 11.335 10.7512 11.335 9.78719C11.335 8.82327 12.0257 8.03611 12.9101 8.03611C13.7856 8.03611 14.502 8.82327 14.4843 9.78719C14.4843 10.7512 13.7945 11.5382 12.9101 11.5382ZM8.43613 3.60249L8.17883 3.13336L7.65107 3.22132C6.431 3.42467 5.27052 3.789 4.18624 4.28839L3.99547 4.37625L3.8776 4.5501C1.69987 7.76203 1.10321 10.9239 1.39864 14.0302L1.43085 14.3688L1.70598 14.5687C3.15547 15.6221 4.56018 16.2658 5.93777 16.6881L6.59552 16.8897L7.52348 14.6255C9.11479 15.0189 10.881 15.019 12.4725 14.6259L13.3948 16.8903L14.054 16.688C15.4295 16.2661 16.8431 15.6227 18.2872 14.5676L18.5589 14.3692L18.5926 14.0345C18.956 10.4344 18.0117 7.29813 16.1273 4.54712L16.009 4.37455L15.8189 4.28755C14.729 3.78906 13.5694 3.42486 12.3575 3.22146L11.8427 3.13508L11.5806 3.58643C11.5077 3.71206 11.433 3.85389 11.362 3.99741C10.4518 3.90394 9.54504 3.90374 8.64221 3.99712C8.57187 3.85615 8.50046 3.71985 8.43613 3.60249ZM5.59368 13.8419C5.75867 13.9369 5.93148 14.0299 6.10302 14.1151L5.72871 15.0284C4.79492 14.6883 3.84702 14.2198 2.87137 13.5464C2.68432 10.9315 3.21581 8.29252 5.00834 5.5719C5.75639 5.24271 6.54296 4.98568 7.36176 4.81081C7.41197 4.91528 7.45867 5.01724 7.49703 5.10766L7.72444 5.64367L8.30053 5.55917C9.42771 5.39385 10.5627 5.39364 11.7086 5.55939L12.2837 5.64257L12.5106 5.10766C12.5501 5.01455 12.5956 4.91291 12.6436 4.81104C13.4588 4.98607 14.2467 5.24345 15.0008 5.57345C16.5635 7.92383 17.3518 10.5454 17.1222 13.546C16.1515 14.2188 15.2002 14.6874 14.2645 15.0279L13.893 14.1159C14.065 14.0304 14.2383 13.9372 14.4038 13.8419C14.812 13.6067 15.2516 13.3134 15.5319 13.0331L14.4655 11.9669C14.3291 12.1033 14.0292 12.3174 13.651 12.5353C13.2807 12.7486 12.9134 12.921 12.6787 12.9986C11.0089 13.5507 8.98862 13.5507 7.31873 12.9986C7.08408 12.921 6.71675 12.7486 6.34647 12.5353C5.96823 12.3174 5.66831 12.1033 5.53185 11.9669L4.46558 13.0331C4.74579 13.3134 5.18546 13.6067 5.59368 13.8419Z"
          fill="currentColor" />
</svg>
