<svg width="20" height="20" viewBox="0 0 20 20" fill="none" xmlns="http://www.w3.org/2000/svg">
    <path d="M16.6925 10.1823C16.7506 10.2404 16.7967 10.3093 16.8282 10.3852C16.8597 10.4611 16.8758 10.5424 16.8758 10.6245C16.8758 10.7066 16.8597 10.788 16.8282 10.8639C16.7967 10.9397 16.7506 11.0087 16.6925 11.0667L10.4425 17.3167C10.3845 17.3748 10.3156 17.4209 10.2397 17.4524C10.1638 17.4838 10.0825 17.5 10.0003 17.5C9.91821 17.5 9.83688 17.4838 9.76101 17.4524C9.68514 17.4209 9.61621 17.3748 9.55816 17.3167L3.30816 11.0667C3.19088 10.9494 3.125 10.7904 3.125 10.6245C3.125 10.4587 3.19088 10.2996 3.30816 10.1823C3.42544 10.0651 3.5845 9.99917 3.75035 9.99917C3.9162 9.99917 4.07526 10.0651 4.19253 10.1823L10.0003 15.9909L15.8082 10.1823C15.8662 10.1242 15.9351 10.0781 16.011 10.0467C16.0869 10.0152 16.1682 9.99902 16.2503 9.99902C16.3325 9.99902 16.4138 10.0152 16.4897 10.0467C16.5656 10.0781 16.6345 10.1242 16.6925 10.1823Z"
          fill="currentColor"/>
    <path d="M9.7427 11.2572C9.77647 11.291 9.81657 11.3178 9.86072 11.3361C9.90486 11.3544 9.95217 11.3639 9.99996 11.3639C10.0477 11.3639 10.0951 11.3544 10.1392 11.3361C10.1833 11.3178 10.2234 11.291 10.2572 11.2572L13.8934 7.62107C13.9616 7.55284 13.9999 7.46031 13.9999 7.36382C13.9999 7.26733 13.9616 7.17479 13.8934 7.10656C13.8251 7.03833 13.7326 7 13.6361 7C13.5396 7 13.4471 7.03833 13.3788 7.10656L9.99996 10.4859L6.62107 7.10656C6.55284 7.03833 6.46031 7 6.36382 7C6.26733 7 6.17479 7.03833 6.10656 7.10656C6.03833 7.17479 6 7.26733 6 7.36382C6 7.46031 6.03833 7.55284 6.10656 7.62107L9.7427 11.2572Z"
          fill="currentColor"/>
</svg>
