<svg viewBox="0 0 40 40" fill="none" xmlns="http://www.w3.org/2000/svg">
<path d="M38.749 17.4985H34.3865L26.9646 7.27816C26.7397 6.96936 26.4471 6.71622 26.1091 6.53816C25.7711 6.36011 25.3968 6.26187 25.0149 6.25101C24.6331 6.24015 24.2538 6.31694 23.9062 6.4755C23.5587 6.63405 23.2521 6.87015 23.01 7.16566L21.0021 9.49379L20.9709 9.52972C20.8546 9.67588 20.7068 9.79391 20.5385 9.87503C20.3702 9.95616 20.1858 9.99829 19.999 9.99829C19.8122 9.99829 19.6278 9.95616 19.4596 9.87503C19.2913 9.79391 19.1435 9.67588 19.0271 9.52972L18.9959 9.49379L16.9881 7.16566C16.746 6.87015 16.4394 6.63405 16.0918 6.4755C15.7443 6.31694 15.365 6.24015 14.9831 6.25101C14.6013 6.26187 14.227 6.36011 13.889 6.53816C13.551 6.71622 13.2583 6.96936 13.0334 7.27816L5.61152 17.4985H1.24902C0.917503 17.4985 0.59956 17.6302 0.36514 17.8646C0.13072 18.099 -0.000976562 18.417 -0.000976562 18.7485C-0.000976562 19.08 0.13072 19.3979 0.36514 19.6324C0.59956 19.8668 0.917503 19.9985 1.24902 19.9985H38.749C39.0805 19.9985 39.3985 19.8668 39.6329 19.6324C39.8673 19.3979 39.999 19.08 39.999 18.7485C39.999 18.417 39.8673 18.099 39.6329 17.8646C39.3985 17.6302 39.0805 17.4985 38.749 17.4985ZM15.0521 8.74847L15.0818 8.78441L17.0896 11.111C17.4413 11.5434 17.8849 11.8919 18.3881 12.1313C18.8914 12.3707 19.4417 12.495 19.999 12.495C20.5563 12.495 21.1066 12.3707 21.6099 12.1313C22.1132 11.8919 22.5568 11.5434 22.9084 11.111L24.9162 8.78441C24.9256 8.77191 24.9318 8.76097 24.9428 8.74847L31.2959 17.4985H8.70059L15.0521 8.74847ZM28.124 22.4985C26.7406 22.4987 25.4058 23.0088 24.3747 23.9312C23.3437 24.8536 22.6887 26.1236 22.535 27.4985H17.4631C17.309 26.1249 16.6546 24.8561 15.6247 23.9342C14.5948 23.0124 13.2615 22.502 11.8793 22.5005C10.4971 22.499 9.16267 23.0064 8.13076 23.9261C7.09884 24.8457 6.44164 26.113 6.28458 27.4863C6.12751 28.8596 6.48157 30.2426 7.27919 31.3714C8.07681 32.5003 9.26215 33.296 10.609 33.6066C11.9559 33.9172 13.37 33.7211 14.5814 33.0556C15.7929 32.3901 16.7169 31.3018 17.1771 29.9985H22.8209C23.1646 30.9707 23.7691 31.8298 24.5681 32.4818C25.3671 33.1337 26.33 33.5535 27.3514 33.6951C28.3729 33.8368 29.4137 33.695 30.36 33.2851C31.3063 32.8752 32.1217 32.213 32.717 31.371C33.3124 30.529 33.6649 29.5395 33.7359 28.5107C33.8068 27.4819 33.5936 26.4534 33.1196 25.5375C32.6455 24.6217 31.9287 23.8539 31.0477 23.3179C30.1667 22.7819 29.1553 22.4984 28.124 22.4985ZM11.874 31.2485C11.256 31.2485 10.6518 31.0652 10.1379 30.7218C9.62396 30.3784 9.22342 29.8904 8.9869 29.3194C8.75038 28.7483 8.68849 28.12 8.80907 27.5138C8.92965 26.9076 9.22728 26.3508 9.66431 25.9138C10.1014 25.4767 10.6582 25.1791 11.2644 25.0585C11.8706 24.9379 12.4989 24.9998 13.0699 25.2364C13.6409 25.4729 14.129 25.8734 14.4724 26.3873C14.8157 26.9012 14.999 27.5054 14.999 28.1235C14.999 28.5339 14.9182 28.9402 14.7611 29.3194C14.6041 29.6985 14.3739 30.043 14.0837 30.3332C13.7935 30.6234 13.4491 30.8535 13.0699 31.0106C12.6908 31.1676 12.2844 31.2485 11.874 31.2485ZM28.124 31.2485C27.506 31.2485 26.9018 31.0652 26.3879 30.7218C25.874 30.3784 25.4734 29.8904 25.2369 29.3194C25.0004 28.7483 24.9385 28.12 25.0591 27.5138C25.1796 26.9076 25.4773 26.3508 25.9143 25.9138C26.3514 25.4767 26.9082 25.1791 27.5144 25.0585C28.1206 24.9379 28.7489 24.9998 29.3199 25.2364C29.8909 25.4729 30.379 25.8734 30.7224 26.3873C31.0657 26.9012 31.249 27.5054 31.249 28.1235C31.249 28.9523 30.9198 29.7471 30.3337 30.3332C29.7477 30.9192 28.9528 31.2485 28.124 31.2485Z" fill="currentColor"/>
</svg>
