<svg width="20" height="20" viewBox="0 0 20 20" fill="none" xmlns="http://www.w3.org/2000/svg">
<path d="M15 6.66634H16.6667C17.1269 6.66634 17.5 7.03944 17.5 7.49967V17.4997C17.5 17.9599 17.1269 18.333 16.6667 18.333H3.33333C2.8731 18.333 2.5 17.9599 2.5 17.4997V7.49967C2.5 7.03944 2.8731 6.66634 3.33333 6.66634H5V5.83301C5 3.07158 7.23857 0.833008 10 0.833008C12.7614 0.833008 15 3.07158 15 5.83301V6.66634ZM9.16667 13.11V14.9997H10.8333V13.11C11.3315 12.8218 11.6667 12.2833 11.6667 11.6663C11.6667 10.7458 10.9205 9.99967 10 9.99967C9.0795 9.99967 8.33333 10.7458 8.33333 11.6663C8.33333 12.2833 8.6685 12.8218 9.16667 13.11ZM13.3333 6.66634V5.83301C13.3333 3.99206 11.8409 2.49967 10 2.49967C8.15905 2.49967 6.66667 3.99206 6.66667 5.83301V6.66634H13.3333Z" fill="currentColor"/>
</svg>
