<svg width="186" height="32" viewBox="0 0 186 32" fill="none" xmlns="http://www.w3.org/2000/svg">
    <path d="M5.76585e-05 8.12724V8.72729H3.63641V6.68471C3.63641 5.00118 5.00124 3.63636 6.68477 3.63636H10.9091V7.86072C10.9091 9.54426 9.54431 10.9091 7.86077 10.9091H5.09092H3.63635H0V14.5454V17.4545V21.0909H3.63635H5.09092H7.86077C9.54431 21.0909 10.9091 22.4557 10.9091 24.1392V28.3636H6.68477C5.00124 28.3636 3.63641 26.9988 3.63641 25.3152V23.2727H5.76585e-05V23.8727C5.76585e-05 28.3612 3.63877 31.9999 8.12729 31.9999H14.5455V25.5817C14.5455 21.0932 10.9068 17.4544 6.4183 17.4544H3.63647V14.5454H6.4183C10.9068 14.5454 14.5455 10.9067 14.5455 6.41814V0H8.12729C3.63877 0 5.76585e-05 3.63872 5.76585e-05 8.12724Z"
          fill="#136854"/>
    <path d="M31.273 8.72729V8.12724C31.273 3.63872 27.6344 0 23.1458 0H16.7275V6.4182C16.7275 10.9067 20.3663 14.5454 24.8548 14.5454H27.6366V17.4545H24.8548C20.3663 17.4545 16.7275 21.0932 16.7275 25.5817V32H23.1458C27.6343 32 31.273 28.3613 31.273 23.8728V23.2727H27.6367V25.3153C27.6367 26.9988 26.2719 28.3636 24.5883 28.3636H20.364V24.1393C20.364 22.4557 21.7288 21.0909 23.4123 21.0909H26.1821H27.6367H31.273V17.4546V14.5455V10.9091H27.6367H26.1821H23.4123C21.7288 10.9091 20.364 9.54431 20.364 7.86078V3.63642H24.5883C26.2719 3.63642 27.6367 5.00125 27.6367 6.68478V8.72735L31.273 8.72729Z"
          fill="#136854"/>
    <path d="M47.4244 17.6569V8.42051H51.6309V17.1005C51.6309 19.6229 52.6472 20.8841 54.68 20.8841C56.7128 20.8841 57.7291 19.6229 57.7291 17.1005V8.42051H61.9356V17.6569C61.9356 19.8084 61.2902 21.4702 59.9993 22.6424C58.7232 23.7997 56.9502 24.3784 54.68 24.3784C52.3802 24.3784 50.5922 23.7997 49.3162 22.6424C48.055 21.4702 47.4244 19.8084 47.4244 17.6569ZM63.9293 24V12.8495H67.7129V14.5855C68.0541 13.9772 68.5438 13.4727 69.1818 13.0721C69.8198 12.6715 70.5469 12.4712 71.3629 12.4712C72.5796 12.4712 73.4995 12.8273 74.1227 13.5395C74.7607 14.2369 75.0797 15.231 75.0797 16.5218V24H71.1626V17.2563C71.1626 16.0841 70.6581 15.4981 69.6492 15.4981C68.9221 15.4981 68.4399 15.7725 68.2025 16.3215C67.9651 16.8409 67.8464 17.4863 67.8464 18.2578V24H63.9293ZM77.0228 11.4696V8.17569H81.0735V11.4696H77.0228ZM77.0896 24V12.8495H81.029V24H77.0896ZM84.3678 20.7951V15.5648H82.1199V12.8495H84.3678V9.39979H88.2182V12.8495H90.8889V15.5648H88.2182V20.1942C88.2182 20.7728 88.5075 21.0622 89.0862 21.0622H91.4231V24H87.5059C86.497 24 85.718 23.7255 85.169 23.1765C84.6349 22.6127 84.3678 21.8189 84.3678 20.7951ZM91.7474 18.3914C91.7474 16.6554 92.3038 15.2384 93.4166 14.1404C94.5294 13.0276 95.939 12.4712 97.6453 12.4712C99.4555 12.4712 100.865 13.0128 101.874 14.0959C102.898 15.1642 103.41 16.5812 103.41 18.3469C103.41 18.5843 103.395 18.881 103.365 19.2371H95.5977C95.6571 20.8544 96.347 21.6631 97.6676 21.6631C98.6765 21.6631 99.4258 21.0844 99.9155 19.9271L103.454 21.0622C102.46 23.273 100.531 24.3784 97.6676 24.3784C95.8277 24.3784 94.381 23.8442 93.3276 22.7759C92.2741 21.7076 91.7474 20.2461 91.7474 18.3914ZM95.6867 17.0115H99.5816C99.5371 16.3883 99.3442 15.9061 99.0029 15.5648C98.6765 15.2087 98.2314 15.0307 97.6676 15.0307C96.4657 15.0307 95.8054 15.6909 95.6867 17.0115ZM104.365 18.4136C104.365 16.6331 104.803 15.2013 105.678 14.1182C106.554 13.0202 107.719 12.4712 109.173 12.4712C109.944 12.4712 110.634 12.6418 111.243 12.9831C111.866 13.3243 112.348 13.7621 112.689 14.2962V12.5379V8.42051H116.562V24H112.756V22.5311C112.4 23.0652 111.91 23.5104 111.287 23.8665C110.664 24.2077 109.959 24.3784 109.173 24.3784C107.704 24.3784 106.532 23.8368 105.656 22.7536C104.796 21.6557 104.365 20.209 104.365 18.4136ZM112.801 18.4136C112.801 17.3602 112.608 16.5589 112.222 16.0099C111.836 15.461 111.302 15.1865 110.619 15.1865C109.15 15.1865 108.416 16.2622 108.416 18.4136C108.416 19.4968 108.609 20.3054 108.995 20.8396C109.38 21.3737 109.922 21.6408 110.619 21.6408C111.302 21.6408 111.836 21.3663 112.222 20.8173C112.608 20.2535 112.801 19.4523 112.801 18.4136ZM122.183 20.9954L125.744 20.2609C125.774 20.6319 125.959 20.9954 126.3 21.3515C126.642 21.7076 127.168 21.8856 127.881 21.8856C128.355 21.8856 128.726 21.7966 128.993 21.6186C129.261 21.4405 129.394 21.2031 129.394 20.9064C129.394 20.3722 128.956 20.0161 128.081 19.8381L126.612 19.571C125.232 19.3187 124.231 18.933 123.607 18.4136C122.984 17.8795 122.673 17.1005 122.673 16.0767C122.673 15.0084 123.125 14.1404 124.03 13.4727C124.935 12.805 126.182 12.4712 127.769 12.4712C129.223 12.4712 130.373 12.7457 131.219 13.2947C132.08 13.8288 132.629 14.4817 132.866 15.2532L129.505 16.2548C129.372 15.8245 129.134 15.4832 128.793 15.231C128.452 14.9787 128.044 14.8526 127.569 14.8526C127.139 14.8526 126.805 14.9416 126.568 15.1197C126.345 15.2829 126.234 15.5055 126.234 15.7874C126.234 16.0545 126.338 16.2622 126.545 16.4106C126.768 16.5441 127.154 16.6628 127.703 16.7667L129.283 17.0337C131.954 17.5085 133.289 18.6956 133.289 20.5948C133.289 21.7521 132.807 22.6646 131.842 23.3323C130.878 24 129.513 24.3338 127.747 24.3338C126.174 24.3338 124.906 24.0223 123.941 23.3991C122.977 22.7759 122.391 21.9747 122.183 20.9954ZM134.712 28.34V12.8495H138.517V14.2962C138.874 13.7769 139.363 13.3392 139.986 12.9831C140.61 12.627 141.314 12.4489 142.101 12.4489C143.57 12.4489 144.734 12.9979 145.595 14.0959C146.47 15.179 146.908 16.6257 146.908 18.4359C146.908 20.2164 146.47 21.6557 145.595 22.7536C144.72 23.8368 143.555 24.3784 142.101 24.3784C141.344 24.3784 140.647 24.2077 140.009 23.8665C139.385 23.5104 138.911 23.0726 138.584 22.5533V24.3116V28.34H134.712ZM140.654 21.6408C142.108 21.6408 142.835 20.5651 142.835 18.4136C142.835 16.2622 142.108 15.1865 140.654 15.1865C139.972 15.1865 139.437 15.461 139.052 16.0099C138.666 16.5589 138.473 17.3602 138.473 18.4136C138.473 19.4523 138.666 20.2535 139.052 20.8173C139.437 21.3663 139.972 21.6408 140.654 21.6408ZM147.903 21.1067C147.903 18.5843 150.27 17.145 155.003 16.7889V16.3883C155.003 15.4684 154.469 15.0084 153.401 15.0084C152.288 15.0084 151.605 15.5351 151.353 16.5886L147.748 15.9877C147.881 14.9639 148.46 14.1256 149.484 13.4727C150.507 12.805 151.843 12.4712 153.49 12.4712C155.181 12.4712 156.48 12.8495 157.385 13.6063C158.29 14.363 158.742 15.4535 158.742 16.8779V20.528C158.742 20.8099 158.779 20.9954 158.854 21.0844C158.928 21.1734 159.098 21.2179 159.365 21.2179H160.233V24H157.652C156.331 24 155.589 23.4584 155.426 22.3753C155.055 22.9539 154.536 23.4362 153.868 23.8219C153.2 24.1929 152.429 24.3784 151.553 24.3784C150.441 24.3784 149.55 24.0816 148.883 23.4881C148.23 22.8946 147.903 22.1008 147.903 21.1067ZM155.003 19.4819V18.8143C153.905 18.9181 153.082 19.1184 152.533 19.4152C151.984 19.7119 151.709 20.1422 151.709 20.7061C151.709 21.4183 152.125 21.7744 152.956 21.7744C153.549 21.7744 154.039 21.5741 154.425 21.1734C154.81 20.7728 155.003 20.209 155.003 19.4819ZM160.583 18.4359C160.583 16.6702 161.162 15.2384 162.319 14.1404C163.477 13.0276 164.946 12.4712 166.726 12.4712C168.151 12.4712 169.367 12.805 170.376 13.4727C171.385 14.1404 172.06 15.0232 172.402 16.1212L168.752 17.1895C168.41 15.8987 167.706 15.2532 166.637 15.2532C165.955 15.2532 165.413 15.5277 165.013 16.0767C164.627 16.6109 164.434 17.3824 164.434 18.3914C164.434 19.3855 164.634 20.1645 165.035 20.7283C165.45 21.2921 165.992 21.5741 166.659 21.5741C167.728 21.5741 168.455 20.8915 168.841 19.5265L172.557 20.439C172.172 21.6853 171.467 22.6572 170.443 23.3546C169.419 24.0371 168.173 24.3784 166.704 24.3784C164.879 24.3784 163.403 23.8368 162.275 22.7536C161.147 21.6557 160.583 20.2164 160.583 18.4359ZM173.136 18.3914C173.136 16.6554 173.693 15.2384 174.805 14.1404C175.918 13.0276 177.328 12.4712 179.034 12.4712C180.844 12.4712 182.254 13.0128 183.263 14.0959C184.287 15.1642 184.799 16.5812 184.799 18.3469C184.799 18.5843 184.784 18.881 184.754 19.2371H176.987C177.046 20.8544 177.736 21.6631 179.056 21.6631C180.065 21.6631 180.815 21.0844 181.304 19.9271L184.843 21.0622C183.849 23.273 181.92 24.3784 179.056 24.3784C177.217 24.3784 175.77 23.8442 174.716 22.7759C173.663 21.7076 173.136 20.2461 173.136 18.3914ZM177.076 17.0115H180.971C180.926 16.3883 180.733 15.9061 180.392 15.5648C180.065 15.2087 179.62 15.0307 179.056 15.0307C177.855 15.0307 177.194 15.6909 177.076 17.0115Z"
          fill="black"/>
</svg>
