<svg width="32" height="32" viewBox="0 0 32 32" fill="none" xmlns="http://www.w3.org/2000/svg">
    <path d="M5.76585e-05 8.12724V8.72729H3.63641V6.68471C3.63641 5.00118 5.00124 3.63636 6.68477 3.63636H10.9091V7.86072C10.9091 9.54426 9.54431 10.9091 7.86077 10.9091H5.09092H3.63635H0V14.5454V17.4545V21.0909H3.63635H5.09092H7.86077C9.54431 21.0909 10.9091 22.4557 10.9091 24.1392V28.3636H6.68477C5.00124 28.3636 3.63641 26.9988 3.63641 25.3152V23.2727H5.76585e-05V23.8727C5.76585e-05 28.3612 3.63877 31.9999 8.12729 31.9999H14.5455V25.5817C14.5455 21.0932 10.9068 17.4544 6.4183 17.4544H3.63647V14.5454H6.4183C10.9068 14.5454 14.5455 10.9067 14.5455 6.41814V0H8.12729C3.63877 0 5.76585e-05 3.63872 5.76585e-05 8.12724Z"
          fill="#136854"/>
    <path d="M31.273 8.72729V8.12724C31.273 3.63872 27.6344 0 23.1458 0H16.7275V6.4182C16.7275 10.9067 20.3663 14.5454 24.8548 14.5454H27.6366V17.4545H24.8548C20.3663 17.4545 16.7275 21.0932 16.7275 25.5817V32H23.1458C27.6343 32 31.273 28.3613 31.273 23.8728V23.2727H27.6367V25.3153C27.6367 26.9988 26.2719 28.3636 24.5883 28.3636H20.364V24.1393C20.364 22.4557 21.7288 21.0909 23.4123 21.0909H26.1821H27.6367H31.273V17.4546V14.5455V10.9091H27.6367H26.1821H23.4123C21.7288 10.9091 20.364 9.54431 20.364 7.86078V3.63642H24.5883C26.2719 3.63642 27.6367 5.00125 27.6367 6.68478V8.72735L31.273 8.72729Z"
          fill="#136854"/>
</svg>
