<svg width="103" height="27" viewBox="0 0 103 27" fill="none" xmlns="http://www.w3.org/2000/svg">
    <path fill-rule="evenodd" clip-rule="evenodd"
          d="M-0.00390625 26.893V14.5136C-0.00390625 11.8877 0.609016 9.98059 1.83472 8.79266C3.06043 7.60472 4.92217 7.01081 7.41984 7.01081H12.4876V10.3871H8.46055C6.86481 10.3871 5.73153 10.8121 5.06086 11.6624C4.39019 12.5127 4.05492 13.8506 4.05492 15.6763V26.893H-0.00390625ZM14.9366 26.893C11.8839 26.893 10.3574 24.8298 10.3574 20.7033C10.3574 18.7776 10.739 17.2645 11.5021 16.1641C12.2653 15.0637 13.4102 14.5136 14.9366 14.5136H23.262V13.238C23.262 11.3373 22.4063 10.3871 20.695 10.3871H15.3307V7.01081H22.152C23.8403 7.01081 25.1237 7.54861 26.0025 8.62401C26.8813 9.6994 27.3208 11.1122 27.3208 12.8629V23.5167C27.3208 25.7675 26.2801 26.893 24.1987 26.893H14.9366ZM30.1306 26.893V14.5136C30.1306 11.8877 30.7435 9.98059 31.9692 8.79266C33.1949 7.60472 35.0564 7.01081 37.554 7.01081H40.812V10.3871H38.5947C36.999 10.3871 35.866 10.8121 35.1954 11.6624C34.5247 12.5127 34.1891 13.8506 34.1891 15.6763V26.893H30.1306ZM43.7005 26.893V7.01081H47.7593V26.893H43.7005ZM16.4974 23.5167H22.2213C22.9151 23.5167 23.262 23.1415 23.262 22.3913V17.8896H16.4974C15.2023 17.8896 14.5547 18.8276 14.5547 20.7033C14.5547 22.579 15.2023 23.5167 16.4974 23.5167ZM43.7005 4.38483V0.333374H47.7593V4.38483H43.7005Z"
          fill="currentColor"/>
    <path fill-rule="evenodd" clip-rule="evenodd"
          d="M84.1734 9.41669C85.7949 7.985 88.3965 7.26917 91.9783 7.26917C95.5602 7.26917 98.1618 7.985 99.7833 9.41669C101.405 10.8484 102.215 13.4084 102.215 17.0968C102.215 20.8338 101.411 23.418 99.8014 24.8497C98.192 26.2814 95.5844 26.9972 91.9783 26.9972C88.3723 26.9972 85.7647 26.2814 84.1553 24.8497C82.5459 23.418 81.7412 20.8338 81.7412 17.0968C81.7412 13.4084 82.5519 10.8484 84.1734 9.41669ZM86.1337 17.0968C86.1337 19.4991 86.5693 21.2038 87.4406 22.2108C88.3118 23.2178 89.8244 23.7214 91.9783 23.7214C94.1323 23.7214 95.6448 23.2178 96.5161 22.2108C97.3873 21.2038 97.823 19.4991 97.823 17.0968C97.823 14.7187 97.3873 13.0323 96.5161 12.0374C95.6448 11.0425 94.1323 10.545 91.9783 10.545C89.8244 10.545 88.3118 11.0425 87.4406 12.0374C86.5693 13.0323 86.1337 14.7187 86.1337 17.0968ZM51.5742 26.7788V10.7634C51.5742 8.57951 52.6633 7.48756 54.8414 7.48756H71.504C73.8757 7.48756 75.715 7.985 77.0219 8.97991C78.3288 9.97481 78.9822 11.6734 78.9822 14.0757V26.7788H74.7349V15.2041C74.7349 13.6996 74.4203 12.5834 73.791 11.8554C73.1618 11.1274 72.1333 10.7634 70.7054 10.7634H67.4019V26.7788H63.1546V10.7634H56.9106C56.1846 10.7634 55.8215 11.1274 55.8215 11.8554V26.7788H51.5742Z"
          fill="currentColor"/>
</svg>
