<svg width="30" height="30" viewBox="0 0 30 30" fill="none" xmlns="http://www.w3.org/2000/svg">
<path d="M15.0039 30.0038C6.71965 30.0038 0.00390625 23.2882 0.00390625 15.0038C0.00390625 6.71963 6.71965 0.00390625 15.0039 0.00390625C23.2881 0.00390625 30.0039 6.71963 30.0039 15.0038C30.0039 23.2882 23.2881 30.0038 15.0039 30.0038ZM15.0039 27.0038C21.6314 27.0038 27.0039 21.6313 27.0039 15.0038C27.0039 8.37649 21.6314 3.00391 15.0039 3.00391C8.37649 3.00391 3.00391 8.37649 3.00391 15.0038C3.00391 21.6313 8.37649 27.0038 15.0039 27.0038ZM9.75391 18.0038H18.0039C18.4181 18.0038 18.7539 17.6681 18.7539 17.2538C18.7539 16.8397 18.4181 16.5038 18.0039 16.5038H12.0039C9.93284 16.5038 8.25391 14.825 8.25391 12.7538C8.25391 10.6828 9.93284 9.00391 12.0039 9.00391H13.5039V6.00391H16.5039V9.00391H20.2539V12.0038H12.0039C11.5897 12.0038 11.2539 12.3397 11.2539 12.7538C11.2539 13.1681 11.5897 13.5038 12.0039 13.5038H18.0039C20.075 13.5038 21.7539 15.1828 21.7539 17.2538C21.7539 19.325 20.075 21.0038 18.0039 21.0038H16.5039V24.0038H13.5039V21.0038H9.75391V18.0038Z" fill="currentColor"/>
</svg>
