<svg width="16" height="16" viewBox="0 0 16 16" fill="none" xmlns="http://www.w3.org/2000/svg">
    <path d="M6.66536 4.66668C6.66536 7.24401 8.7547 9.33334 11.332 9.33334C12.6376 9.33334 13.818 8.79714 14.665 7.93301C14.6654 7.95534 14.6654 7.97768 14.6654 8.00001C14.6654 11.6819 11.6806 14.6667 7.9987 14.6667C4.3168 14.6667 1.33203 11.6819 1.33203 8.00001C1.33203 4.31811 4.3168 1.33334 7.9987 1.33334C8.02103 1.33334 8.04336 1.33334 8.0657 1.33367C7.20156 2.18066 6.66536 3.36106 6.66536 4.66668ZM2.66536 8.00001C2.66536 10.9455 5.05318 13.3333 7.9987 13.3333C10.0376 13.3333 11.8092 12.1893 12.7067 10.5081C12.2617 10.6125 11.801 10.6667 11.332 10.6667C8.0183 10.6667 5.33203 7.98041 5.33203 4.66668C5.33203 4.19766 5.38625 3.73699 5.49063 3.29201C3.80944 4.1895 2.66536 5.96114 2.66536 8.00001Z"
          fill="currentColor" />
</svg>
