<svg viewBox="0 0 41 40" fill="none" xmlns="http://www.w3.org/2000/svg">
<path opacity="0.2" d="M15.4688 8.78157C16.0806 9.39344 16.4972 10.173 16.666 11.0216C16.8347 11.8703 16.7481 12.7499 16.4169 13.5493C16.0858 14.3487 15.525 15.032 14.8056 15.5127C14.0861 15.9934 13.2403 16.25 12.375 16.25C11.5097 16.25 10.6639 15.9934 9.94443 15.5127C9.22497 15.032 8.66422 14.3487 8.33307 13.5493C8.00193 12.7499 7.91526 11.8703 8.08403 11.0216C8.25281 10.173 8.66944 9.39344 9.28125 8.78157C9.68751 8.37526 10.1698 8.05296 10.7007 7.83307C11.2315 7.61318 11.8004 7.5 12.375 7.5C12.9496 7.5 13.5185 7.61318 14.0493 7.83307C14.5802 8.05296 15.0625 8.37526 15.4688 8.78157ZM31.7188 25.0316C31.1069 24.4198 30.3273 24.0031 29.4787 23.8343C28.63 23.6656 27.7504 23.7522 26.951 24.0834C26.1516 24.4145 25.4683 24.9753 24.9876 25.6947C24.5069 26.4142 24.2503 27.26 24.2503 28.1253C24.2503 28.9906 24.5069 29.8364 24.9876 30.5559C25.4683 31.2753 26.1516 31.8361 26.951 32.1672C27.7504 32.4984 28.63 32.5851 29.4787 32.4163C30.3273 32.2475 31.1069 31.8309 31.7188 31.2191C32.1251 30.8128 32.4474 30.3305 32.6672 29.7997C32.8871 29.2688 33.0003 28.6999 33.0003 28.1253C33.0003 27.5507 32.8871 26.9818 32.6672 26.451C32.4474 25.9201 32.1251 25.4378 31.7188 25.0316Z" fill="currentColor"/>
<path d="M32.6347 9.63201L10.1347 32.132C9.90019 32.3666 9.58207 32.4983 9.25037 32.4983C8.91866 32.4983 8.60054 32.3666 8.36599 32.132C8.13144 31.8975 7.99967 31.5793 7.99967 31.2476C7.99967 30.9159 8.13144 30.5978 8.36599 30.3633L30.866 7.86326C31.1003 7.62871 31.4183 7.49685 31.7498 7.49671C32.0814 7.49656 32.3994 7.62813 32.634 7.86248C32.8685 8.09682 33.0004 8.41474 33.0005 8.7463C33.0007 9.07786 32.8691 9.39589 32.6347 9.63044V9.63201ZM8.39724 15.8508C7.34238 14.7957 6.74985 13.3648 6.75 11.8729C6.75015 10.3809 7.34296 8.95015 8.39802 7.89529C9.45309 6.84043 10.884 6.2479 12.3759 6.24805C13.8679 6.24819 15.2986 6.841 16.3535 7.89607C17.4083 8.95113 18.0009 10.382 18.0007 11.874C18.0006 13.3659 17.4078 14.7967 16.3527 15.8515C15.2976 16.9064 13.8668 17.4989 12.3748 17.4988C10.8829 17.4986 9.4521 16.9058 8.39724 15.8508ZM9.25037 11.8758C9.25077 12.3896 9.37787 12.8954 9.6204 13.3484C9.86294 13.8013 10.2134 14.1875 10.6408 14.4727C11.0682 14.7579 11.5594 14.9333 12.0708 14.9834C12.5821 15.0335 13.098 14.9567 13.5726 14.7599C14.0472 14.563 14.466 14.2522 14.7918 13.8548C15.1176 13.4575 15.3404 12.986 15.4405 12.482C15.5406 11.978 15.5149 11.4571 15.3656 10.9655C15.2163 10.4738 14.9481 10.0265 14.5847 9.66326C14.1475 9.22616 13.5905 8.92858 12.9841 8.80816C12.3777 8.68773 11.7492 8.74988 11.1781 8.98673C10.6071 9.22359 10.1191 9.62451 9.77593 10.1388C9.43278 10.653 9.24988 11.2575 9.25037 11.8758ZM34.2504 28.1258C34.2501 29.4271 33.7986 30.6881 32.9728 31.6939C32.147 32.6997 30.998 33.388 29.7216 33.6416C28.4452 33.8952 27.1203 33.6984 25.9727 33.0847C24.8252 32.471 23.9259 31.4784 23.4281 30.276C22.9303 29.0736 22.8649 27.7358 23.2429 26.4906C23.6209 25.2453 24.419 24.1697 25.5011 23.4469C26.5833 22.7241 27.8826 22.3989 29.1777 22.5266C30.4727 22.6544 31.6834 23.2273 32.6035 24.1476C33.1275 24.6689 33.5428 25.2888 33.8255 25.9717C34.1082 26.6546 34.2526 27.3867 34.2504 28.1258ZM31.7504 28.1258C31.7505 27.4028 31.5 26.7021 31.0414 26.1431C30.5829 25.5841 29.9447 25.2014 29.2356 25.0603C28.5266 24.9191 27.7905 25.0281 27.1528 25.3688C26.5151 25.7095 26.0153 26.2608 25.7385 26.9287C25.4617 27.5966 25.425 28.3398 25.6348 29.0317C25.8445 29.7236 26.2877 30.3214 26.8888 30.7231C27.4899 31.1249 28.2117 31.3058 28.9312 31.2351C29.6507 31.1643 30.3234 30.8463 30.8347 30.3351C31.1258 30.0457 31.3567 29.7014 31.5138 29.3221C31.671 28.9429 31.7514 28.5363 31.7504 28.1258Z" fill="currentColor"/>
</svg>
