<svg viewBox="0 0 45 40" fill="none" xmlns="http://www.w3.org/2000/svg">
<path fill-rule="evenodd" clip-rule="evenodd" d="M0 36V16.0757C0 11.8492 0.990523 8.77981 2.97134 6.86785C4.95217 4.95588 7.96087 4 11.9973 4H20.1871V9.43404H13.6791C11.1003 9.43404 9.26885 10.1181 8.18499 11.4866C7.10115 12.8552 6.55933 15.0086 6.55933 17.9469V36H0ZM24.1448 36C19.2115 36 16.7446 32.6794 16.7446 26.0378C16.7446 22.9384 17.3612 20.5031 18.5945 18.732C19.8279 16.9609 21.6781 16.0757 24.1448 16.0757H37.5992V14.0226C37.5992 10.9635 36.2164 9.43404 33.4507 9.43404H24.7817V4H35.8054C38.5337 4 40.6079 4.86557 42.0281 6.59641C43.4483 8.32724 44.1585 10.6012 44.1585 13.4188V30.566C44.1585 34.1886 42.4766 36 39.113 36H24.1448ZM26.6671 30.566H35.9173C37.0386 30.566 37.5992 29.9622 37.5992 28.7546V21.5092H26.6671C24.5742 21.5092 23.5277 23.019 23.5277 26.0378C23.5277 29.0567 24.5742 30.566 26.6671 30.566Z" fill="currentColor"/>
</svg>
