<svg width="40" height="40" viewBox="0 0 40 40" fill="none" xmlns="http://www.w3.org/2000/svg">
<rect width="40" height="40" rx="13.3333" fill="#CDFD4A"/>
<path fill-rule="evenodd" clip-rule="evenodd" d="M8.53516 19.1962C8.53514 25.3127 12.8524 30.5787 18.85 31.7783C19.7582 31.96 20.6933 31.96 21.6014 31.7782H21.6018C27.5993 30.5785 31.9163 25.3125 31.9165 19.1961V15.0281C31.9165 11.4411 29.0085 8.53333 25.4216 8.53333H15.0299C11.443 8.53333 8.53516 11.4411 8.53516 15.0281V19.1962ZM17.053 18.9247C17.053 18.5239 16.7281 18.199 16.3273 18.199C15.9265 18.199 15.6016 18.5239 15.6016 18.9247V22.8215C15.6016 23.2224 15.9265 23.5473 16.3273 23.5473C16.7281 23.5473 17.053 23.2224 17.053 22.8215V18.9247ZM20.2257 18.0919C20.6265 18.0919 20.9514 18.4168 20.9514 18.8176V22.8227C20.9514 23.2235 20.6265 23.5484 20.2257 23.5484C19.8249 23.5484 19.5 23.2235 19.5 22.8227V18.8176C19.5 18.4168 19.8249 18.0919 20.2257 18.0919ZM20.2254 14.3028L20.2227 14.3028C19.375 14.306 18.5448 14.5439 17.8242 14.9903C17.4834 15.2013 17.3783 15.6487 17.5893 15.9894C17.8004 16.3301 18.2477 16.4353 18.5884 16.2242C19.0807 15.9193 19.6478 15.7567 20.2268 15.7542C21.9775 15.755 23.3965 17.1744 23.3965 18.9254V22.8222C23.3965 23.2231 23.7214 23.548 24.1222 23.548C24.5231 23.548 24.848 23.2231 24.848 22.8222V18.9254C24.848 16.3724 22.7784 14.3028 20.2254 14.3028Z" fill="black"/>
</svg>
