<svg width="20" height="21" viewBox="0 0 20 21" fill="none" xmlns="http://www.w3.org/2000/svg">
<g clip-path="url(#clip0_11652_2955)">
<path d="M3.0075 2.01167L11.4933 10.5L3.00833 18.9883C2.85745 18.9249 2.72869 18.8183 2.63824 18.6819C2.5478 18.5454 2.4997 18.3853 2.5 18.2217V2.77833C2.50007 2.61485 2.54821 2.455 2.63845 2.31868C2.72869 2.18236 2.85703 2.07559 3.0075 2.01167ZM12.0825 11.0892L14.0008 13.0075L4.88667 18.285L12.0825 11.0892ZM14.7483 8.42417L17.0875 9.77917C17.2138 9.85242 17.3186 9.95757 17.3915 10.0841C17.4643 10.2106 17.5027 10.354 17.5027 10.5C17.5027 10.646 17.4643 10.7894 17.3915 10.9159C17.3186 11.0424 17.2138 11.1476 17.0875 11.2208L14.7475 12.5758L12.6717 10.5L14.7483 8.42417ZM4.88667 2.715L14.0017 7.99167L12.0825 9.91083L4.88667 2.715Z" fill="white"/>
</g>
<defs>
<clipPath id="clip0_11652_2955">
<rect width="20" height="20" fill="white" transform="translate(0 0.5)"/>
</clipPath>
</defs>
</svg>
