<svg width="16" height="16" viewBox="0 0 16 16" fill="none" xmlns="http://www.w3.org/2000/svg">
    <g clip-path="url(#clip0_1704_18788)">
        <path d="M8.0013 12C5.79216 12 4.0013 10.2091 4.0013 7.99999C4.0013 5.79085 5.79216 3.99999 8.0013 3.99999C10.2104 3.99999 12.0013 5.79085 12.0013 7.99999C12.0013 10.2091 10.2104 12 8.0013 12ZM8.0013 10.6667C9.47404 10.6667 10.668 9.47272 10.668 7.99999C10.668 6.52723 9.47404 5.33332 8.0013 5.33332C6.52854 5.33332 5.33464 6.52723 5.33464 7.99999C5.33464 9.47272 6.52854 10.6667 8.0013 10.6667ZM7.33464 0.666656H8.66797V2.66666H7.33464V0.666656ZM7.33464 13.3333H8.66797V15.3333H7.33464V13.3333ZM2.34445 3.28594L3.28726 2.34314L4.70147 3.75735L3.75866 4.70016L2.34445 3.28594ZM11.3011 12.2427L12.244 11.2998L13.6582 12.7141L12.7154 13.6569L11.3011 12.2427ZM12.7154 2.34314L13.6582 3.28594L12.244 4.70016L11.3011 3.75735L12.7154 2.34314ZM3.75866 11.2998L4.70147 12.2427L3.28726 13.6569L2.34445 12.7141L3.75866 11.2998ZM15.3346 7.33332V8.66666H13.3346V7.33332H15.3346ZM2.66797 7.33332V8.66666H0.667969V7.33332H2.66797Z"
              fill="currentColor" />
    </g>
</svg>
