<svg width="20" height="20" viewBox="0 0 20 20" fill="none" xmlns="http://www.w3.org/2000/svg">
    <path d="M16.668 10C16.668 13.6819 13.6832 16.6667 10.0013 16.6667C6.3194 16.6667 3.33464 13.6819 3.33464 10C3.33464 6.31812 6.3194 3.33335 10.0013 3.33335C13.6832 3.33335 16.668 6.31812 16.668 10ZM10.0013 18.3334C14.6036 18.3334 18.3346 14.6024 18.3346 10C18.3346 5.39765 14.6036 1.66669 10.0013 1.66669C5.39893 1.66669 1.66797 5.39765 1.66797 10C1.66797 14.6024 5.39893 18.3334 10.0013 18.3334ZM10.3 7.81874C9.48939 8.15587 7.86947 8.85369 5.44014 9.9121C5.04564 10.0689 4.839 10.2224 4.82019 10.3724C4.78839 10.6261 5.10598 10.7259 5.53845 10.8619C5.59728 10.8804 5.65824 10.8996 5.72072 10.9199C6.1462 11.0582 6.71856 11.22 7.0161 11.2264C7.286 11.2323 7.58724 11.121 7.91982 10.8926C10.1896 9.36044 11.3613 8.58602 11.4349 8.56935C11.4868 8.55752 11.5587 8.54277 11.6074 8.58602C11.6561 8.62935 11.6513 8.71135 11.6462 8.73335C11.6147 8.86752 10.3681 10.0265 9.72289 10.6263C9.53055 10.8051 9.34305 10.9878 9.15405 11.1699C8.7588 11.5509 8.46239 11.8367 9.17047 12.3034C9.8883 12.7764 10.6116 13.2485 11.3116 13.7476C11.6569 13.9938 11.9671 14.2149 12.3503 14.1797C12.5731 14.1592 12.8031 13.9498 12.9198 13.3253C13.1959 11.8494 13.7386 8.65177 13.864 7.33404C13.875 7.2186 13.8611 7.07085 13.8501 7.006C13.839 6.94114 13.8157 6.84872 13.7315 6.78031C13.6316 6.6993 13.4775 6.68221 13.4086 6.68343C13.0951 6.68895 12.6142 6.85616 10.3 7.81874Z"
          fill="currentColor" />
</svg>
