<svg width="147" height="13" viewBox="0 0 147 13" fill="none" xmlns="http://www.w3.org/2000/svg">
    <g clip-path="url(#clip0_1704_28435)">
        <path d="M135.344 5.24738C132.156 5.12395 128.912 5.00053 125.669 4.8771C124.624 4.83596 123.525 4.83596 122.48 4.79482C120.171 4.75368 117.863 4.71254 115.554 4.67139C114.289 4.63025 112.97 4.63025 111.706 4.58911C111.321 4.58911 110.936 4.58911 110.606 4.58911C109.782 4.58911 108.957 4.58911 108.077 4.58911C104.284 4.58911 100.491 4.58911 96.6979 4.58911C95.8183 4.58911 94.8838 4.58911 94.0042 4.63025C91.7503 4.67139 89.5514 4.67139 87.2975 4.71254C84.7687 4.75368 82.2399 4.75368 79.7112 4.79482C75.6431 4.8771 71.5201 4.95939 67.4521 5.04167C65.0883 5.08281 62.7244 5.12395 60.3606 5.16509C56.2926 5.28852 52.2246 5.41194 48.1565 5.53537C45.9026 5.61765 43.7037 5.65879 41.4498 5.74108C37.2169 5.94679 32.9839 6.11135 28.751 6.27592C26.4971 6.3582 24.2432 6.44049 21.9893 6.56391C17.8113 6.81076 13.5784 7.09875 9.40042 7.38674C8.52085 7.42789 7.5863 7.51017 6.65176 7.55131C4.89262 7.67474 3.0785 7.88044 1.26438 8.04501C1.15444 8.04501 1.04449 8.08615 0.934545 8.08615C0.714652 8.08615 0.549732 8.16844 0.384813 8.29186C0.109946 8.49757 0 8.74442 0 8.99127C0 9.23812 0.109946 9.48497 0.384813 9.64953C0.604705 9.8141 0.989518 9.93753 1.26438 9.93753C3.46331 9.77296 5.60727 9.56725 7.8062 9.40269C9.84021 9.27926 11.8742 9.15583 13.9082 9.03241C16.1072 8.90899 18.3061 8.74442 20.56 8.62099C21.4396 8.57985 22.3191 8.49757 23.2537 8.45643C26.717 8.333 30.1253 8.16844 33.5886 8.04501C35.7326 7.96273 37.8765 7.88044 40.0205 7.79816C40.9001 7.75702 41.7796 7.71588 42.6592 7.67474C46.0676 7.55131 49.4759 7.46903 52.8842 7.3456C54.9732 7.30446 57.0072 7.22218 59.0962 7.18104C59.8109 7.18104 60.4705 7.13989 61.1852 7.13989C64.8684 7.05761 68.5516 7.01647 72.2348 6.93419C74.2688 6.89304 76.3578 6.8519 78.3918 6.81076C79.1065 6.81076 79.8761 6.76962 80.5907 6.76962C84.3839 6.72848 88.177 6.72848 92.0252 6.68734C94.389 6.68734 96.7529 6.64619 99.1167 6.64619C103.13 6.64619 107.198 6.64619 111.211 6.68734C111.98 6.68734 112.805 6.72848 113.575 6.72848C115.829 6.76962 118.027 6.81076 120.281 6.89304C121.931 6.93419 123.635 6.97533 125.284 7.01647C126.493 7.05761 127.648 7.09875 128.857 7.13989C132.321 7.26332 135.839 7.42789 139.302 7.59245C140.182 7.63359 141.061 7.67474 141.941 7.71588C142.875 7.75702 143.865 7.79816 144.799 7.88044C144.964 7.88044 145.074 7.92159 145.239 7.96273C145.624 8.00387 145.954 8.00387 146.284 7.8393C146.614 7.71588 146.833 7.46903 146.943 7.22218C147.163 6.68734 146.724 6.11135 145.954 5.94679C145.294 5.82336 144.635 5.78222 144.03 5.69994C143.59 5.65879 143.15 5.61765 142.71 5.61765C141.831 5.53537 140.951 5.53537 140.127 5.45309C138.587 5.41194 136.938 5.32966 135.344 5.24738Z"
              fill="url(#paint0_linear_1704_28435)"/>
    </g>
    <defs>
        <linearGradient id="paint0_linear_1704_28435" x1="-1.72021" y1="10.3265" x2="75.2416" y2="-77.0913"
                        gradientUnits="userSpaceOnUse">
            <stop stop-color="#45C45C"/>
            <stop offset="1" stop-color="#39CDA0"/>
        </linearGradient>
        <clipPath id="clip0_1704_28435">
            <rect width="147" height="12.25" fill="white" transform="translate(0 -0.0078125)"/>
        </clipPath>
    </defs>
</svg>
