<svg viewBox="0 0 40 40" fill="none" xmlns="http://www.w3.org/2000/svg">
<path opacity="0.2" d="M21.25 16.875C21.25 18.482 20.7735 20.0529 19.8807 21.389C18.9879 22.7252 17.719 23.7666 16.2343 24.3815C14.7497 24.9965 13.116 25.1574 11.5399 24.8439C9.9638 24.5304 8.51606 23.7565 7.37976 22.6202C6.24346 21.4839 5.46963 20.0362 5.15612 18.4601C4.84262 16.884 5.00352 15.2503 5.61848 13.7657C6.23344 12.281 7.27485 11.0121 8.611 10.1193C9.94714 9.22652 11.518 8.75 13.125 8.75C15.2799 8.75 17.3465 9.60602 18.8702 11.1298C20.394 12.6535 21.25 14.7201 21.25 16.875Z" fill="currentColor"/>
<path d="M18.3205 24.6749C19.9958 23.5596 21.2677 21.9347 21.9482 20.0406C22.6286 18.1465 22.6814 16.0837 22.0988 14.1572C21.5162 12.2308 20.3291 10.543 18.7131 9.34338C17.097 8.14378 15.1378 7.49609 13.1252 7.49609C11.1126 7.49609 9.15339 8.14378 7.53734 9.34338C5.9213 10.543 4.7342 12.2308 4.15159 14.1572C3.56898 16.0837 3.6218 18.1465 4.30223 20.0406C4.98266 21.9347 6.25457 23.5596 7.92989 24.6749C4.89941 25.7918 2.3113 27.8587 0.551762 30.5671C0.459287 30.7045 0.395053 30.859 0.362795 31.0215C0.330537 31.184 0.330899 31.3512 0.363858 31.5136C0.396817 31.6759 0.461717 31.8301 0.554785 31.9671C0.647853 32.1042 0.767233 32.2214 0.905985 32.3119C1.04474 32.4024 1.20009 32.4644 1.36302 32.4943C1.52596 32.5242 1.69321 32.5215 1.85507 32.4862C2.01693 32.4509 2.17016 32.3838 2.30585 32.2888C2.44155 32.1938 2.55701 32.0727 2.64551 31.9327C3.7805 30.1871 5.33357 28.7526 7.16369 27.7596C8.99382 26.7665 11.043 26.2464 13.1252 26.2464C15.2074 26.2464 17.2566 26.7665 19.0867 27.7596C20.9168 28.7526 22.4699 30.1871 23.6049 31.9327C23.7882 32.2052 24.0714 32.3946 24.3933 32.4599C24.7151 32.5253 25.0498 32.4613 25.3249 32.2819C25.6 32.1025 25.7934 31.822 25.8633 31.5011C25.9333 31.1802 25.8741 30.8447 25.6986 30.5671C23.9391 27.8587 21.351 25.7918 18.3205 24.6749ZM6.2502 16.8749C6.2502 15.5152 6.65341 14.1859 7.40885 13.0554C8.16428 11.9248 9.23801 11.0436 10.4943 10.5232C11.7505 10.0029 13.1328 9.86673 14.4664 10.132C15.8001 10.3973 17.0251 11.0521 17.9866 12.0135C18.948 12.975 19.6028 14.2 19.8681 15.5337C20.1334 16.8673 19.9972 18.2496 19.4769 19.5058C18.9565 20.7621 18.0753 21.8358 16.9447 22.5913C15.8142 23.3467 14.4849 23.7499 13.1252 23.7499C11.3025 23.7478 9.55499 23.0228 8.26612 21.734C6.97726 20.4451 6.25227 18.6976 6.2502 16.8749ZM39.0846 32.2968C38.8069 32.4778 38.4687 32.5412 38.1443 32.4729C37.82 32.4046 37.536 32.2103 37.3549 31.9327C36.2213 30.186 34.6684 28.7509 32.8379 27.7583C31.0074 26.7657 28.9575 26.2471 26.8752 26.2499C26.5437 26.2499 26.2257 26.1182 25.9913 25.8838C25.7569 25.6494 25.6252 25.3314 25.6252 24.9999C25.6252 24.6684 25.7569 24.3504 25.9913 24.116C26.2257 23.8816 26.5437 23.7499 26.8752 23.7499C27.8877 23.7489 28.8874 23.5244 29.803 23.0923C30.7186 22.6601 31.5275 22.0311 32.1718 21.2502C32.8161 20.4692 33.28 19.5556 33.5303 18.5745C33.7806 17.5935 33.8111 16.5693 33.6197 15.5751C33.4283 14.5809 33.0197 13.6413 32.423 12.8233C31.8264 12.0054 31.0564 11.3293 30.1682 10.8434C29.2799 10.3575 28.2954 10.0738 27.2848 10.0125C26.2742 9.95123 25.2625 10.1139 24.3221 10.489C24.1687 10.5552 24.0037 10.5901 23.8366 10.5915C23.6696 10.5929 23.504 10.5609 23.3495 10.4972C23.1951 10.4335 23.055 10.3395 22.9375 10.2208C22.82 10.102 22.7275 9.96092 22.6655 9.80582C22.6034 9.65072 22.5731 9.48476 22.5763 9.31774C22.5795 9.15072 22.6161 8.98604 22.684 8.83342C22.7519 8.6808 22.8497 8.54333 22.9717 8.42915C23.0936 8.31498 23.2372 8.2264 23.394 8.16865C25.5462 7.31029 27.9401 7.2794 30.1139 8.08194C32.2876 8.88448 34.0871 10.4636 35.1652 12.5146C36.2433 14.5656 36.5237 16.9433 35.9522 19.1888C35.3808 21.4344 33.9979 23.3888 32.0705 24.6749C35.101 25.7918 37.6891 27.8587 39.4486 30.5671C39.6297 30.8447 39.6931 31.183 39.6248 31.5073C39.5565 31.8317 39.3622 32.1157 39.0846 32.2968Z" fill="currentColor"/>
</svg>
