<svg viewBox="0 0 40 40" fill="none" xmlns="http://www.w3.org/2000/svg">
<path d="M35.2896 16.0676C34.7006 15.452 34.0912 14.8176 33.8615 14.2598C33.649 13.7488 33.6365 12.902 33.624 12.0816C33.6006 10.5566 33.5756 8.82852 32.374 7.62695C31.1725 6.42539 29.4443 6.40039 27.9193 6.37695C27.099 6.36445 26.2521 6.35195 25.7412 6.13945C25.185 5.90977 24.549 5.30039 23.9334 4.71133C22.8553 3.67539 21.6303 2.50195 19.999 2.50195C18.3678 2.50195 17.1443 3.67539 16.0646 4.71133C15.449 5.30039 14.8146 5.90977 14.2568 6.13945C13.749 6.35195 12.899 6.36445 12.0787 6.37695C10.5537 6.40039 8.82559 6.42539 7.62402 7.62695C6.42246 8.82852 6.40527 10.5566 6.37402 12.0816C6.36152 12.902 6.34902 13.7488 6.13652 14.2598C5.90684 14.816 5.29746 15.452 4.7084 16.0676C3.67246 17.1457 2.49902 18.3707 2.49902 20.002C2.49902 21.6332 3.67246 22.8566 4.7084 23.9363C5.29746 24.552 5.90684 25.1863 6.13652 25.7441C6.34902 26.2551 6.36152 27.102 6.37402 27.9223C6.39746 29.4473 6.42246 31.1754 7.62402 32.377C8.82559 33.5785 10.5537 33.6035 12.0787 33.627C12.899 33.6395 13.7459 33.652 14.2568 33.8645C14.8131 34.0941 15.449 34.7035 16.0646 35.2926C17.1428 36.3285 18.3678 37.502 19.999 37.502C21.6303 37.502 22.8537 36.3285 23.9334 35.2926C24.549 34.7035 25.1834 34.0941 25.7412 33.8645C26.2521 33.652 27.099 33.6395 27.9193 33.627C29.4443 33.6035 31.1725 33.5785 32.374 32.377C33.5756 31.1754 33.6006 29.4473 33.624 27.9223C33.6365 27.102 33.649 26.2551 33.8615 25.7441C34.0912 25.1879 34.7006 24.552 35.2896 23.9363C36.3256 22.8582 37.499 21.6332 37.499 20.002C37.499 18.3707 36.3256 17.1473 35.2896 16.0676ZM33.485 22.2066C32.7365 22.9879 31.9615 23.7957 31.5506 24.7879C31.1568 25.741 31.1396 26.8301 31.124 27.8848C31.1084 28.9785 31.0912 30.1238 30.6053 30.6082C30.1193 31.0926 28.9818 31.1113 27.8818 31.127C26.8271 31.1426 25.7381 31.1598 24.785 31.5535C23.7928 31.9645 22.985 32.7395 22.2037 33.4879C21.4225 34.2363 20.624 35.002 19.999 35.002C19.374 35.002 18.5693 34.2332 17.7943 33.4879C17.0193 32.7426 16.2053 31.9645 15.2131 31.5535C14.26 31.1598 13.1709 31.1426 12.1162 31.127C11.0225 31.1113 9.87715 31.0941 9.39277 30.6082C8.9084 30.1223 8.88965 28.9848 8.87402 27.8848C8.8584 26.8301 8.84121 25.741 8.44746 24.7879C8.03652 23.7957 7.26152 22.9879 6.51309 22.2066C5.76465 21.4254 4.99902 20.627 4.99902 20.002C4.99902 19.377 5.76777 18.5723 6.51309 17.7973C7.2584 17.0223 8.03652 16.2082 8.44746 15.216C8.84121 14.2629 8.8584 13.1738 8.87402 12.1191C8.88965 11.0254 8.90684 9.88008 9.39277 9.3957C9.87871 8.91133 11.0162 8.89258 12.1162 8.87695C13.1709 8.86133 14.26 8.84414 15.2131 8.45039C16.2053 8.03945 17.0131 7.26445 17.7943 6.51602C18.5756 5.76758 19.374 5.00195 19.999 5.00195C20.624 5.00195 21.4287 5.7707 22.2037 6.51602C22.9787 7.26133 23.7928 8.03945 24.785 8.45039C25.7381 8.84414 26.8271 8.86133 27.8818 8.87695C28.9756 8.89258 30.1209 8.90977 30.6053 9.3957C31.0896 9.88164 31.1084 11.0191 31.124 12.1191C31.1396 13.1738 31.1568 14.2629 31.5506 15.216C31.9615 16.2082 32.7365 17.016 33.485 17.7973C34.2334 18.5785 34.999 19.377 34.999 20.002C34.999 20.627 34.2303 21.4316 33.485 22.2066ZM27.1334 15.3676C27.2496 15.4837 27.3418 15.6215 27.4047 15.7733C27.4676 15.925 27.5 16.0877 27.5 16.252C27.5 16.4162 27.4676 16.5789 27.4047 16.7306C27.3418 16.8824 27.2496 17.0202 27.1334 17.1363L18.3834 25.8863C18.2673 26.0026 18.1294 26.0947 17.9777 26.1577C17.826 26.2206 17.6633 26.2529 17.499 26.2529C17.3348 26.2529 17.1721 26.2206 17.0203 26.1577C16.8686 26.0947 16.7307 26.0026 16.6146 25.8863L12.8646 22.1363C12.6301 21.9018 12.4983 21.5837 12.4983 21.252C12.4983 20.9202 12.6301 20.6021 12.8646 20.3676C13.0992 20.133 13.4173 20.0013 13.749 20.0013C14.0807 20.0013 14.3988 20.133 14.6334 20.3676L17.499 23.2348L25.3646 15.3676C25.4807 15.2514 25.6186 15.1592 25.7703 15.0963C25.9221 15.0333 26.0848 15.001 26.249 15.001C26.4133 15.001 26.576 15.0333 26.7277 15.0963C26.8794 15.1592 27.0173 15.2514 27.1334 15.3676Z" fill="currentColor"/>
</svg>
