<svg aria-hidden="true" style="position: absolute; width: 0; height: 0; overflow: hidden;" version="1.1" xmlns="http://www.w3.org/2000/svg" xmlns:xlink="http://www.w3.org/1999/xlink">
<defs>
<symbol id="icon-access" fill="currentColor" viewBox="0 0 32 32">
<path d="M4.783 27.217c0.468 0.483 1.123 0.783 1.847 0.783 0.013 0 0.026-0 0.039-0l-0.002 0h18.667c0.011 0 0.024 0 0.037 0 0.725 0 1.379-0.3 1.847-0.783l0.001-0.001c0.483-0.468 0.782-1.122 0.782-1.846 0-0.013-0-0.026-0-0.040l0 0.002v-18.666c0-0.011 0-0.024 0-0.037 0-0.725-0.3-1.379-0.783-1.847l-0.001-0.001c-0.468-0.483-1.123-0.783-1.847-0.783-0.013 0-0.026 0-0.039 0l0.002-0h-18.666c-0.011-0-0.024-0-0.037-0-0.725 0-1.379 0.3-1.847 0.783l-0.001 0.001c-0.483 0.468-0.783 1.123-0.783 1.847 0 0.013 0 0.026 0 0.039l-0-0.002v5.761h2.667v-5.761h18.667v18.667h-18.667v-4.906h-2.667v4.906c-0 0.011-0 0.024-0 0.037 0 0.725 0.3 1.379 0.783 1.847l0.001 0.001z"></path>
<path d="M12.4 23.033c-0.238-0.23-0.385-0.551-0.385-0.907 0-0.021 0.001-0.042 0.002-0.063l-0 0.003c0.006-0.38 0.165-0.721 0.417-0.967l3.767-3.767h-14.867c-0.010 0-0.021 0-0.032 0-0.359 0-0.685-0.147-0.919-0.384l-0-0c-0.254-0.254-0.382-0.57-0.382-0.948s0.128-0.695 0.383-0.951 0.573-0.383 0.951-0.383h14.866l-3.8-3.8c-0.267-0.267-0.4-0.584-0.4-0.951s0.133-0.683 0.4-0.949 0.584-0.4 0.951-0.4 0.683 0.133 0.949 0.4l6.1 6.1c0.133 0.133 0.228 0.278 0.284 0.433s0.083 0.322 0.083 0.5-0.028 0.345-0.083 0.5-0.151 0.3-0.284 0.433l-6.133 6.133c-0.245 0.244-0.55 0.367-0.916 0.367-0.004 0-0.008 0-0.013 0-0.368 0-0.701-0.153-0.938-0.4l-0-0z"></path>
</symbol>
<symbol id="icon-interoperability" fill="none" stroke="currentColor" viewBox="0 0 32 32">
<path fill="currentColor" stroke="none" d="M10.422 13.162c0.61 0 1.105-0.495 1.105-1.105v-3.623c0-0.515 0.355-0.961 0.857-1.077l8.088-1.866c0.055-0.013 0.117-0.020 0.182-0.020 0.452 0 0.819 0.366 0.82 0.817v0c0 0.312 0.184 0.587 0.431 0.778 0.086 0.066 0.169 0.139 0.247 0.217 0.162 0.16 0.386 0.259 0.632 0.259 0.496 0 0.898-0.401 0.9-0.896v-2.776c0-0.711-0.661-1.237-1.354-1.077l-12.158 2.806c-0.501 0.116-0.857 0.562-0.857 1.077v5.382c0 0.61 0.495 1.105 1.105 1.105zM11.527 19.429c0-0.61-0.495-1.105-1.105-1.105s-1.105 0.495-1.105 1.105v5.382c0 0.515 0.355 0.961 0.857 1.077l12.158 2.806c0.692 0.16 1.354-0.366 1.354-1.077v-2.775c-0.002-0.495-0.404-0.896-0.9-0.896-0.246 0-0.47 0.099-0.632 0.259l0-0c-0.076 0.076-0.156 0.147-0.241 0.213l-0.006 0.004c-0.247 0.19-0.431 0.466-0.431 0.777-0.001 0.452-0.368 0.817-0.82 0.817-0.065 0-0.127-0.007-0.188-0.022l0.006 0.001-8.088-1.866c-0.502-0.116-0.857-0.562-0.857-1.077v-3.623z"></path>
<path stroke-linejoin="round" stroke-linecap="round" stroke-miterlimit="4" stroke-width="2.947" d="M20.335 9.112l6.666 6.631M27.001 15.743l-6.666 6.631M27.001 15.743h-20.999"></path>
<path stroke-linejoin="round" stroke-linecap="round" stroke-miterlimit="4" stroke-width="2.947" d="M20.336 9.112l6.666 6.631M27.002 15.743l-6.666 6.631M27.002 15.743v0"></path>
</symbol>
<symbol id="icon-key" fill="currentColor" viewBox="0 0 32 32">
<path d="M9.333 18.667c-0.011 0-0.025 0-0.039 0-0.724 0-1.378-0.3-1.843-0.784l-0.001-0.001c-0.484-0.466-0.784-1.12-0.784-1.844 0-0.014 0-0.027 0-0.041l-0 0.002c0-0.733 0.261-1.361 0.784-1.884s1.149-0.783 1.883-0.783 1.361 0.261 1.883 0.783 0.784 1.151 0.784 1.884c0 0.011 0 0.025 0 0.039 0 0.724-0.3 1.378-0.784 1.843l-0.001 0.001c-0.466 0.484-1.12 0.784-1.844 0.784-0.014 0-0.027-0-0.041-0l0.002 0zM9.333 24c-2.223 0-4.111-0.777-5.667-2.333s-2.333-3.444-2.333-5.667 0.777-4.111 2.333-5.667 3.444-2.333 5.667-2.333c1.489 0 2.839 0.367 4.051 1.1s2.172 1.7 2.883 2.9h11.167c0 0 0 0 0 0 0.186 0 0.364 0.037 0.526 0.103l-0.009-0.003c0.175 0.072 0.325 0.174 0.449 0.3l2.667 2.667c0.133 0.133 0.228 0.277 0.284 0.433s0.083 0.323 0.083 0.5-0.028 0.344-0.083 0.5-0.151 0.3-0.284 0.433l-4.233 4.233c-0.111 0.111-0.244 0.2-0.4 0.267s-0.311 0.111-0.467 0.133c-0.047 0.007-0.101 0.011-0.156 0.011-0.111 0-0.217-0.016-0.318-0.046l0.008 0.002c-0.156-0.044-0.3-0.123-0.433-0.233l-1.733-1.3-1.9 1.433c-0.111 0.089-0.233 0.156-0.367 0.2s-0.267 0.067-0.4 0.067-0.272-0.023-0.416-0.067-0.273-0.111-0.384-0.2l-2.033-1.433h-1.567c-0.711 1.2-1.672 2.167-2.883 2.9s-2.561 1.1-4.051 1.1zM9.333 21.333c1.244 0 2.339-0.377 3.284-1.133s1.572-1.711 1.883-2.867h4.167l1.933 1.367 2.733-2.033 2.367 1.833 2.5-2.5-1.333-1.333h-12.367c-0.311-1.156-0.939-2.111-1.883-2.867s-2.040-1.133-3.284-1.133c-0.022-0-0.048-0.001-0.074-0.001-1.449 0-2.758 0.6-3.691 1.566l-0.001 0.001c-0.967 0.935-1.567 2.243-1.567 3.692 0 0.026 0 0.052 0.001 0.078l-0-0.004c-0 0.022-0.001 0.048-0.001 0.074 0 1.449 0.6 2.758 1.566 3.691l0.001 0.001c0.935 0.967 2.243 1.567 3.692 1.567 0.026 0 0.052-0 0.078-0.001l-0.004 0z"></path>
</symbol>
<symbol id="icon-liquidity" fill="currentColor" viewBox="0 0 32 32">
<path d="M16.001 30.667c-2.489 0-4.778-0.567-6.867-1.7s-3.8-2.644-5.133-4.533v2.233c0 0.378-0.128 0.694-0.383 0.949-0.234 0.237-0.559 0.384-0.919 0.384-0.011 0-0.023-0-0.034-0l0.002 0c-0.378 0-0.694-0.128-0.949-0.384s-0.384-0.572-0.384-0.949v-5.333c-0-0.010-0-0.021-0-0.032 0-0.359 0.147-0.685 0.384-0.919l0-0c0.255-0.255 0.572-0.383 0.949-0.383h5.333c0.378 0 0.695 0.128 0.951 0.383s0.383 0.573 0.383 0.951-0.128 0.694-0.383 0.949c-0.234 0.237-0.559 0.384-0.919 0.384-0.011 0-0.023-0-0.034-0l0.002 0h-1.966c1.067 1.6 2.472 2.889 4.217 3.867s3.661 1.466 5.75 1.466c3.111 0 5.795-1.022 8.051-3.067 2.143-1.9 3.577-4.559 3.879-7.551l0.004-0.049c0.038-0.374 0.203-0.704 0.451-0.951l0-0c0.255-0.255 0.572-0.383 0.949-0.383 0.008-0 0.018-0 0.028-0 0.363 0 0.691 0.154 0.921 0.4l0.001 0.001c0.256 0.267 0.362 0.578 0.317 0.933-0.156 1.867-0.65 3.611-1.483 5.233s-1.9 3.033-3.2 4.233-2.801 2.144-4.501 2.833-3.505 1.033-5.416 1.033zM2.667 16c-0.008 0-0.018 0-0.028 0-0.363 0-0.691-0.154-0.921-0.4l-0.001-0.001c-0.256-0.267-0.362-0.578-0.317-0.933 0.178-1.867 0.678-3.611 1.5-5.233s1.883-3.034 3.182-4.234 2.801-2.144 4.501-2.833 3.505-1.033 5.416-1.033c2.489 0 4.778 0.567 6.867 1.7s3.8 2.644 5.133 4.533v-2.233c-0-0.010-0-0.021-0-0.032 0-0.359 0.147-0.685 0.384-0.919l0-0c0.255-0.255 0.572-0.383 0.949-0.383s0.694 0.128 0.949 0.383c0.237 0.234 0.384 0.559 0.384 0.919 0 0.011-0 0.023-0 0.034l0-0.002v5.333c0 0.378-0.128 0.694-0.384 0.949s-0.572 0.384-0.949 0.384h-5.333c-0.378 0-0.694-0.128-0.949-0.384s-0.384-0.572-0.384-0.949c-0-0.010-0-0.021-0-0.032 0-0.359 0.147-0.685 0.384-0.919l0-0c0.255-0.255 0.572-0.383 0.949-0.383h1.967c-1.067-1.6-2.472-2.889-4.217-3.867s-3.66-1.466-5.749-1.466c-3.111 0-5.794 1.022-8.049 3.067s-3.551 4.578-3.884 7.6c-0.038 0.373-0.202 0.702-0.449 0.949v0c-0.234 0.237-0.559 0.384-0.919 0.384-0.011 0-0.023-0-0.034-0l0.002 0z"></path>
<path d="M16.090 19.95l-5.318-3.142 5.318 7.497 5.323-7.497-5.322 3.142zM16.171 6.972l-5.32 8.828 5.319 3.145 5.319-3.142-5.318-8.831z"></path>
</symbol>
<symbol id="icon-on-chain-verification" fill="currentColor" viewBox="0 0 32 32">
<path d="M20.217 24.241c-0.133 0-0.259-0.021-0.375-0.063s-0.225-0.112-0.325-0.212l-4.3-4.3c-0.183-0.184-0.271-0.421-0.263-0.713s0.105-0.528 0.288-0.712c0.171-0.17 0.407-0.275 0.667-0.275 0.011 0 0.023 0 0.034 0.001l-0.002-0c0.010-0 0.021-0.001 0.033-0.001 0.26 0 0.496 0.105 0.667 0.275l3.575 3.575 8.475-8.475c0.183-0.184 0.421-0.275 0.713-0.275s0.528 0.092 0.712 0.275 0.275 0.421 0.275 0.712-0.092 0.529-0.275 0.713l-9.2 9.2c-0.1 0.1-0.208 0.171-0.325 0.212s-0.241 0.063-0.375 0.063z"></path>
<path d="M4.617 19.383c1.3 1.3 2.872 1.951 4.716 1.951h4c0.253 0 0.48-0.057 0.679-0.173-0.5-0.688-0.697-1.501-0.677-2.273v-0.007l0.012-0.213h-4.013c-0.021 0-0.046 0.001-0.070 0.001-1.083 0-2.062-0.447-2.762-1.166l-0.001-0.001c-0.72-0.701-1.167-1.68-1.167-2.763 0-0.025 0-0.050 0.001-0.074l-0 0.004c-0-0.021-0.001-0.046-0.001-0.070 0-1.083 0.447-2.062 1.166-2.762l0.001-0.001c0.701-0.72 1.68-1.167 2.763-1.167 0.025 0 0.050 0 0.074 0.001l-0.004-0h4c0.377 0 0.695-0.128 0.951-0.384s0.383-0.572 0.383-0.949c0-0.012 0.001-0.026 0.001-0.041 0-0.714-0.579-1.293-1.293-1.293-0.014 0-0.029 0-0.043 0.001l0.002-0h-4c-1.844 0-3.416 0.649-4.716 1.949s-1.951 2.873-1.951 4.717 0.651 3.416 1.951 4.716zM18.445 16c-0.56-0.401-1.197-0.584-1.827-0.584s-1.268 0.183-1.827 0.584h-2.792c-0.377 0-0.695-0.128-0.949-0.384s-0.384-0.572-0.384-0.949 0.128-0.695 0.384-0.951 0.572-0.383 0.949-0.383h8c0.012-0 0.026-0.001 0.041-0.001 0.714 0 1.293 0.579 1.293 1.293 0 0.014-0 0.029-0.001 0.043l0-0.002c0 0.377-0.128 0.695-0.383 0.949s-0.573 0.384-0.951 0.384h-1.555zM28.064 10.733c-0.671 0.142-1.248 0.482-1.68 0.955l-0.002 0.002-0.516 0.557c-0.111-0.143-0.232-0.281-0.365-0.413-0.701-0.721-1.68-1.169-2.764-1.169-0.024 0-0.049 0-0.073 0.001l0.004-0h-4c-0.377 0-0.695-0.128-0.949-0.384s-0.384-0.572-0.384-0.949 0.128-0.695 0.384-0.951 0.572-0.383 0.949-0.383h4c0.032-0.001 0.069-0.001 0.106-0.001 1.808 0 3.442 0.747 4.61 1.949l0.002 0.002c0.251 0.251 0.477 0.512 0.68 0.784z"></path>
<path stroke-linejoin="miter" stroke-linecap="butt" stroke-miterlimit="4" stroke-width="0.5333" d="M19.752 24.429c0.148 0.053 0.303 0.079 0.464 0.079s0.317-0.025 0.464-0.079c0.159-0.056 0.3-0.151 0.424-0.275l9.2-9.2c0.24-0.24 0.353-0.548 0.353-0.901s-0.113-0.661-0.353-0.9-0.548-0.353-0.9-0.353-0.661 0.113-0.901 0.353l-8.287 8.287-3.387-3.387c-0.219-0.219-0.522-0.354-0.856-0.354-0.011 0-0.022 0-0.033 0l0.002-0c-0.009-0-0.021-0-0.032-0-0.334 0-0.637 0.135-0.856 0.354l0-0c-0.237 0.237-0.356 0.543-0.365 0.892v0.001c-0.009 0.355 0.099 0.667 0.341 0.909l4.3 4.3c0.124 0.124 0.265 0.219 0.424 0.275zM19.752 24.429h-0.001zM20.216 21.816l0.188-0.188h-0.377l0.188 0.188z"></path>
</symbol>
<symbol id="icon-transaction-bundling" fill="none" stroke="currentColor" viewBox="0 0 32 32">
<path stroke-linejoin="round" stroke-linecap="round" stroke-miterlimit="4" stroke-width="2.6667" d="M5.333 28.267c0-4.48 0-6.72 0.872-8.432 0.782-1.512 1.984-2.714 3.451-3.475l0.045-0.021c1.712-0.872 3.952-0.872 8.432-0.872M18.133 15.467h8.533M18.133 15.467c-4.48 0-6.72 0-8.432-0.872-1.512-0.782-2.714-1.984-3.475-3.451l-0.021-0.045c-0.872-1.712-0.872-3.952-0.872-8.432M26.667 15.467l-6.667 6.667M26.667 15.467l-6.667-6.667"></path>
</symbol>
<symbol id="icon-arrow-right" fill="currentColor" viewBox="0 0 32 32">
<path d="M20 28l-2.8-2.9 7.1-7.1h-24.3v-4h24.3l-7.1-7.1 2.8-2.9 12 12-12 12z"></path>
</symbol>
<symbol id="icon-avalanche" fill="currentColor" viewBox="0 0 32 32">
<path fill="none" d="M25.867 5.489h-19.758v17.957h19.758v-17.957z"></path>
<path d="M31.99 16c0 8.825-7.159 15.979-15.989 15.979s-15.989-7.154-15.989-15.979 7.158-15.979 15.989-15.979 15.989 7.154 15.989 15.979zM11.469 22.361c0.731 0 1.096 0 1.422-0.090 0.358-0.107 0.684-0.295 0.955-0.554 0.249-0.237 0.429-0.551 0.783-1.171l4.035-7.128c0.358-0.624 0.534-0.938 0.613-1.268l-0.003 0.016c0.044-0.18 0.068-0.368 0.068-0.562s-0.024-0.382-0.065-0.546c-0.078-0.327-0.257-0.639-0.609-1.254l-1.583-2.762c-0.326-0.573-0.491-0.86-0.699-0.966l0.004 0.002c-0.108-0.056-0.231-0.088-0.362-0.088s-0.254 0.032-0.357 0.086c-0.208 0.106-0.373 0.393-0.699 0.966l-7.662 13.496c-0.322 0.565-0.483 0.847-0.471 1.079l0 0.002c0.015 0.256 0.152 0.479 0.357 0.614 0.197 0.125 0.519 0.125 1.171 0.125h3.103zM19.306 22.359h4.446c0.656 0 0.986 0 1.183-0.129 0.212-0.138 0.346-0.369 0.357-0.62 0.011-0.224-0.146-0.496-0.455-1.028l-0.032-0.055-2.252-3.851c-0.313-0.529-0.471-0.796-0.674-0.899-0.224-0.114-0.487-0.114-0.711 0-0.204 0.106-0.369 0.385-0.695 0.946l-2.227 3.821c-0.325 0.56-0.487 0.841-0.476 1.070 0.016 0.251 0.145 0.483 0.357 0.62 0.192 0.125 0.522 0.125 1.178 0.125z"></path>
</symbol>
<symbol id="icon-binance" fill="currentColor" viewBox="0 0 32 32">
<path d="M9.789 13.446l6.215-6.212 6.218 6.218 3.614-3.617-9.832-9.835-9.832 9.832 3.617 3.614zM0 16l3.615-3.615 3.616 3.615-3.615 3.615-3.616-3.615zM9.786 18.554l6.215 6.215 6.217-6.217 3.617 3.612-9.834 9.836-9.837-9.834 3.622-3.612zM24.77 16.002l3.616-3.616 3.614 3.616-3.615 3.615-3.616-3.615zM19.672 15.999l-3.667-3.67-3.672 3.67 0.005 0.008 3.667 3.665 3.667-3.673z"></path>
</symbol>
<symbol id="icon-chevron-down" fill="currentColor" viewBox="0 0 32 32">
<path d="M16 26.333l-16-16 3.733-3.733 12.267 12.267 12.267-12.267 3.733 3.733-16 16z"></path>
</symbol>
<symbol id="icon-cross" viewBox="0 0 32 32">
<path d="M15.997 19.112l-10.891 10.888c-0.381 0.378-0.905 0.612-1.484 0.612-0.025 0-0.049-0-0.074-0.001l0.004 0c-0.021 0.001-0.046 0.001-0.070 0.001-0.579 0-1.104-0.234-1.485-0.612l0 0c-0.378-0.381-0.612-0.905-0.612-1.484 0-0.025 0-0.049 0.001-0.074l-0 0.004c-0.001-0.021-0.001-0.046-0.001-0.070 0-0.579 0.234-1.104 0.612-1.485l10.888-10.891-10.888-10.888c-0.378-0.381-0.612-0.905-0.612-1.484 0-0.025 0-0.049 0.001-0.074l-0 0.004c-0.001-0.022-0.001-0.047-0.001-0.073 0-0.579 0.234-1.104 0.612-1.485l-0 0c0.381-0.378 0.905-0.612 1.484-0.612 0.025 0 0.049 0 0.074 0.001l-0.004-0c0.021-0.001 0.046-0.001 0.070-0.001 0.579 0 1.104 0.234 1.485 0.612l10.888 10.888 10.891-10.888c0.381-0.378 0.905-0.612 1.484-0.612 0.025 0 0.049 0 0.074 0.001l-0.004-0c0.021-0.001 0.046-0.001 0.070-0.001 0.579 0 1.104 0.234 1.485 0.612l-0-0c0.378 0.381 0.612 0.905 0.612 1.484 0 0.025-0 0.049-0.001 0.074l0-0.004c0.001 0.021 0.001 0.046 0.001 0.070 0 0.579-0.234 1.104-0.612 1.485l-10.888 10.891 10.888 10.888c0.378 0.381 0.612 0.905 0.612 1.484 0 0.025-0 0.049-0.001 0.074l0-0.004c0.001 0.019 0.001 0.040 0.001 0.062 0 1.163-0.943 2.107-2.107 2.107-0.021 0-0.042-0-0.063-0.001l0.003 0c-0.021 0.001-0.046 0.001-0.070 0.001-0.579 0-1.104-0.234-1.485-0.612l-10.888-10.888z"></path>
</symbol>
<symbol id="icon-discord" fill="currentColor" viewBox="0 0 32 32">
<path d="M18.917 19.17l-0.738 0.158c-0.598 0.118-1.286 0.186-1.99 0.186-0.732 0-1.447-0.073-2.138-0.212l0.069 0.012-0.995-0.241-1.403 1.824c-3.464-0.111-4.78-2.432-4.78-2.432 0-5.152 2.257-9.329 2.257-9.329 2.257-1.726 4.404-1.679 4.404-1.679l0.614 0.8c0.049-0.007 0.108-0.013 0.167-0.015l0.003-0c1.17-0.155 2.357-0.149 3.526 0.015l0.674-0.8s2.149-0.047 4.404 1.681c0.053 3.407 0.882 6.608 2.315 9.452l-0.057-0.125s-1.333 2.319-4.797 2.432l-1.534-1.726zM13.068 13.714c-0.916 0-1.64 0.686-1.64 1.524s0.739 1.524 1.64 1.524c0.914 0 1.638-0.686 1.638-1.524 0.015-0.838-0.722-1.524-1.638-1.524zM18.932 13.714c-0.914 0-1.638 0.686-1.638 1.524s0.739 1.524 1.638 1.524c0.916 0 1.64-0.686 1.64-1.524s-0.724-1.524-1.64-1.524zM29.714 32l-7.604-7.619h4.556v-21.333h-21.333v21.333h16.766l0.869 3.048h-17.635c-1.683 0-3.048-1.364-3.048-3.048v0-21.333c0-0.841 0.341-1.603 0.893-2.155v0c0.551-0.552 1.313-0.893 2.155-0.893h21.333c1.683 0 3.048 1.364 3.048 3.048v0 28.952z"></path>
</symbol>
<symbol id="icon-edit" fill="currentColor" viewBox="0 0 32 32">
<path d="M8.001 29.333c-.733 0-1.361-.261-1.883-.783s-.784-1.151-.784-1.884V5.333c0-.733.261-1.361.784-1.884s1.149-.783 1.883-.783h9.567a2.64 2.64 0 0 1 1.017.2c.322.133.605.322.849.567L25.901 9.9a2.59 2.59 0 0 1 .567.849c.133.323.2.662.2 1.017V16h-2.667v-4h-5.333c-.378 0-.694-.128-.949-.384s-.384-.572-.384-.949V5.333H8.001v21.333h8v2.667h-8zm16.4-9.967l1.433 1.433-5.167 5.133v1.4h1.4l5.167-5.133 1.4 1.4-5.333 5.333a1.33 1.33 0 0 1-.451.3c-.166.067-.338.1-.516.1h-3a.64.64 0 0 1-.467-.2.64.64 0 0 1-.2-.467v-3c0-.178.033-.35.1-.516a1.33 1.33 0 0 1 .3-.451l5.333-5.333zm4.233 4.233l-4.233-4.233 1.933-1.933c.244-.244.556-.367.933-.367s.689.122.933.367l2.367 2.367c.245.244.367.556.367.933s-.122.689-.367.933L28.634 23.6z"/>
</symbol>
<symbol id="icon-ethereum" fill="currentColor" viewBox="0 0 32 32">
<path d="M6.555 14.338l9.433-3.976 9.143 4.078-9.158-14.44-9.418 14.338zM6.584 18.75l9.419 5.457 9.607-5.457-9.521 13.25-9.505-13.25zM16.028 12.307l-9.825 4.136 9.825 5.457 9.549-5.341-9.549-4.252z"></path>
</symbol>
<symbol id="icon-menu" viewBox="0 0 32 32">
<path d="M2.666 26c-0.472 0-0.868-0.16-1.186-0.48s-0.48-0.714-0.48-1.186 0.16-0.868 0.48-1.186 0.714-0.48 1.186-0.48h26.666c0.472 0 0.868 0.16 1.186 0.48s0.48 0.714 0.48 1.186-0.16 0.868-0.48 1.186-0.714 0.48-1.186 0.48h-26.666zM2.666 17.666c-0.472 0-0.868-0.16-1.186-0.48s-0.48-0.714-0.48-1.186 0.16-0.868 0.48-1.188 0.714-0.478 1.186-0.478h26.666c0.472 0 0.868 0.16 1.186 0.478s0.48 0.716 0.48 1.188-0.16 0.868-0.48 1.186-0.714 0.48-1.186 0.48h-26.666zM2.666 9.332c-0.472 0-0.868-0.16-1.186-0.478s-0.48-0.716-0.48-1.188 0.16-0.868 0.48-1.188 0.714-0.478 1.186-0.478h26.666c0.472 0 0.868 0.16 1.186 0.478s0.48 0.716 0.48 1.188-0.16 0.868-0.48 1.188-0.714 0.478-1.186 0.478h-26.666z"></path>
</symbol>
<symbol id="icon-messages" fill="none" stroke="currentColor" viewBox="0 0 32 32">
<path stroke-linejoin="round" stroke-linecap="round" stroke-miterlimit="4" stroke-width="2.7826" d="M7.087 14.927c-0.083-0.512-0.131-1.101-0.131-1.702 0-0.003 0-0.005 0-0.008v0c0-6.147 5.016-11.13 11.204-11.13s11.204 4.984 11.204 11.13c0 1.389-0.256 2.719-0.723 3.944-0.097 0.255-0.146 0.381-0.168 0.481s-0.031 0.168-0.033 0.269 0.011 0.214 0.039 0.438l0.559 4.55c0.061 0.493 0.090 0.739 0.008 0.918-0.073 0.157-0.198 0.28-0.353 0.347l-0.004 0.002c-0.181 0.078-0.426 0.042-0.917-0.031l-4.431-0.65c-0.231-0.033-0.346-0.051-0.452-0.050-0.003-0-0.006-0-0.009-0-0.095 0-0.188 0.011-0.277 0.031l0.008-0.002c-0.103 0.022-0.235 0.071-0.498 0.17-1.17 0.451-2.523 0.712-3.938 0.712-0.005 0-0.009 0-0.014 0h0.001c-0.582 0-1.153-0.045-1.711-0.129M9.227 29.913c4.124 0 7.469-3.425 7.469-7.652s-3.345-7.652-7.469-7.652-7.469 3.425-7.469 7.652c0 0.85 0.135 1.667 0.384 2.431 0.106 0.323 0.159 0.484 0.175 0.594 0.011 0.061 0.018 0.131 0.018 0.203 0 0.033-0.001 0.065-0.004 0.097l0-0.004c-0.007 0.111-0.035 0.238-0.090 0.49l-0.85 3.841 4.167-0.569c0.227-0.031 0.341-0.047 0.441-0.046s0.16 0.007 0.263 0.026c0.216 0.057 0.393 0.116 0.565 0.184l-0.033-0.012c0.762 0.27 1.582 0.416 2.433 0.416z"></path>
</symbol>
<symbol id="icon-monetization" fill="currentColor" viewBox="0 0 32 32">
<path d="M15.96 27.2c0.002 0 0.004 0 0.006 0 0.384 0 0.73-0.161 0.975-0.419l0.001-0.001c0.258-0.245 0.419-0.592 0.419-0.975 0-0.002 0-0.004 0-0.006v0-0.6c1.333-0.24 2.48-0.76 3.44-1.56s1.44-1.987 1.44-3.56c0-0.009 0-0.019 0-0.029 0-1.142-0.359-2.2-0.971-3.068l0.011 0.017c-0.64-0.933-1.92-1.747-3.84-2.44-1.6-0.533-2.707-1-3.32-1.4s-0.92-0.947-0.92-1.64 0.246-1.24 0.741-1.64 1.206-0.6 2.139-0.6c0.021-0.001 0.047-0.001 0.072-0.001 0.481 0 0.937 0.103 1.349 0.289l-0.021-0.008c0.396 0.183 0.73 0.44 0.997 0.756l0.003 0.004c0.267 0.32 0.566 0.541 0.901 0.661s0.646 0.112 0.939-0.021c0.4-0.16 0.674-0.434 0.821-0.821 0.057-0.129 0.091-0.28 0.091-0.438 0-0.232-0.072-0.447-0.194-0.625l0.002 0.004c-0.427-0.613-0.954-1.133-1.579-1.56-0.567-0.399-1.259-0.66-2.007-0.719l-0.014-0.001v-0.6c0-0.001 0-0.003 0-0.004 0-0.384-0.161-0.731-0.42-0.976l-0.001-0.001c-0.28-0.28-0.606-0.419-0.979-0.419s-0.699 0.139-0.979 0.419c-0.259 0.246-0.421 0.592-0.421 0.977 0 0.001 0 0.003 0 0.004v-0 0.6c-1.333 0.293-2.373 0.88-3.12 1.76s-1.12 1.867-1.12 2.96c0 1.253 0.366 2.267 1.101 3.040s1.886 1.44 3.459 2c1.68 0.613 2.846 1.16 3.501 1.64s0.979 1.107 0.979 1.88c0 0.88-0.314 1.526-0.941 1.939s-1.379 0.621-2.259 0.621c-0.014 0-0.031 0-0.048 0-0.676 0-1.308-0.186-1.849-0.51l0.016 0.009c-0.56-0.333-1.027-0.832-1.4-1.499-0.213-0.373-0.493-0.627-0.84-0.76s-0.693-0.133-1.040 0c-0.37 0.131-0.662 0.404-0.816 0.751l-0.004 0.009c-0.174 0.373-0.181 0.733-0.021 1.080 0.427 0.907 1 1.646 1.72 2.219s1.587 0.968 2.6 1.181v0.68c0 0.001 0 0.003 0 0.004 0 0.384 0.161 0.731 0.42 0.976l0.001 0.001c0.28 0.28 0.606 0.419 0.979 0.419zM16 32c-2.213 0-4.293-0.421-6.24-1.261s-3.64-1.979-5.080-3.419c-1.416-1.422-2.569-3.107-3.379-4.976l-0.040-0.104c-0.84-1.947-1.261-4.027-1.261-6.24s0.421-4.293 1.261-6.24 1.979-3.64 3.419-5.080 3.133-2.581 5.080-3.421 4.027-1.259 6.24-1.259 4.293 0.419 6.24 1.259 3.64 1.981 5.080 3.421 2.579 3.133 3.419 5.080 1.261 4.027 1.261 6.24-0.421 4.293-1.261 6.24-1.979 3.64-3.419 5.080-3.133 2.579-5.080 3.419-4.027 1.261-6.24 1.261zM16 28.8c0.063 0.001 0.137 0.002 0.212 0.002 3.47 0 6.605-1.432 8.846-3.738l0.003-0.003c2.309-2.244 3.741-5.379 3.741-8.849 0-0.075-0.001-0.149-0.002-0.223l0 0.011c0.001-0.063 0.002-0.137 0.002-0.212 0-3.47-1.432-6.605-3.738-8.846l-0.003-0.003c-2.244-2.309-5.379-3.741-8.849-3.741-0.075 0-0.149 0.001-0.223 0.002l0.011-0c-3.547 0-6.566 1.246-9.059 3.739s-3.741 5.514-3.741 9.061 1.246 6.566 3.741 9.061 5.512 3.739 9.059 3.739z"></path>
</symbol>
<symbol id="icon-moon" fill="currentColor" viewBox="0 0 32 32">
<path d="M16 31c-4.166 0-7.708-1.458-10.624-4.374s-4.376-6.46-4.376-10.626 1.458-7.708 4.376-10.624 6.458-4.376 10.624-4.376l1.146 0.042 1.104 0.126c-1.138 0.806-2.048 1.854-2.728 3.144s-1.022 2.688-1.022 4.188c0 2.5 0.876 4.626 2.626 6.376s3.874 2.624 6.374 2.624c1.528 0 2.93-0.34 4.208-1.022 1.264-0.669 2.311-1.589 3.108-2.701l0.018-0.027 0.126 1.104 0.040 1.146c0 4.166-1.458 7.708-4.374 10.626s-6.46 4.374-10.626 4.374zM16 27.666c2.444 0 4.638-0.674 6.584-2.020s3.362-3.106 4.25-5.272l-1.666 0.334c-0.5 0.080-1.078 0.125-1.665 0.126h-0.001c-3.416 0-6.326-1.202-8.73-3.604s-3.606-5.314-3.606-8.73c0.001-0.588 0.046-1.166 0.134-1.729l-0.008 0.063 0.334-1.666c-2.179 0.897-3.971 2.361-5.244 4.211l-0.026 0.039c-1.266 1.798-2.023 4.033-2.023 6.445 0 0.048 0 0.096 0.001 0.144l-0-0.007c0 3.222 1.138 5.972 3.416 8.25s5.028 3.416 8.25 3.416z"></path>
</symbol>
<symbol id="icon-near" fill="currentColor" viewBox="0 0 32 32">
<path d="M24.437 3.431l-5.842 8.68c-0.404 0.591 0.373 1.307 0.932 0.809l5.749-5.009c0.155-0.124 0.373-0.031 0.373 0.187v15.649c0 0.218-0.28 0.311-0.404 0.155l-17.403-20.844c-0.559-0.685-1.367-1.058-2.268-1.058h-0.622c-1.616 0-2.952 1.338-2.952 2.987v22.027c0 1.648 1.336 2.986 2.983 2.986 1.026 0 1.989-0.529 2.548-1.431l5.842-8.68c0.404-0.591-0.373-1.307-0.932-0.809l-5.749 4.978c-0.155 0.124-0.373 0.031-0.373-0.187v-15.618c0-0.218 0.28-0.311 0.404-0.156l17.403 20.844c0.539 0.649 1.347 1.059 2.25 1.059 0.007 0 0.013-0 0.020-0h0.621c1.647 0 2.983-1.338 2.983-2.987v-22.026c0-1.649-1.336-2.987-2.983-2.987-1.057 0-2.020 0.529-2.579 1.431z"></path>
</symbol>
<symbol id="icon-polygon" fill="currentColor" viewBox="0 0 32 32">
<path  d="M24.167 10.583c-0.583-0.333-1.333-0.333-2 0l-4.667 2.75-3.167 1.75-4.583 2.75c-0.583 0.333-1.333 0.333-2 0l-3.583-2.167c-0.583-0.333-1-1-1-1.75v-4.166c0-0.667 0.333-1.333 1-1.75l3.583-2.083c0.583-0.333 1.333-0.333 2 0l3.583 2.167c0.583 0.333 1 1 1 1.75v2.75l3.167-1.834v-2.833c0-0.667-0.333-1.333-1-1.75l-6.667-3.917c-0.583-0.333-1.333-0.333-2 0l-6.833 4c-0.667 0.333-1 1-1 1.667v7.833c0 0.667 0.333 1.333 1 1.75l6.75 3.917c0.583 0.333 1.333 0.333 2 0l4.583-2.667 3.167-1.833 4.583-2.667c0.583-0.333 1.333-0.333 2 0l3.583 2.083c0.583 0.333 1 1 1 1.75v4.167c0 0.667-0.333 1.333-1 1.75l-3.5 2.083c-0.583 0.333-1.333 0.333-2 0l-3.583-2.083c-0.583-0.333-1-1-1-1.75v-2.667l-3.167 1.833v2.75c0 0.667 0.333 1.333 1 1.75l6.75 3.917c0.583 0.333 1.333 0.333 2 0l6.75-3.917c0.583-0.333 1-1 1-1.75v-7.916c0-0.667-0.333-1.333-1-1.75l-6.75-3.917z"></path>
</symbol>
<symbol id="icon-solana" fill="currentColor" viewBox="0 0 32 32">
<path d="M5.2 22.142c0.19-0.189 0.451-0.306 0.74-0.306h25.539c0.467 0 0.7 0.563 0.37 0.893l-5.045 5.045c-0.19 0.189-0.451 0.306-0.74 0.306h-25.539c-0.467 0-0.7-0.563-0.37-0.893l5.045-5.045zM5.2 3.306c0.201-0.193 0.467-0.306 0.74-0.306h25.539c0.467 0 0.7 0.563 0.37 0.893l-5.045 5.045c-0.19 0.189-0.451 0.306-0.74 0.306h-25.539c-0.467 0-0.7-0.563-0.37-0.893l5.045-5.045z"></path>
<path d="M26.804 12.664c-0.193-0.193-0.459-0.306-0.74-0.306h-25.539c-0.467 0-0.7 0.563-0.37 0.893l5.045 5.045c0.193 0.193 0.459 0.306 0.74 0.306h25.539c0.467 0 0.7-0.563 0.37-0.893l-5.045-5.045z"></path>
</symbol>
<symbol id="icon-sun" fill="currentColor" viewBox="0 0 32 32">
<path d="M15.998 20c0.021 0 0.045 0.001 0.070 0.001 1.083 0 2.062-0.447 2.763-1.166l0.001-0.001c0.72-0.701 1.167-1.68 1.167-2.764 0-0.025-0-0.049-0.001-0.074l0 0.004c0-0.021 0.001-0.045 0.001-0.070 0-1.083-0.447-2.062-1.166-2.763l-0.001-0.001c-0.701-0.72-1.68-1.167-2.764-1.167-0.025 0-0.049 0-0.074 0.001l0.004-0c-0.021-0-0.045-0.001-0.070-0.001-1.083 0-2.062 0.447-2.763 1.166l-0.001 0.001c-0.72 0.701-1.167 1.68-1.167 2.764 0 0.025 0 0.049 0.001 0.074l-0-0.004c-0 0.021-0.001 0.045-0.001 0.070 0 1.083 0.447 2.062 1.166 2.763l0.001 0.001c0.701 0.72 1.68 1.167 2.764 1.167 0.025 0 0.049-0 0.074-0.001l-0.004 0zM15.998 22.667c-0.032 0.001-0.070 0.001-0.107 0.001-1.807 0-3.44-0.747-4.606-1.95l-0.002-0.002c-1.205-1.168-1.953-2.801-1.953-4.609 0-0.038 0-0.076 0.001-0.113l-0 0.006c0-1.845 0.65-3.418 1.95-4.717s2.872-1.949 4.717-1.949 3.418 0.65 4.717 1.949 1.949 2.872 1.949 4.717-0.65 3.416-1.949 4.717-2.872 1.95-4.717 1.95zM2.666 17.334c-0.378 0-0.694-0.128-0.949-0.384s-0.384-0.571-0.384-0.949 0.128-0.694 0.384-0.95 0.571-0.382 0.949-0.382h2.667c0.378 0 0.694 0.128 0.95 0.382s0.382 0.573 0.382 0.95-0.128 0.694-0.382 0.949-0.573 0.384-0.95 0.384h-2.669zM26.666 17.334c-0.378 0-0.694-0.128-0.949-0.384s-0.384-0.571-0.384-0.949 0.128-0.694 0.384-0.95 0.571-0.382 0.949-0.382h2.667c0.378 0 0.694 0.128 0.949 0.382s0.384 0.573 0.384 0.95-0.128 0.694-0.384 0.949-0.571 0.384-0.949 0.384h-2.667zM15.998 6.667c-0.378 0-0.694-0.128-0.949-0.384s-0.384-0.571-0.384-0.949v-2.667c0-0.378 0.128-0.694 0.384-0.95s0.571-0.382 0.949-0.382 0.694 0.128 0.95 0.382 0.382 0.573 0.382 0.95v2.667c0 0.378-0.128 0.694-0.382 0.949s-0.573 0.384-0.95 0.384zM15.998 30.667c-0.378 0-0.694-0.128-0.949-0.384s-0.384-0.571-0.384-0.949v-2.667c0-0.378 0.128-0.694 0.384-0.949s0.571-0.384 0.949-0.384 0.694 0.128 0.95 0.384 0.382 0.571 0.382 0.949v2.667c0 0.378-0.128 0.694-0.382 0.949s-0.573 0.384-0.95 0.384zM7.531 9.4l-1.434-1.4c-0.267-0.245-0.395-0.555-0.384-0.933s0.139-0.699 0.384-0.966c0.267-0.267 0.589-0.4 0.966-0.4s0.69 0.133 0.933 0.4l1.4 1.434c0.245 0.267 0.366 0.578 0.366 0.933s-0.122 0.667-0.366 0.933c-0.209 0.236-0.513 0.384-0.852 0.384-0.023 0-0.046-0.001-0.068-0.002l0.003 0c-0.368-0.006-0.702-0.15-0.951-0.383l0.001 0.001zM23.998 25.901l-1.4-1.434c-0.227-0.242-0.367-0.569-0.367-0.929 0-0.007 0-0.014 0-0.021v0.001c0-0.366 0.122-0.674 0.366-0.917 0.209-0.236 0.513-0.384 0.852-0.384 0.023 0 0.046 0.001 0.068 0.002l-0.003-0c0.368 0.006 0.7 0.15 0.95 0.383l-0.001-0.001 1.434 1.4c0.267 0.245 0.395 0.555 0.384 0.933s-0.139 0.701-0.384 0.966c-0.267 0.267-0.589 0.4-0.966 0.4s-0.69-0.133-0.933-0.4zM22.598 9.4c-0.236-0.209-0.384-0.513-0.384-0.852 0-0.023 0.001-0.046 0.002-0.068l-0 0.003c0.006-0.368 0.15-0.7 0.383-0.95l-0.001 0.001 1.4-1.434c0.245-0.267 0.555-0.395 0.933-0.384s0.701 0.139 0.966 0.384c0.267 0.267 0.4 0.589 0.4 0.966s-0.133 0.69-0.4 0.933l-1.434 1.4c-0.267 0.245-0.578 0.366-0.933 0.366s-0.667-0.122-0.933-0.366zM6.098 25.901c-0.267-0.267-0.4-0.589-0.4-0.966s0.133-0.69 0.4-0.933l1.434-1.4c0.242-0.227 0.569-0.367 0.929-0.367 0.008 0 0.015 0 0.023 0h-0.001c0.366 0 0.672 0.122 0.917 0.366 0.267 0.245 0.395 0.55 0.384 0.917-0.006 0.368-0.151 0.701-0.385 0.95l0.001-0.001-1.4 1.434c-0.245 0.267-0.555 0.394-0.933 0.382-0.374-0.003-0.713-0.148-0.967-0.383l0.001 0.001z"></path>
</symbol>
<symbol id="icon-twitter" fill="currentColor" viewBox="0 0 32 32">
<path d="M22.121 6.824c-1.192 0-2.338 0.467-3.189 1.303s-1.34 1.971-1.361 3.162l-0.043 2.472c-0.005 0.278-0.131 0.527-0.326 0.695l-0.001 0.001c-0.164 0.141-0.378 0.227-0.613 0.227-0.044 0-0.088-0.003-0.13-0.009l0.005 0.001-2.449-0.333c-3.223-0.439-6.31-1.924-9.271-4.392-0.937 5.192 0.894 8.789 5.306 11.563l2.741 1.722c0.258 0.163 0.429 0.443 0.44 0.763l0 0.002c0 0.010 0.001 0.021 0.001 0.032 0 0.311-0.151 0.587-0.384 0.758l-0.003 0.002-2.498 1.824c1.485 0.092 2.895 0.026 4.066-0.205 7.401-1.478 12.322-7.046 12.322-16.232 0-0.749-1.587-3.358-4.612-3.358zM14.434 11.23c0.028-1.512 0.501-2.982 1.359-4.228s2.067-2.208 3.471-2.771 2.942-0.696 4.424-0.388 2.837 1.047 3.9 2.123c1.116-0.008 2.065 0.275 4.186-1.011-0.525 2.573-0.785 3.689-1.905 5.225 0 11.987-7.368 17.816-14.844 19.307-5.126 1.022-12.58-0.657-14.716-2.888 1.088-0.085 5.512-0.561 8.070-2.432-2.163-1.427-10.773-6.492-5.116-20.115 2.656 3.102 5.35 5.212 8.079 6.332 1.816 0.745 2.263 0.73 3.095 0.843l-0.002-0.002z"></path>
</symbol>
<symbol id="icon-app-logo" fill="currentColor" viewBox="0 0 123 32">
<path d="M0 31.87v-14.854c0-3.151 0.737-5.44 2.213-6.865s3.714-2.138 6.72-2.138h6.097v4.051h-4.846c-1.92 0-3.283 0.51-4.090 1.53s-1.21 2.626-1.21 4.816v13.459h-4.883zM17.976 31.87c-3.673 0-5.51-2.475-5.51-7.427 0-2.311 0.459-4.127 1.377-5.447s2.296-1.981 4.133-1.981h10.016v-1.53c0-2.281-1.030-3.421-3.088-3.421h-6.454v-4.051h8.207c2.031 0 3.575 0.646 4.633 1.936s1.586 2.986 1.586 5.087v12.784c0 2.701-1.253 4.051-3.757 4.051h-11.144zM36.256 31.87v-14.854c0-3.151 0.737-5.44 2.213-6.865s3.714-2.138 6.719-2.138h3.92v4.051h-2.667c-1.92 0-3.283 0.51-4.090 1.53s-1.21 2.626-1.21 4.816v13.459h-4.883zM52.583 31.87v-23.857h4.883v23.857h-4.883zM19.854 27.818h6.887c0.834 0 1.253-0.45 1.253-1.351v-5.402h-8.138c-1.558 0-2.337 1.126-2.337 3.376s0.779 3.376 2.337 3.376zM52.583 4.862v-4.862h4.883v4.862h-4.883zM101.28 10.904c1.951-1.718 5.081-2.577 9.391-2.577s7.44 0.859 9.391 2.577 2.926 4.79 2.926 9.216c0 4.485-0.968 7.585-2.904 9.303s-5.075 2.577-9.414 2.577-7.475-0.859-9.413-2.577-2.904-4.819-2.904-9.303c0-4.426 0.975-7.498 2.927-9.216zM103.639 20.12c0 2.882 0.525 4.928 1.573 6.136s2.869 1.813 5.459 1.813 4.411-0.605 5.459-1.813 1.573-3.254 1.573-6.136c0-2.854-0.525-4.878-1.573-6.071s-2.867-1.791-5.459-1.791-4.411 0.597-5.459 1.791-1.573 3.217-1.573 6.071zM62.058 31.737v-19.217c0-2.621 1.31-3.931 3.93-3.931h20.048c2.854 0 5.066 0.597 6.639 1.791s2.359 3.232 2.359 6.114v15.243h-5.11v-13.889c0-1.806-0.378-3.145-1.136-4.018s-1.994-1.31-3.712-1.31h-3.975v19.217h-5.11v-19.217h-7.512c-0.873 0-1.31 0.437-1.31 1.31v17.907h-5.11z"></path>
</symbol>
</defs>
</svg>
