<svg aria-hidden="true" style="position: absolute; width: 0; height: 0; overflow: hidden;" version="1.1" xmlns="http://www.w3.org/2000/svg" xmlns:xlink="http://www.w3.org/1999/xlink">
<defs>
<symbol id="icon-access" viewBox="0 0 32 32">
<path fill="#30d5c8" style="fill: var(--color1, #30d5c8)" d="M4.783 27.217c0.468 0.483 1.123 0.783 1.847 0.783 0.013 0 0.026-0 0.039-0l-0.002 0h18.667c0.011 0 0.024 0 0.037 0 0.725 0 1.379-0.3 1.847-0.783l0.001-0.001c0.483-0.468 0.782-1.122 0.782-1.846 0-0.013-0-0.026-0-0.040l0 0.002v-18.666c0-0.011 0-0.024 0-0.037 0-0.725-0.3-1.379-0.783-1.847l-0.001-0.001c-0.468-0.483-1.123-0.783-1.847-0.783-0.013 0-0.026 0-0.039 0l0.002-0h-18.666c-0.011-0-0.024-0-0.037-0-0.725 0-1.379 0.3-1.847 0.783l-0.001 0.001c-0.483 0.468-0.783 1.123-0.783 1.847 0 0.013 0 0.026 0 0.039l-0-0.002v5.761h2.667v-5.761h18.667v18.667h-18.667v-4.906h-2.667v4.906c-0 0.011-0 0.024-0 0.037 0 0.725 0.3 1.379 0.783 1.847l0.001 0.001z"></path>
<path fill="#30d5c8" style="fill: var(--color1, #30d5c8)" d="M12.4 23.033c-0.238-0.23-0.385-0.551-0.385-0.907 0-0.021 0.001-0.042 0.002-0.063l-0 0.003c0.006-0.38 0.165-0.721 0.417-0.967l3.767-3.767h-14.867c-0.010 0-0.021 0-0.032 0-0.359 0-0.685-0.147-0.919-0.384l-0-0c-0.254-0.254-0.382-0.57-0.382-0.948s0.128-0.695 0.383-0.951 0.573-0.383 0.951-0.383h14.866l-3.8-3.8c-0.267-0.267-0.4-0.584-0.4-0.951s0.133-0.683 0.4-0.949 0.584-0.4 0.951-0.4 0.683 0.133 0.949 0.4l6.1 6.1c0.133 0.133 0.228 0.278 0.284 0.433s0.083 0.322 0.083 0.5-0.028 0.345-0.083 0.5-0.151 0.3-0.284 0.433l-6.133 6.133c-0.245 0.244-0.55 0.367-0.916 0.367-0.004 0-0.008 0-0.013 0-0.368 0-0.701-0.153-0.938-0.4l-0-0z"></path>
</symbol>
<symbol id="icon-interoperability" viewBox="0 0 32 32" fill="none" stroke="#30d5c8">
<path stroke="currentColor" stroke-linejoin="round" stroke-linecap="round" stroke-miterlimit="4" stroke-width="2.667" d="M21.333 9.334l6.667 6.667M28 16.001l-6.667 6.667M28 16.001h-21"></path>
<path stroke-linejoin="round" stroke-linecap="round" stroke-miterlimit="4" stroke-width="2.667" d="M7 4h1.6c2.24 0 3.36 0 4.216 0.436 0.756 0.391 1.357 0.992 1.738 1.726l0.011 0.022c0.436 0.856 0.436 1.976 0.436 4.216v11.2c0 2.24 0 3.36-0.436 4.216-0.391 0.756-0.992 1.357-1.726 1.738l-0.022 0.011c-0.856 0.436-1.976 0.436-4.216 0.436h-1.6"></path>
<path stroke-linejoin="round" stroke-linecap="round" stroke-miterlimit="4" stroke-width="2.667" d="M21.333 9.334l6.667 6.667M28 16.001l-6.667 6.667M28 16.001h-13"></path>
</symbol>
<symbol id="icon-liquidity" viewBox="0 0 32 32">
<path fill="#30d5c8" style="fill: var(--color1, #30d5c8)" d="M15.999 30.667c-2.489 0-4.778-0.567-6.867-1.7s-3.8-2.644-5.133-4.533v2.233c0 0.378-0.128 0.694-0.383 0.949-0.234 0.237-0.559 0.384-0.919 0.384-0.011 0-0.023-0-0.034-0l0.002 0c-0.378 0-0.694-0.128-0.949-0.384s-0.384-0.572-0.384-0.949v-5.333c-0-0.010-0-0.021-0-0.032 0-0.359 0.147-0.685 0.384-0.919l0-0c0.255-0.255 0.572-0.383 0.949-0.383h5.333c0.378 0 0.695 0.128 0.951 0.383s0.383 0.573 0.383 0.951-0.128 0.694-0.383 0.949c-0.234 0.237-0.559 0.384-0.919 0.384-0.011 0-0.023-0-0.034-0l0.002 0h-1.966c1.067 1.6 2.472 2.889 4.217 3.867s3.661 1.466 5.75 1.466c3.111 0 5.795-1.022 8.051-3.067 2.143-1.9 3.577-4.559 3.879-7.551l0.004-0.049c0.038-0.374 0.203-0.704 0.451-0.951l0-0c0.255-0.255 0.572-0.383 0.949-0.383 0.008-0 0.018-0 0.028-0 0.363 0 0.691 0.154 0.921 0.4l0.001 0.001c0.256 0.267 0.362 0.578 0.317 0.933-0.156 1.867-0.65 3.611-1.483 5.233s-1.9 3.033-3.2 4.233-2.801 2.144-4.501 2.833-3.505 1.033-5.416 1.033zM2.665 16c-0.008 0-0.018 0-0.028 0-0.363 0-0.691-0.154-0.921-0.4l-0.001-0.001c-0.256-0.267-0.362-0.578-0.317-0.933 0.178-1.867 0.678-3.611 1.5-5.233s1.883-3.034 3.182-4.234 2.801-2.144 4.501-2.833 3.505-1.033 5.416-1.033c2.489 0 4.778 0.567 6.867 1.7s3.8 2.644 5.133 4.533v-2.233c-0-0.010-0-0.021-0-0.032 0-0.359 0.147-0.685 0.384-0.919l0-0c0.255-0.255 0.572-0.383 0.949-0.383s0.694 0.128 0.949 0.383c0.237 0.234 0.384 0.559 0.384 0.919 0 0.011-0 0.023-0 0.034l0-0.002v5.333c0 0.378-0.128 0.694-0.384 0.949s-0.572 0.384-0.949 0.384h-5.333c-0.378 0-0.694-0.128-0.949-0.384s-0.384-0.572-0.384-0.949c-0-0.010-0-0.021-0-0.032 0-0.359 0.147-0.685 0.384-0.919l0-0c0.255-0.255 0.572-0.383 0.949-0.383h1.967c-1.067-1.6-2.472-2.889-4.217-3.867s-3.66-1.466-5.749-1.466c-3.111 0-5.794 1.022-8.049 3.067s-3.551 4.578-3.884 7.6c-0.038 0.373-0.202 0.702-0.449 0.949v0c-0.234 0.237-0.559 0.384-0.919 0.384-0.011 0-0.023-0-0.034-0l0.002 0z"></path>
<path fill="#30d5c8" style="fill: var(--color1, #30d5c8)" d="M16.092 19.95l-5.318-3.142 5.318 7.497 5.323-7.497-5.322 3.142zM16.173 6.972l-5.32 8.828 5.319 3.145 5.319-3.142-5.318-8.831z"></path>
</symbol>
<symbol id="icon-app-logo" viewBox="0 0 123 32">
<path d="M0 31.87v-14.854c0-3.151 0.737-5.44 2.213-6.865s3.714-2.138 6.72-2.138h6.097v4.051h-4.846c-1.92 0-3.283 0.51-4.090 1.53s-1.21 2.626-1.21 4.816v13.459h-4.883zM17.976 31.87c-3.673 0-5.51-2.475-5.51-7.427 0-2.311 0.459-4.127 1.377-5.447s2.296-1.981 4.133-1.981h10.016v-1.53c0-2.281-1.030-3.421-3.088-3.421h-6.454v-4.051h8.207c2.031 0 3.575 0.646 4.633 1.936s1.586 2.986 1.586 5.087v12.784c0 2.701-1.253 4.051-3.757 4.051h-11.144zM36.256 31.87v-14.854c0-3.151 0.737-5.44 2.213-6.865s3.714-2.138 6.719-2.138h3.92v4.051h-2.667c-1.92 0-3.283 0.51-4.090 1.53s-1.21 2.626-1.21 4.816v13.459h-4.883zM52.583 31.87v-23.857h4.883v23.857h-4.883zM19.854 27.818h6.887c0.834 0 1.253-0.45 1.253-1.351v-5.402h-8.138c-1.558 0-2.337 1.126-2.337 3.376s0.779 3.376 2.337 3.376zM52.583 4.862v-4.862h4.883v4.862h-4.883zM101.28 10.904c1.951-1.718 5.081-2.577 9.391-2.577s7.44 0.859 9.391 2.577 2.926 4.79 2.926 9.216c0 4.485-0.968 7.585-2.904 9.303s-5.075 2.577-9.414 2.577-7.475-0.859-9.413-2.577-2.904-4.819-2.904-9.303c0-4.426 0.975-7.498 2.927-9.216zM103.639 20.12c0 2.882 0.525 4.928 1.573 6.136s2.869 1.813 5.459 1.813 4.411-0.605 5.459-1.813 1.573-3.254 1.573-6.136c0-2.854-0.525-4.878-1.573-6.071s-2.867-1.791-5.459-1.791-4.411 0.597-5.459 1.791-1.573 3.217-1.573 6.071zM62.058 31.737v-19.217c0-2.621 1.31-3.931 3.93-3.931h20.048c2.854 0 5.066 0.597 6.639 1.791s2.359 3.232 2.359 6.114v15.243h-5.11v-13.889c0-1.806-0.378-3.145-1.136-4.018s-1.994-1.31-3.712-1.31h-3.975v19.217h-5.11v-19.217h-7.512c-0.873 0-1.31 0.437-1.31 1.31v17.907h-5.11z"></path>
</symbol>
</defs>
</svg>
